<svg xmlns="http://www.w3.org/2000/svg"><defs><font id="SuisseIntl-Medium" horiz-adv-x="0"><font-face font-family="Suisse Intl Medium" font-weight="500" units-per-em="2048" panose-1="2 11 5 4 0 0 0 0 0 0" ascent="1638" descent="-410" x-height="1102" cap-height="1485" bbox="-457 -1391 5761 2318" underline-thickness="143" underline-position="-654" unicode-range="U+0020-FEFC"/><glyph glyph-name="uniFC43" unicode="ﻟﻰ" horiz-adv-x="1746" arabic-form="isolated" d="M1358 1485h225V391q0-180-113-282-52-47-120-74-74-221-254-344-193-131-488-131-253 0-400 148T61 131q0 40 1 60 2 31 6 59 5 29 6 49t9 50q5 20 10 45 4 20 13 47l15 45q1 3 5.5 19.5T136 536l16 48h215q-91-232-91-422 0-192 96-280 95-87 290-87 206 0 337 86 73 45 123 119H842l39 236h264q120 0 166 40 47 41 47 132v1077z"/><glyph glyph-name="uniFC86" unicode="ﻠﻰ" horiz-adv-x="1796" arabic-form="final" d="M1358 1485h225V408q0-91 47-132 46-40 166-40 21 0 21-21V23q0-23-21-23-208 0-328 109l-16 14-4-4q-34-34-78-62-2 0-16-10-72-232-258-356-193-131-488-131-253 0-400 148T61 131q0 40 1 60 2 31 6 59 5 29 6 49t9 50q5 20 10 45 4 20 13 47l15 45q1 3 5.5 19.5T136 536l16 48h215q-91-232-91-422 0-192 96-280 95-87 290-87 206 0 337 86 73 45 123 119H842l39 236h264q83 0 149 24 45 17 72 37-8 43-8 94v1094z"/><glyph glyph-name="uniFEF5" unicode="ﻟﺂ" horiz-adv-x="1218" arabic-form="isolated" d="M721 1587h225v-485q0-158-43-287-20-61-26-74l129-114q151-135 151-295 0-136-91-234T778 0H133L31 236q211 125 322 202 119 83 196 170 40 46 69 94L61 1208l9 21h268l362-328q21 84 21 201v485zM569 369q-89-66-215-133h463q115 0 115 96 0 84-92 170l-70 61q-87-109-201-194zM147 1573q44 0 134-38t133-38q91 0 164 53l-3-155q-69-52-157-52-47 0-128 38t-118 38q-92 0-104-80H-55q0 108 55 170 56 64 147 64z"/><glyph glyph-name="uniFEF6" unicode="ﻠﺂ" horiz-adv-x="1374" arabic-form="final" d="M936 1485h225V408q0-91 47-132 46-40 166-40 21 0 21-21V23q0-23-21-23-207 0-327 109l-7 4Q932 65 821 37 677 0 535 0 240 0 41 70v225q191-53 434-59v12q-4 54-12 112-5 34-12 75-4 20-25 113-27 118-34 147-10 41-52 228-11 51-35 153t-35 153h236q153-685 174-848 6-46 4-102v-39q115 7 264 39-12 53-12 112v1094zm-635 94q43 0 133-38t133-38q91 0 164 53l-2-155q-67-51-158-51-47 0-128 38-78 37-117 37-93 0-105-79H98q0 106 56 170 56 63 147 63z"/><glyph glyph-name="uniFEF7" unicode="ﻟﺄ" horiz-adv-x="1218" arabic-form="isolated" d="M721 1587h225v-485q0-158-43-287-20-61-26-74l129-114q151-135 151-295 0-136-91-234T778 0H133L31 236q211 125 322 202 119 83 196 170 40 46 69 94L61 1208l9 21h268l362-328q21 84 21 201v485zM569 369q-89-66-215-133h463q115 0 115 96 0 84-92 170l-70 61q-87-109-201-194zM246 1501h237l-41-143H100q-72 0-153-25v140q55 20 82 22l57 6-16 21q-33 40-33 96 0 80 57 134t139 54q94 0 173-41v-135q-89 33-136 33-43 0-73-24-31-25-31-64 0-32 27-53 21-17 53-21z"/><glyph glyph-name="uniFEF8" unicode="ﻠﺄ" horiz-adv-x="1374" arabic-form="final" d="M936 1485h225V408q0-91 47-132 46-40 166-40 21 0 21-21V23q0-23-21-23-207 0-327 109l-7 4Q932 65 821 37 677 0 535 0 240 0 41 70v225q191-53 434-59v12q-4 54-12 112-5 34-12 75-4 20-25 113-27 118-34 147-10 41-52 228-11 51-35 153t-35 153h236q153-685 174-848 6-46 4-102v-39q115 7 264 39-12 53-12 112v1094zm-545 16h238l-41-143H246q-73 0-154-25v140q55 20 80 22l59 6-18 21q-31 45-31 96 0 79 58 134 57 54 139 54 93 0 172-41v-135q-89 33-135 33-44 0-74-24-31-25-31-64 0-32 27-53 21-17 53-21z"/><glyph glyph-name="uniFEF9" unicode="ﻟﺈ" horiz-adv-x="1218" arabic-form="isolated" d="M721 1587h225v-485q0-158-43-287-20-61-26-74l129-114q151-135 151-295 0-136-91-234T778 0H133L31 236q211 125 322 202 119 83 196 170 40 46 69 94L61 1208l9 21h268l362-328q21 84 21 201v485zM569 369q-89-66-215-133h463q115 0 115 96 0 84-92 170l-70 61q-87-109-201-194zm82-760h234l-41-144H502q-76 0-154-24v139q58 20 82 25 29 4 57 4l-16 20q-33 40-33 97 0 79 58 134 57 54 139 54 93 0 172-41v-135q-89 33-135 33-44 0-74-24-31-25-31-64 0-33 27-54 29-19 57-20z"/><glyph glyph-name="uniFEFA" unicode="ﻠﺈ" horiz-adv-x="1374" arabic-form="final" d="M936 1485h225V408q0-91 47-132 46-40 166-40 21 0 21-21V23q0-23-21-23-207 0-327 109l-7 4Q932 65 821 37 677 0 535 0 240 0 41 70v225q191-53 434-59v12q-4 54-12 112-5 34-12 75-4 20-25 113-27 118-34 147-10 41-52 228-11 51-35 153t-35 153h236q153-685 174-848 6-46 4-102v-39q115 7 264 39-12 53-12 112v1094zM621-393h223l-41-144H461q-76 0-154-24v139q60 21 80 25 29 4 59 4l-18 20q-31 45-31 97 0 79 58 134 57 54 139 54 93 0 172-41v-135q-88 33-135 33-44 0-74-24-31-25-31-64 0-33 27-54 26-20 68-20z"/><glyph glyph-name="uniFEFB" unicode="ﻟﺎ" horiz-adv-x="1218" arabic-form="isolated" d="M721 1587h225v-485q0-158-43-287-20-61-26-74l129-114q151-135 151-295 0-136-91-234T778 0H133L31 236q211 125 322 202 119 83 196 170 40 46 69 94L61 1208l9 21h268l362-328q21 84 21 201v485zM569 369q-89-66-215-133h463q115 0 115 96 0 84-92 170l-70 61q-87-109-201-194z"/><glyph glyph-name="uniFEFC" unicode="ﻠﺎ" horiz-adv-x="1374" arabic-form="final" d="M936 1485h225V408q0-91 47-132 46-40 166-40 21 0 21-21V23q0-23-21-23-207 0-327 109l-7 4Q932 65 821 37 677 0 535 0 240 0 41 70v225q191-53 434-59v12q-4 54-12 112-5 34-12 75-4 20-25 113-27 118-34 147-10 41-52 228-11 51-35 153t-35 153h236q153-685 174-848 6-46 4-102v-39q115 7 264 39-12 53-12 112v1094z"/><glyph glyph-name="uni0407_uni0407" unicode="ЇЇ" horiz-adv-x="1089" d="M434 1485V0H174v1485h260zm481 0V0H655v1485h260zm-59 325h252v-221H856v221zm-436 0h252v-221H420v221zm-436 0h252v-221H-16v221z"/><glyph glyph-name="uni0457_uni0457" unicode="її" horiz-adv-x="1019" d="M629 1102h243V0H629v1102zm-482 0h244V0H147v1102zm-202 383h215v-228H-55v228zm917 0h215v-228H862v228zm-459 0h215v-228H403v228z"/><glyph glyph-name="uniFEDF_uniFB51" unicode="ﻟﭑ" horiz-adv-x="1218" d="M721 1587h225v-485q0-158-43-287-20-61-26-74l129-114q151-135 151-295 0-136-91-234T778 0H133L31 236q211 125 322 202 119 83 196 170 40 46 69 94L61 1208l9 21h268l362-328q21 84 21 201v485zM569 369q-89-66-215-133h463q115 0 115 96 0 84-92 170l-70 61q-87-109-201-194zM397 1714q84 0 139-53 54-53 54-133 0-101-82-156t-232-55q-156 0-311 61l41 131q74-25 84-26 30 42 66 80 124 151 241 151zm-121-254q158 0 158 68 0 49-61 49-43 0-101-41-19-14-77-72 55-4 81-4z"/><glyph glyph-name="uniFEE0_uniFB51" unicode="ﻠﭑ" horiz-adv-x="1374" d="M936 1485h225V408q0-91 47-132 46-40 166-40 21 0 21-21V23q0-23-21-23-207 0-327 109l-7 4Q932 65 821 37 677 0 535 0 240 0 41 70v225q191-53 434-59v12q-4 54-12 112-5 34-12 75-4 20-25 113-27 118-34 147-10 41-52 228-11 51-35 153t-35 153h236q153-685 174-848 6-46 4-102v-39q115 7 264 39-12 53-12 112v1094zm-410 235q84 0 139-53 54-53 54-133 0-101-82-156t-231-55q-157 0-312 61l41 132q79-26 84-27 30 42 66 80 124 151 241 151zm-120-254q157 0 157 68 0 49-61 49-43 0-101-41-28-21-79-72 55-4 84-4z"/><glyph glyph-name="uni066E.init" unicode="ٮ" horiz-adv-x="540" d="M152 993h225q61-434 61-602 0-179-114-285Q211 0 0 0q-20 0-20 23v192q0 21 20 21 120 0 166 40 47 41 47 132 0 151-61 585z"/><glyph glyph-name="uni066E.medi" unicode="ٮ" horiz-adv-x="614" d="M231 758h209q0-190-22-332-11-69-35-141 63-27 86-33 74-16 145-16 21 0 21-21V23q0-23-21-23-114 0-206 45-52 27-113 74Q188 0 0 0q-20 0-20 23v192q0 21 20 21 138 0 184 102 47 109 47 420z"/><glyph glyph-name="uni066E.fina" unicode="ٮ" horiz-adv-x="1701" d="M1319 758h209q0-301-55-473 99-49 229-49 20 0 20-21V23q0-23-20-23-178 0-320 119Q1275 0 1083 0H606Q345 0 203 131T61 504q0 126 52 397h215q-41-217-41-344 0-175 79-248t291-73h430q139 0 185 102 47 109 47 420z"/><glyph glyph-name="uni066F.fina" unicode="ٯ" horiz-adv-x="1574" d="M1012 993q188 0 305-122 117-121 129-345l4-77q4-91 4-201v-12h121q20 0 20-21V23q0-23-20-23h-125q-11-70-37-125-68-150-244-233-173-82-438-82-350 0-509 140Q61-159 61 131q0 40 1 60 2 31 6 59 5 29 6 49t9 50q5 20 10 45 4 20 13 47l15 45q1 3 5.5 19.5T136 536l16 48h215q-91-232-91-422 0-196 115-284 114-87 387-87 169 0 281 47 110 46 151 125l19 37h-146Q835 0 687 130T539 483q0 221 134 366 133 144 339 144zm219-678-12 193q-21 250-213 250-104 0-173-75t-69-191q0-256 350-256h121q0 35-4 79z"/><glyph glyph-name="uni06A1.init" unicode="ڡ" horiz-adv-x="1069" d="M541 1014q191 0 318-135 128-136 128-336 0-247-145-395T457 0H0q-20 1-20 23v192q0 21 20 21h201q0 1-2 5-1 2-4 5-2 2-2 4-17 29-37 55-86 131-86 266 0 187 135 315 136 128 336 128zM428 236h35q139 0 217 75 80 77 80 211 0 110-65 183-64 71-167 71-104 0-169-69-64-68-64-170 0-84 67-185 43-69 56-94 9-12 10-22z"/><glyph glyph-name="uni06A1.medi" unicode="ڡ" horiz-adv-x="1093" d="M549 1014q194 0 323-130t129-335q0-129-92-248-2-2-47-53l35-4q70-8 197-8 20 0 20-21V23q0-23-20-23-174 0-369 39-84 16-156 37-2-2-6-2Q309 0 0 0q-20 1-20 23v192q0 21 20 21 131 0 209 8 10 0 18 2-33 30-49 51-88 106-88 252 0 189 132 327t327 138zm170-658q55 73 55 168 0 114-63 183t-168 69q-101 0-164-67-64-69-64-177 0-94 58-172 54-72 164-110 130 33 182 106z"/><glyph glyph-name="uni06A1.fina" unicode="ڡ" horiz-adv-x="1951" d="M1407 1014q195 0 324-130t129-335q0-128-93-248-24-33-47-53l35-4q70-8 197-8 20 0 20-21V23q0-23-20-23-174 0-369 39-84 16-156 37-2-2-6-2Q1167 0 858 0q-20 1-20 23v192q0 21 20 21 131 0 209 8 10 0 18 2-33 30-49 51-88 106-88 252 0 189 132 327t327 138zm170-658q55 73 55 168 0 114-63 183t-168 69q-101 0-164-67t-63-177q0-96 57-172 54-72 164-110 130 33 182 106zM100 795h215q-28-147-28-238 0-175 79-248t291-73h234q20 0 20-21V23q0-23-20-23H606Q345 0 205 130 63 261 63 498q0 127 37 297z"/><glyph glyph-name="uni06AA.init" unicode="ڪ" horiz-adv-x="1652" d="M530 1485h308L293 901h766q227 0 369-124 143-125 143-326 0-205-126-328T1112 0H0q-20 0-20 23v192q0 21 20 21h1087q123 0 191 54t68 152q0 106-73 165t-208 59H178L45 901z"/><glyph glyph-name="uni06AA.medi" unicode="ڪ" horiz-adv-x="1742" d="M530 1485h308L293 901h766q227 0 369-124 143-125 143-326 0-205-126-328T1112 0H0q-20 0-20 23v192q0 21 20 21h1087q123 0 191 54t68 152q0 106-73 165t-208 59H178L45 901zm813-1290 103 129q133-88 297-88 20 0 20-21V23q0-23-20-23-217 0-400 195z"/><glyph glyph-name="uni06AA.fina" unicode="ڪ" horiz-adv-x="1943" d="M737 1485h307L500 901h766q227 0 369-124 143-125 143-326 0-205-126-328T1319 0H508Q372 0 267 31 165 61 51 139l107 201q174-104 350-104h786q124 0 191 54t67 152q0 106-72 165-73 59-208 59H385L252 901zm807-1290 103 129q133-88 297-88 20 0 20-21V23q0-23-20-23-217 0-400 195z"/><glyph glyph-name="uni06C2.fina" unicode="ۂ" horiz-adv-x="1095" d="M713 1102h225V395q0-79 35-120 33-39 123-39 20 0 20-21V23q0-23-20-23-99 0-170 31-65 28-111 78-80-47-141-72Q591 0 487 0 295 0 178 111T61 403q0 143 86 280 85 136 281 228 127 55 285 78v113zM422 666q-135-96-135-244 0-92 53-140 54-49 152-49 78 0 141 15 40 7 96 31-16 70-16 147v346q-181-27-291-106zm401 708h238l-41-143H678q-73 0-154-25v140q55 20 82 22l58 6-17 21q-33 41-33 96 0 79 58 134 57 54 139 54 93 0 172-41v-135q-89 33-135 33-44 0-74-24-31-25-31-64 0-32 27-53 21-17 53-21z"/><glyph glyph-name="uni06C3.fina" unicode="ۃ" horiz-adv-x="1286" d="M614 901q138 0 233-84t189-282q2-3 5.5-11.5t11-23.5 13.5-29q32-68 34-72 10-20 34-59 23-38 43-56 20-19 49-33 30-15 60-15 21 0 21-21V23q0-23-21-23-147 0-245 88-100 89-179 295-63 156-111 220-48 63-135 63-80 0-138-69-56-66-146-261l-76-172-195 92 76 172q114 263 221 368 106 105 256 105zm-342 332 181 180 155-151 154 151 182-180-180-180-156 151-153-151z"/><glyph glyph-name="uniFB51" unicode="ٱ" horiz-adv-x="602" arabic-form="final" d="M164 1229h225V408q0-91 47-132 46-40 166-40 21 0 21-21V23q0-23-21-23-211 0-324 106-114 106-114 285v838zm221 448q83 0 138-53t55-133q0-101-82-156t-232-55q-156 0-311 61l41 132q79-26 84-27 33 46 65 80 124 151 242 151zm-121-254q158 0 158 68 0 49-62 49-42 0-100-41-22-17-78-72 55-4 82-4z"/><glyph glyph-name="uniFB57" unicode="پ" horiz-adv-x="1701" arabic-form="final" d="M1319 758h209q0-301-55-473 99-49 229-49 20 0 20-21V23q0-23-20-23-178 0-320 119Q1275 0 1092 0H606Q345 0 203 131T61 504q0 126 52 397h215q-41-217-41-344 0-175 79-248t291-73h430q139 0 185 102 47 109 47 420zM549-324l180 181 166-162 164 162 182-181-180-182-166 164-164-164zm203-268 143 146 145-146-143-143z"/><glyph glyph-name="uniFB58" unicode="پ" horiz-adv-x="694" d="M315 993h226q61-434 61-602 0-178-115-285Q374 0 164 0H0q-20 0-20 23v192q0 21 20 21h164q120 0 166 40 47 41 47 132 0 143-62 585zM-78-303l180 180 166-162 164 162 182-180-180-182-166 163-164-163zm203-268 143 145 146-145-144-144z"/><glyph glyph-name="uniFB59" unicode="پ" horiz-adv-x="757" arabic-form="medial" d="M297 758h209q0-187-14-307-11-79-25-134 59-34 131-55 79-26 160-26 20 0 20-21V23q0-23-20-23-113 0-226 55-69 37-143 99-46-64-117-101Q164 0 0 0q-20 0-20 23v192q0 21 20 21 185 0 244 98 35 58 44 150 9 93 9 274zM-6-309l180 180 166-162 164 162 182-180-180-183-166 164-164-164zm203-269 143 146 145-146-143-143z"/><glyph glyph-name="uniFB67" unicode="ٹ" horiz-adv-x="1701" arabic-form="final" d="M1319 758h209q0-301-55-473 99-49 229-49 20 0 20-21V23q0-23-20-23-178 0-320 119Q1277 0 1087 0H606Q345 0 203 131T61 504q0 126 52 397h215q-41-217-41-344 0-175 79-248t291-73h445q127 4 170 102 47 109 47 420zm-612 614h122v-211q133 156 250 156 94 0 151-57 56-56 56-140 0-100-101-159-102-60-272-60H645l-74 133h136v338zm346-188q-48 0-95-32-45-30-137-118h92q220 0 220 86 0 28-23 46-22 18-57 18z"/><glyph glyph-name="uniFB68" unicode="ٹ" horiz-adv-x="784" d="M315 993h226q61-434 61-602 0-178-115-285Q374 0 164 0H0q-20 0-20 23v192q0 21 20 21h164q120 0 166 40 47 41 47 132 0 143-62 585zm-151 580h123v-209q46 52 88 84 91 70 162 70 92 0 150-58 56-56 56-139 0-101-101-160-100-59-271-59H102l-73 133h135v338zm119-338h88q219 0 219 86 0 28-23 46-21 17-57 17-73 0-195-116z"/><glyph glyph-name="uniFB69" unicode="ٹ" horiz-adv-x="757" arabic-form="medial" d="M297 758h209q0-187-14-307-11-79-25-134 59-34 131-55 79-26 160-26 20 0 20-21V23q0-23-20-23-113 0-226 55-69 37-143 99-46-64-117-101Q164 0 0 0q-20 0-20 23v192q0 21 20 21 185 0 244 98 35 58 44 150 9 93 9 274zm-133 616h123v-209q46 52 88 84 91 70 162 70 93 0 150-57 56-56 56-140 0-100-101-159-102-60-271-60H102l-73 133h135v338zm119-338h88q219 0 219 86 0 28-23 46t-57 18q-72 0-195-117l-10-10q-8-8-11-12-5-6-11-11z"/><glyph glyph-name="uniFB6B" unicode="ڤ" horiz-adv-x="1951" arabic-form="final" d="M1407 1014q195 0 324-130t129-335q0-128-93-248-24-33-47-53l35-4q70-8 197-8 20 0 20-21V23q0-23-20-23-174 0-369 39-84 16-156 37-2-2-6-2Q1167 0 858 0q-20 1-20 23v192q0 21 20 21 131 0 209 8 10 0 18 2-33 30-49 51-88 106-88 252 0 189 132 327t327 138zm170-658q55 73 55 168 0 114-63 183t-168 69q-101 0-164-67t-63-177q0-96 57-172 54-72 164-110 130 33 182 106zM100 795h215q-28-147-28-238 0-175 79-248t291-73h234q20 0 20-21V23q0-23-20-23H606Q345 0 205 130 63 261 63 498q0 127 37 297zm967 489 180 182 166-163 164 163 182-182-180-180-166 162-164-162zm201 264 143 146 145-146-143-143z"/><glyph glyph-name="uniFB6C" unicode="ڤ" horiz-adv-x="1069" d="M541 1014q191 0 318-135 128-136 128-336 0-247-145-395T457 0H0q-20 1-20 23v192q0 21 20 21h201q0 1-2 5-1 2-4 5-2 2-2 4-17 29-37 55-86 131-86 266 0 187 135 315 136 128 336 128zM428 236h35q139 0 217 75 80 77 80 211 0 110-65 183-64 71-167 71-104 0-169-69-64-68-64-170 0-84 67-185 43-69 56-94 9-12 10-22zM201 1284l180 182 166-163 164 163 182-182-180-180-166 162-164-162zm200 264 144 146 145-146-143-143z"/><glyph glyph-name="uniFB6D" unicode="ڤ" horiz-adv-x="1093" arabic-form="medial" d="M549 1014q194 0 323-130t129-335q0-129-92-248-2-2-47-53l35-4q70-8 197-8 20 0 20-21V23q0-23-20-23-174 0-369 39-84 16-156 37-2-2-6-2Q309 0 0 0q-20 1-20 23v192q0 21 20 21 131 0 209 8 10 0 18 2-33 30-49 51-88 106-88 252 0 189 132 327t327 138zm170-658q55 73 55 168 0 114-63 183t-168 69q-101 0-164-67-64-69-64-177 0-94 58-172 54-72 164-110 130 33 182 106zm-504 928 180 182 166-163 164 163 182-182-180-180-166 162-164-162zm201 264 143 146 146-146-144-143z"/><glyph glyph-name="uniFB7B" unicode="چ" horiz-adv-x="1333" arabic-form="final" d="M408 1102q83 0 171-38 81-35 165-95 33-24 158-118 87-66 176-115 99-55 194-77l-62-225q-55 0-116-8v-47q0-143 239-143 21 0 21-21V23q0-23-21-23-393 0-393 342v61l-96-22q-226-56-381-166Q307 104 307-43q0-84 35-152 34-66 129-163l-223-82Q82-271 82-76q0 135 58 242t162 184q104 76 225 126 122 50 270 83 55 13 131 25-54 31-103 65-2 2-11 9t-24.5 18.5T756 701q-75 54-76 55-33 21-65 41-53 33-74 40-22 7-67 19-39 10-77 10-109 0-245-47v215q112 68 256 68zM569-315l181 180 165-162 164 162 183-180-181-183-166 164-163-164zm203-269 143 146 146-146-144-143z"/><glyph glyph-name="uniFB7C" unicode="چ" horiz-adv-x="1251" d="M387 993q103 0 208-51 102-50 184-116 82-67 197-135 120-71 234-99l-61-225q-131-22-243-70-103-44-182-95-90-58-163-96-88-46-227-76Q194 0 2 0q-22 0-22 23v192q0 21 22 21 90 0 168 6t153 21q51 10 121 26 50 11 117 39 82 34 93 38 28 11 99 46 64 32 85 41 2 1 6.5 3t12.5 5.5 15 6.5q13 6 41 17-57 26-129 76-15 13-51 38-14 10-31 22t-21 15q-1 1-17 12t-30 20q-37 24-51 30-7 3-23.5 11.5T536 722q-31 16-53 20-5 1-22.5 5t-27.5 6q-30 5-56 5-110 0-246-47v215q110 67 256 67zM229-315l181 180 165-162 164 162 183-180-181-183-166 164-163-164zm203-269 143 146 146-146-143-143z"/><glyph glyph-name="uniFB7D" unicode="چ" horiz-adv-x="1292" arabic-form="medial" d="M387 993q103 0 208-51 102-50 184-116 82-67 197-135 120-71 234-99l-61-225-94-19q12-40 47-69 55-43 190-43 21 0 21-21V23q0-23-21-23-356 0-389 297-73-31-121-61-31-18-88-54-52-33-98-57-25-13-100-46-74-32-132-44-57-11-156-24Q121 0 2 0q-22 0-22 23v192q0 21 22 21 90 0 168 6t153 21q51 10 121 26 50 11 117 39 82 34 93 38 28 11 99 46 64 32 85 41 2 1 6.5 3t12.5 5.5 15 6.5q13 6 41 17-57 26-129 76-15 13-51 38-14 10-31 22t-21 15q-1 1-17 12t-30 20q-37 24-51 30-7 3-23.5 11.5T536 722q-31 16-53 20-5 1-22.5 5t-27.5 6q-30 5-56 5-110 0-246-47v215q110 67 256 67zM229-315l181 180 165-162 164 162 183-180-181-183-166 164-163-164zm203-269 143 146 146-146-143-143z"/><glyph glyph-name="uniFB89" unicode="ڈ" horiz-adv-x="1050" arabic-form="final" d="M20 70v225q202-59 371-59 96 0 168 8 42 5 94 16-29 62-39 96-70 209-149 637h235q72-441 119-585 57-172 232-172 20 0 20-21V23q0-23-20-23-175 0-287 106-72-47-160-75Q499 0 391 0 284 0 216 13 143 27 20 70zm291 1503h123v-209q46 52 88 84 91 70 162 70 93 0 151-58 56-56 56-139 0-101-101-160-100-59-272-59H250l-74 133h135v338zm119-338h88q219 0 219 86 0 28-22 46-21 17-58 17-72 0-194-116z"/><glyph glyph-name="uniFB8B" unicode="ژ" horiz-adv-x="710" arabic-form="final" d="M221 901h225q30-197 46-409l6-86 6-48q11-68 58-95 48-27 149-27 20 0 20-21V23q0-23-20-23-137 0-197 72l-4 6V45q0-230-143-357Q222-440-20-440v215q147 0 230 72t83 214q0 277-72 840zm-241 316 180 182 166-164 163 164 183-182-180-181-166 162-164-162zm200 264 144 145 145-145-143-144z"/><glyph glyph-name="uniFB8D" unicode="ڑ" horiz-adv-x="710" arabic-form="final" d="M221 901h225q30-197 46-409l6-86 6-48q11-68 58-95 48-27 149-27 20 0 20-21V23q0-23-20-23-137 0-197 72l-4 6V45q0-230-143-357Q222-440-20-440v215q147 0 230 72t83 214q0 277-72 840zm-102 584h123v-209q46 52 88 84 91 70 162 70 92 0 150-58 56-56 56-139 0-101-101-160-100-59-271-59H57l-73 133h135v338zm117-338h90q219 0 219 86 0 28-23 46-21 17-57 17-73 0-195-116z"/><glyph glyph-name="uniFB8F" unicode="ک" horiz-adv-x="2021" arabic-form="final" d="M115 901h215q-41-217-41-344 0-175 79-248t291-73h480q20 0 20-21V23q0-23-20-23H608Q347 0 205 131T63 504q0 126 52 397zm1329 727h328v-10l-711-596 328-143q393-175 393-457 0-194-147-308T1237 0H659q-20 0-20 23v192q0 21 20 21h594q136 0 220 48 83 47 83 124 0 76-65 137-67 62-219 131L770 897v158zm178-1433 102 129q133-88 297-88 21 0 21-21V23q0-23-21-23-216 0-399 195z"/><glyph glyph-name="uniFB90" unicode="ک" horiz-adv-x="1183" d="M784 1628h328v-10l-711-596 328-143q393-175 393-457 0-195-146-308Q829 0 578 0H0q-20 0-20 23v192q0 21 20 21h594q135 0 219 48t84 124q0 75-66 137-67 62-219 131L111 897v158z"/><glyph glyph-name="uniFB91" unicode="ک" horiz-adv-x="1320" arabic-form="medial" d="M784 1628h328v-10l-711-596 328-143q393-175 393-457 0-195-146-308Q829 0 578 0H0q-20 0-20 23v192q0 21 20 21h594q135 0 219 48t84 124q0 75-66 137-67 62-219 131L111 897v158zM922 195l102 129q133-88 297-88 20 0 20-21V23q0-23-20-23-216 0-399 195z"/><glyph glyph-name="uniFB93" unicode="گ" horiz-adv-x="2021" arabic-form="final" d="M115 901h215q-41-217-41-344 0-175 79-248t291-73h480q20 0 20-21V23q0-23-20-23H608Q347 0 205 131T63 504q0 126 52 397zm1329 727h328v-10l-711-596 328-143q393-175 393-457 0-194-147-308T1237 0H659q-20 0-20 23v192q0 21 20 21h594q136 0 220 48 83 47 83 124 0 76-65 137-67 62-219 131L770 897v158zm178-1433 102 129q133-88 297-88 21 0 21-21V23q0-23-21-23-216 0-399 195zm-506 1433v-8l-465-428-90 96 350 340h205z"/><glyph glyph-name="uniFB94" unicode="گ" horiz-adv-x="1490" d="M1092 1628h327v-10l-710-596 327-143q394-176 394-457 0-194-147-308T885 0H307q-20 0-20 23v192q0 21 20 21h594q135 0 219 48t84 124-65 137q-67 62-219 131L418 897v158zm-402 0v-8l-465-428-90 96 350 340h205zM0 236h397q21 0 21-21V23q0-23-21-23H0q-20 0-20 23v192q0 21 20 21z"/><glyph glyph-name="uniFB95" unicode="گ" horiz-adv-x="1648" arabic-form="medial" d="M1112 1628h328v-10l-711-596 328-143q393-175 393-457 0-195-146-308Q1157 0 905 0H328q-21 0-21 23v192q0 21 21 21h594q135 0 219 48t84 124q0 75-66 137-67 62-219 131L438 897v158zm137-1433 103 129q133-88 297-88 20 0 20-21V23q0-23-20-23-217 0-400 195zM711 1628v-8l-465-428-90 96 350 340h205zM0 236h397q21 0 21-21V23q0-23-21-23H0q-20 0-20 23v192q0 21 20 21z"/><glyph glyph-name="uniFB9F" unicode="ں" horiz-adv-x="1404" arabic-form="final" d="M901 901h225q29-191 52-375 11-60 12-116l8-52q11-68 58-95 48-27 149-27 20 0 20-21V23q0-23-20-23-137 0-197 72-7 7-14 22-7-68-35-147-60-184-206-285-147-102-365-102-254 0-390 146Q61-146 61 131q0 40 1 60 2 31 6 59 5 29 6 49t9 50q5 20 10 45 4 20 13 47l15 45q1 3 5.5 19.5T136 536l16 48h215q-91-232-91-422 0-165 80-266t248-101q379 0 379 408 0 46-1 71-2 38-6 87-1 15-2.5 29.5t-3 29.5-2.5 21q-2 22-14 103-4 25-8.5 58.5T940 645q-1 5-7 46.5T921 770q-18 113-20 131z"/><glyph glyph-name="uniFBA7" unicode="ہ" horiz-adv-x="1286" arabic-form="final" d="M614 901q138 0 233-84t189-282q2-3 5.5-11.5t11-23.5 13.5-29q32-68 34-72 10-20 34-59 23-38 43-56 20-19 49-33 30-15 60-15 21 0 21-21V23q0-23-21-23-147 0-245 88-100 89-179 295-63 156-111 220-48 63-135 63-80 0-138-69-56-66-146-261l-76-172-195 92 76 172q114 263 221 368 106 105 256 105z"/><glyph glyph-name="uniFBA8" unicode="ہ" horiz-adv-x="561" d="M180-92h174L254-309h133l-41-254H74v250zM152 993h225q61-434 61-602 0-179-114-285Q211 0 0 0q-20 0-20 23v192q0 21 20 21 120 0 166 40 47 41 47 132 0 151-61 585z"/><glyph glyph-name="uniFBA9" unicode="ہ" horiz-adv-x="1484" arabic-form="medial" d="M244 758h225V74q0-387 383-402v82q0 231 104 356 105 126 297 126h232q20 0 20-23V20q0-20-20-20h-232q-104 0-150-62t-46-204v-92L866-563q-622 0-622 643-13-8-19-14Q136 0 0 0q-20 0-20 23v192q0 21 20 21 244 0 244 167v355zM1247-92h174l-100-217h133l-41-254h-272v250z"/><glyph glyph-name="uniFBAB" unicode="ھ" horiz-adv-x="1277" arabic-form="final" d="M682 1167h178q307-268 307-577 0-191-131-328 28-7 74-14 84-12 168-12 20 0 20-23V20q0-20-20-20-49 0-92 8l-88 25q38-44 55-84 21-43 21-88 0-135-98-218t-259-83q-263 0-414 186-51 64-84 139-84-61-167-131L20-76Q131 30 260 119q-6 61-6 129 0 264 108 504 107 239 320 415zm-74-884q334 99 334 301 0 135-65 235-56 87-136 150-43-37-82-88-182-245-182-588v-57q22 9 131 47zm84-215Q598 40 528 4q22-47 43-78 90-133 236-133 162 0 162 111 0 61-33 121-26 47-76 108-58-30-168-65z"/><glyph glyph-name="uniFBAC" unicode="ھ" horiz-adv-x="1558" d="M487 1157v236q461 0 725-207 265-208 265-574 0-164-99-434L1159-27q-258 0-516 88l-57 19-23-6Q309 0 0 0q-20 1-20 23v192q0 21 20 21 131 0 209 8 10 0 18 2-33 30-49 51-88 106-88 252 0 189 132 327t327 138q194 0 323-130t129-335q0-127-92-246-34-45-59-67 52-12 88-13 100-12 221-12 90 211 90 389 0 255-203 406t-559 151zm232-801q55 73 55 168 0 114-63 183t-168 69q-101 0-164-67-64-69-64-177 0-94 58-172 54-72 164-110 130 33 182 106z"/><glyph glyph-name="uniFBAD" unicode="ھ" horiz-adv-x="1132" arabic-form="medial" d="M537 1167h178q307-268 307-577 0-152-80-264-21-32-51-64 28-7 74-14 84-12 168-12 20 0 20-23V20q0-20-20-20-50 0-93 8l-88 25q40-46 56-84 20-41 20-88 0-136-97-218-98-83-259-83-190 0-327 102T147-53L131 2Q73 0 0 0q-20 0-20 23v192q0 21 20 21 63 0 109 2 5 140 28 251 91 425 400 678zM322 254l38 8q437 77 437 322 0 133-66 235-60 90-133 150-50-43-90-99-87-116-136-274-50-161-50-326v-16zm79-219-41-8q23-59 60-109 96-125 242-125 161 0 161 111 0 63-32 121-28 54-78 110Q586 70 401 35z"/><glyph glyph-name="uniFBAF" unicode="ے" horiz-adv-x="1515" arabic-form="final" d="M559 236h957q20 0 20-21V23q0-23-20-23H496Q307 0 307-102q0-103 246-103h735l-98-235H602Q82-440 82-115q0 351 477 351z"/><glyph glyph-name="uniFBB1" unicode="ۓ" horiz-adv-x="1515" arabic-form="final" d="M559 236h957q20 0 20-21V23q0-23-20-23H496Q307 0 307-102q0-103 246-103h735l-98-235H602Q82-440 82-115q0 351 477 351zm207 419h192l-55-184H633q-104 0-217-35v178q79 27 114 33l-2 2q-43 46-43 115 0 89 64 151t176 62q69 0 152-43V762q-85 29-148 29-39 0-66-19-26-18-26-47 0-70 129-70z"/><glyph glyph-name="uniFBFD" unicode="ی" horiz-adv-x="1384" arabic-form="final" d="M983 70v225q271-59 401-59 21 0 21-21V23q0-23-21-23h-6q-36-89-84-150-214-290-665-290-257 0-412 149Q61-141 61 131q0 40 1 60 2 31 6 59 5 29 6 49t9 50q5 20 10 45 4 20 13 47l15 45q1 3 5.5 19.5T136 536l16 48h215q-91-232-91-422 0-367 406-367 203 0 348 86 90 52 146 139-16 6-37 10-12 2-31 7-32 10-125 33z"/><glyph glyph-name="uniFBFE" unicode="ی" horiz-adv-x="694" d="M315 993h226q61-434 61-602 0-178-115-285Q374 0 164 0H0q-20 0-20 23v192q0 21 20 21h164q120 0 166 40 47 41 47 132 0 143-62 585zM-43-313l180 180 156-152 153 152 183-180-180-181-156 152-154-152z"/><glyph glyph-name="uniFBFF" unicode="ی" horiz-adv-x="757" arabic-form="medial" d="M297 758h209q0-187-14-307-11-79-25-134 59-34 131-55 79-26 160-26 20 0 20-21V23q0-23-20-23-113 0-226 55-69 37-143 99-46-64-117-101Q164 0 0 0q-20 0-20 23v192q0 21 20 21 185 0 244 98 35 58 44 150 9 93 9 274zM4-315l180 180 156-152 154 152 182-180-180-181-156 152-154-152z"/><glyph glyph-name="uniFC02" unicode="ﰂ" horiz-adv-x="1118" arabic-form="isolated" d="M813 1090h21l141-144Q770 766 770 604q0-112 78-201 64-74 176-153l33-21L934 16q-95 7-176 58-63 39-105 86-35 14-82 20-68 13-116 13-168 0-168-162 0-160 61-594H123Q61-121 61 47q0 167 108 275t267 108q64 0 174-22l-12 22q-53 103-53 213 0 255 268 447zm66 325h192l-55-184H745q-104 0-217-35v178q78 27 115 33l-2 2q-43 44-43 115 0 89 64 151t176 62q68 0 151-43v-172q-83 28-147 28-42 0-67-18t-25-47q0-70 129-70z"/><glyph glyph-name="uniFC03" unicode="ﰃ" horiz-adv-x="1777" arabic-form="isolated" d="M1358 993h225q62-442 62-602 0-186-115-289-77-69-187-90-76-205-247-321-193-131-488-131-253 0-400 148T61 131q0 40 1 60 2 31 6 59 5 29 6 49t9 50q5 20 10 45 4 20 13 47l15 45q1 3 5.5 19.5T136 536l16 48h215q-91-232-91-422 0-192 96-280 95-87 290-87 206 0 337 86 73 45 123 119H842l39 236h325q120 0 166 40 47 41 47 132 0 151-61 585zm190 289h193l-55-184h-271q-104 0-217-35v178q78 27 115 33l-2 2q-43 46-43 115 0 89 63 151 64 62 176 62 69 0 152-43v-172q-83 28-148 28-41 0-66-18-26-18-26-47 0-70 129-70z"/><glyph glyph-name="uniFC04" unicode="ﰄ" horiz-adv-x="1777" arabic-form="isolated" d="M1358 993h225q62-442 62-602 0-186-115-289-77-69-187-90-76-205-247-321-193-131-488-131-253 0-400 148T61 131q0 40 1 60 2 31 6 59 5 29 6 49t9 50q5 20 10 45 4 20 13 47l15 45q1 3 5.5 19.5T136 536l16 48h215q-91-232-91-422 0-192 96-280 95-87 290-87 206 0 337 86 73 45 123 119H842l39 236h325q120 0 166 40 47 41 47 132 0 151-61 585zm190 289h193l-55-184h-271q-104 0-217-35v178q78 27 115 33l-2 2q-43 46-43 115 0 89 63 151 64 62 176 62 69 0 152-43v-172q-83 28-148 28-41 0-66-18-26-18-26-47 0-70 129-70zM500-713l180 181 156-152 153 152 182-181-180-180-155 152-154-152z"/><glyph glyph-name="uniFC08" unicode="ﰈ" horiz-adv-x="1118" arabic-form="isolated" d="M813 1090h21l141-144Q770 766 770 604q0-112 78-201 64-74 176-153l33-21L934 16q-95 7-176 58-63 39-105 86-35 14-82 20-68 13-116 13-168 0-168-162 0-160 61-594H123Q61-121 61 47q0 167 108 275t267 108q64 0 174-22l-12 22q-53 103-53 213 0 255 268 447zM481-311l181 180 182-180-180-181z"/><glyph glyph-name="uniFC09" unicode="ﰉ" horiz-adv-x="1771" arabic-form="isolated" d="M1358 993h225q62-442 62-602 0-186-115-289-77-69-187-90-76-205-247-321-193-131-488-131-253 0-400 148T61 131q0 40 1 60 2 31 6 59 5 29 6 49t9 50q5 20 10 45 4 20 13 47l15 45q1 3 5.5 19.5T136 536l16 48h215q-91-232-91-422 0-192 96-280 95-87 290-87 206 0 337 86 73 45 123 119H842l39 236h325q120 0 166 40 47 41 47 132 0 151-61 585zm-51-1304 180 180 182-180-180-181z"/><glyph glyph-name="uniFC0A" unicode="ﰊ" horiz-adv-x="1771" arabic-form="isolated" d="M1358 993h225q62-442 62-602 0-186-115-289-77-69-187-90-76-205-247-321-193-131-488-131-253 0-400 148T61 131q0 40 1 60 2 31 6 59 5 29 6 49t9 50q5 20 10 45 4 20 13 47l15 45q1 3 5.5 19.5T136 536l16 48h215q-91-232-91-422 0-192 96-280 95-87 290-87 206 0 337 86 73 45 123 119H842l39 236h325q120 0 166 40 47 41 47 132 0 151-61 585zm-51-1304 180 180 182-180-180-181zM500-713l180 181 156-152 153 152 182-181-180-180-155 152-154-152z"/><glyph glyph-name="uniFC0E" unicode="ﰎ" horiz-adv-x="1118" arabic-form="isolated" d="M813 1090h21l141-144Q770 766 770 604q0-112 78-201 64-74 176-153l33-21L934 16q-95 7-176 58-63 39-105 86-35 14-82 20-68 13-116 13-168 0-168-162 0-160 61-594H123Q61-121 61 47q0 167 108 275t267 108q64 0 174-22l-12 22q-53 103-53 213 0 255 268 447zm-313 276 180 180 156-151 153 151 182-180-180-180-155 151-154-151z"/><glyph glyph-name="uniFC0F" unicode="ﰏ" horiz-adv-x="1843" arabic-form="isolated" d="M1358 993h225q62-442 62-602 0-186-115-289-77-69-187-90-76-205-247-321-193-131-488-131-253 0-400 148T61 131q0 40 1 60 2 31 6 59 5 29 6 49t9 50q5 20 10 45 4 20 13 47l15 45q1 3 5.5 19.5T136 536l16 48h215q-91-232-91-422 0-192 96-280 95-87 290-87 206 0 337 86 73 45 123 119H842l39 236h325q120 0 166 40 47 41 47 132 0 151-61 585zm-227 312 180 180 155-152 154 152 182-180-180-181-156 152-153-152z"/><glyph glyph-name="uniFC10" unicode="ﰐ" horiz-adv-x="1843" arabic-form="isolated" d="M1358 993h225q62-442 62-602 0-186-115-289-77-69-187-90-76-205-247-321-193-131-488-131-253 0-400 148T61 131q0 40 1 60 2 31 6 59 5 29 6 49t9 50q5 20 10 45 4 20 13 47l15 45q1 3 5.5 19.5T136 536l16 48h215q-91-232-91-422 0-192 96-280 95-87 290-87 206 0 337 86 73 45 123 119H842l39 236h325q120 0 166 40 47 41 47 132 0 151-61 585zm-227 312 180 180 155-152 154 152 182-180-180-181-156 152-153-152zM500-713l180 181 156-152 153 152 182-181-180-180-155 152-154-152z"/><glyph glyph-name="uniFC12" unicode="ﰒ" horiz-adv-x="1118" arabic-form="isolated" d="M813 1090h21l141-144Q770 766 770 604q0-112 78-201 64-74 176-153l33-21L934 16q-95 7-176 58-63 39-105 86-35 14-82 20-68 13-116 13-168 0-168-162 0-160 61-594H123Q61-121 61 47q0 167 108 275t267 108q64 0 174-22l-12 22q-53 103-53 213 0 255 268 447zm-317 296 180 183 166-164 164 164 182-183-180-180-166 162-164-162zm200 265 144 145 145-145-143-144z"/><glyph glyph-name="uniFC13" unicode="ﰓ" horiz-adv-x="1863" arabic-form="isolated" d="M1358 993h225q62-442 62-602 0-186-115-289-77-69-187-90-76-205-247-321-193-131-488-131-253 0-400 148T61 131q0 40 1 60 2 31 6 59 5 29 6 49t9 50q5 20 10 45 4 20 13 47l15 45q1 3 5.5 19.5T136 536l16 48h215q-91-232-91-422 0-192 96-280 95-87 290-87 206 0 337 86 73 45 123 119H842l39 236h325q120 0 166 40 47 41 47 132 0 151-61 585zm-227 289 180 182 166-164 163 164 183-182-180-180-166 162-164-162zm200 264 144 146 145-146-143-143z"/><glyph glyph-name="uniFC14" unicode="ﰔ" horiz-adv-x="1863" arabic-form="isolated" d="M1358 993h225q62-442 62-602 0-186-115-289-77-69-187-90-76-205-247-321-193-131-488-131-253 0-400 148T61 131q0 40 1 60 2 31 6 59 5 29 6 49t9 50q5 20 10 45 4 20 13 47l15 45q1 3 5.5 19.5T136 536l16 48h215q-91-232-91-422 0-192 96-280 95-87 290-87 206 0 337 86 73 45 123 119H842l39 236h325q120 0 166 40 47 41 47 132 0 151-61 585zm-227 289 180 182 166-164 163 164 183-182-180-180-166 162-164-162zm200 264 144 146 145-146-143-143zM500-713l180 181 156-152 153 152 182-181-180-180-155 152-154-152z"/><glyph glyph-name="uniFC31" unicode="ﰱ" horiz-adv-x="1765" arabic-form="isolated" d="M1235 1214q188 0 306-124t130-349q12-208 12-290 0-319-333-418-79-229-269-351T608-440q-253 0-400 148T61 131q0 40 1 60 2 31 6 59 5 29 6 49t9 50q5 20 10 45 4 20 13 47l15 45q1 3 5.5 19.5T136 536l16 48h215q-91-232-91-422 0-192 96-280 95-87 290-87 326 0 462 205H821l39 236h264q168 0 244 43t88 141q-105-51-223-51-202 0-309 103-109 104-109 294 0 192 120 320t300 128zm-16-235q-79 0-128-58-51-60-51-147 0-99 58-155t162-56q103 0 190 29l-8 131q-21 256-223 256zm-158 537 180 180 182-180-180-181z"/><glyph glyph-name="uniFC32" unicode="ﰲ" horiz-adv-x="1765" arabic-form="isolated" d="M1235 1214q188 0 306-124t130-349q12-208 12-290 0-319-333-418-79-229-269-351T608-440q-253 0-400 148T61 131q0 40 1 60 2 31 6 59 5 29 6 49t9 50q5 20 10 45 4 20 13 47l15 45q1 3 5.5 19.5T136 536l16 48h215q-91-232-91-422 0-192 96-280 95-87 290-87 326 0 462 205H821l39 236h264q168 0 244 43t88 141q-105-51-223-51-202 0-309 103-109 104-109 294 0 192 120 320t300 128zm-16-235q-79 0-128-58-51-60-51-147 0-99 58-155t162-56q103 0 190 29l-8 131q-21 256-223 256zm-179 537 181 180 182-180-180-181zM438-713l180 181 156-152 154 152 182-181-180-180-156 152-153-152z"/><glyph glyph-name="uniFC35" unicode="ﰵ" horiz-adv-x="1765" arabic-form="isolated" d="M1235 1214q188 0 306-124t130-349q12-208 12-290 0-319-333-418-79-229-269-351T608-440q-253 0-400 148T61 131q0 40 1 60 2 31 6 59 5 29 6 49t9 50q5 20 10 45 4 20 13 47l15 45q1 3 5.5 19.5T136 536l16 48h215q-91-232-91-422 0-192 96-280 95-87 290-87 326 0 462 205H821l39 236h264q168 0 244 43t88 141q-105-51-223-51-202 0-309 103-109 104-109 294 0 192 120 320t300 128zm-16-235q-79 0-128-58-51-60-51-147 0-99 58-155t162-56q103 0 190 29l-8 131q-21 256-223 256zm-312 537 180 180 156-152 154 152 182-180-180-181-156 152-153-152z"/><glyph glyph-name="uniFC36" unicode="ﰶ" horiz-adv-x="1765" arabic-form="isolated" d="M1235 1214q188 0 306-124t130-349q12-208 12-290 0-319-333-418-79-229-269-351T608-440q-253 0-400 148T61 131q0 40 1 60 2 31 6 59 5 29 6 49t9 50q5 20 10 45 4 20 13 47l15 45q1 3 5.5 19.5T136 536l16 48h215q-91-232-91-422 0-192 96-280 95-87 290-87 326 0 462 205H821l39 236h264q168 0 244 43t88 141q-105-51-223-51-202 0-309 103-109 104-109 294 0 192 120 320t300 128zm-16-235q-79 0-128-58-51-60-51-147 0-99 58-155t162-56q103 0 190 29l-8 131q-21 256-223 256zm-312 537 180 180 156-152 154 152 182-180-180-181-156 152-153-152zM479-713l180 181 156-152 154 152 182-181-180-180-156 152-153-152z"/><glyph glyph-name="uniFC3D" unicode="ﰽ" horiz-adv-x="2918" arabic-form="isolated" d="M2517 1628h328v-10l-709-596 328-143q393-175 393-457 0-195-146-308Q2564 0 2312 0h-506q-97 0-184 29-128 44-199 143t-71 238q0 87 12 194 7 73 29 168-95-7-211-33-150-35-232-97-82-63-82-130 0-44 32-79 28-30 124-95l76-49q217-144 217-328 0-174-169-288-168-113-437-113-338 0-493 140Q61-158 61 131q0 40 1 60 2 31 6 59 5 29 6 49t9 50q5 20 10 45 4 20 13 47l15 45q1 3 5.5 19.5T136 536l16 48h215q-91-232-91-422 0-196 115-284 114-87 387-87 135 0 233 40 99 41 99 101 0 57-158 162l-92 64q-103 73-150 149-48 78-48 185 0 192 189 337 190 146 585 185l184-140q-68-277-68-407 0-106 69-169 68-62 191-62h517q135 0 219 48t84 124q0 75-66 137-67 62-219 131l-502 221v158z"/><glyph glyph-name="uniFC3E" unicode="ﰾ" horiz-adv-x="2918" arabic-form="isolated" d="M2517 1628h328v-10l-709-596 328-143q393-175 393-457 0-195-146-308Q2564 0 2312 0h-506q-97 0-184 29-128 44-199 143t-71 238q0 87 12 194 7 73 29 168-95-7-211-33-150-35-232-97-82-63-82-130 0-44 32-79 28-30 124-95l76-49q217-144 217-328 0-174-169-288-168-113-437-113-338 0-493 140Q61-158 61 131q0 40 1 60 2 31 6 59 5 29 6 49t9 50q5 20 10 45 4 20 13 47l15 45q1 3 5.5 19.5T136 536l16 48h215q-91-232-91-422 0-196 115-284 114-87 387-87 135 0 233 40 99 41 99 101 0 57-158 162l-92 64q-103 73-150 149-48 78-48 185 0 192 189 337 190 146 585 185l184-140q-68-277-68-407 0-106 69-169 68-62 191-62h517q135 0 219 48t84 124q0 75-66 137-67 62-219 131l-502 221v158zM500-713l180 181 156-152 153 152 182-181-180-180-155 152-154-152z"/><glyph glyph-name="uniFC42" unicode="ﱂ" horiz-adv-x="1118" arabic-form="isolated" d="M604 1485h225V375q46-18 86-37 91-45 183-109L975 16q-95 7-176 58-63 39-105 86-35 14-82 20-68 13-116 13-168 0-168-162 0-160 61-594H164q-62 442-62 610 0 167 108 275t267 108q59 0 144-18-10 68-13 96-4 65-4 100v877z"/><glyph glyph-name="uniFC44" unicode="ﱄ" horiz-adv-x="1746" arabic-form="isolated" d="M1358 1485h225V391q0-180-113-282-52-47-120-74-74-221-254-344-193-131-488-131-253 0-400 148T61 131q0 40 1 60 2 31 6 59 5 29 6 49t9 50q5 20 10 45 4 20 13 47l15 45q1 3 5.5 19.5T136 536l16 48h215q-91-232-91-422 0-192 96-280 95-87 290-87 206 0 337 86 73 45 123 119H842l39 236h264q120 0 166 40 47 41 47 132v1077zM459-713l180 181 156-152 153 152 183-181-181-180-155 152-154-152z"/><glyph glyph-name="uniFC4E" unicode="ﱎ" horiz-adv-x="1118" arabic-form="isolated" d="M813 1090h21l141-144Q770 766 770 604q0-112 78-201 64-74 176-153l33-21L934 16q-95 7-176 58-63 39-105 86-35 14-82 20-68 13-116 13-168 0-168-162 0-160 61-594H123Q61-121 61 47q0 167 108 275t267 108q64 0 174-22l-12 22q-53 103-53 213 0 255 268 447zm-154 313 181 180 182-180-180-180z"/><glyph glyph-name="uniFC4F" unicode="ﱏ" horiz-adv-x="1746" arabic-form="isolated" d="M1358 993h225q62-442 62-602 0-186-115-289-77-69-187-90-76-205-247-321-193-131-488-131-253 0-400 148T61 131q0 40 1 60 2 31 6 59 5 29 6 49t9 50q5 20 10 45 4 20 13 47l15 45q1 3 5.5 19.5T136 536l16 48h215q-91-232-91-422 0-192 96-280 95-87 290-87 206 0 337 86 73 45 123 119H842l39 236h325q120 0 166 40 47 41 47 132 0 151-61 585zm-82 301 180 181 182-181-180-180z"/><glyph glyph-name="uniFC50" unicode="ﱐ" horiz-adv-x="1746" arabic-form="isolated" d="M1358 993h225q62-442 62-602 0-186-115-289-77-69-187-90-76-205-247-321-193-131-488-131-253 0-400 148T61 131q0 40 1 60 2 31 6 59 5 29 6 49t9 50q5 20 10 45 4 20 13 47l15 45q1 3 5.5 19.5T136 536l16 48h215q-91-232-91-422 0-192 96-280 95-87 290-87 206 0 337 86 73 45 123 119H842l39 236h325q120 0 166 40 47 41 47 132 0 151-61 585zm-82 301 180 181 182-181-180-180zM500-713l180 181 156-152 153 152 182-181-180-180-155 152-154-152z"/><glyph glyph-name="uniFC58" unicode="ﱘ" horiz-adv-x="1118" arabic-form="isolated" d="M813 1090h21l141-144Q770 766 770 604q0-112 78-201 64-74 176-153l33-21L934 16q-95 7-176 58-63 39-105 86-35 14-82 20-68 13-116 13-168 0-168-162 0-160 61-594H123Q61-121 61 47q0 167 108 275t267 108q64 0 174-22l-12 22q-53 103-53 213 0 255 268 447zM391-299l180 180 156-151 154 151 182-180-180-180-156 151-154-151z"/><glyph glyph-name="uniFC64" unicode="ﱤ" horiz-adv-x="1226" arabic-form="final" d="m893 940 205-113q-43-187-43-352 0-239 172-239 20 0 20-21V23q0-23-20-23-383 0-383 373 0 77 10 178 5 38 11.5 85.5T874 696q-197-96-391-129 1-22 11-100 16-164 16-422 0-227-149-356T-20-440v215q137 0 225 73t88 213q0 174-9 290-9 118-42 382l20 25q184 16 327 60 138 42 304 122zm108 369h193l-55-185H868q-108 0-217-34v178q73 25 115 32l-2 3q-43 44-43 114 0 91 63 152 62 61 177 61 68 0 151-43v-172q-85 29-147 29-40 0-67-19-26-18-26-47 0-69 129-69z"/><glyph glyph-name="uniFC65" unicode="ﱥ" horiz-adv-x="1226" arabic-form="final" d="m893 940 205-113q-43-187-43-352 0-239 172-239 20 0 20-21V23q0-23-20-23-383 0-383 373 0 77 10 178 5 38 11.5 85.5T874 696q-197-96-391-129 1-22 11-100 16-164 16-422 0-227-149-356T-20-440v215q137 0 225 73t88 213q0 174-9 290-9 118-42 382l20 25q184 16 327 60 138 42 304 122zm-784 176 180 180 182-180-180-180zm933 193h193l-55-185H909q-108 0-217-34v178q73 25 115 32l-2 3q-43 44-43 114 0 91 63 152 62 61 176 61 69 0 152-43v-172q-85 29-147 29-40 0-67-19-26-18-26-47 0-69 129-69z"/><glyph glyph-name="uniFC67" unicode="ﱧ" horiz-adv-x="1914" arabic-form="final" d="m1581 940 205-113q-43-187-43-352 0-239 172-239 20 0 20-21V23q0-23-20-23-383 0-383 373 0 77 10 178 13 91 21 145-100-51-185-78-98-33-202-49 14-132 16-180 8-90 8-186 0-286-161-465-160-178-451-178-254 0-390 146Q61-146 61 131q0 40 1 60 2 31 6 59 5 29 6 49t9 50q5 20 10 45 4 20 13 47l15 45q1 3 5.5 19.5T136 536l16 48h215q-91-232-91-422 0-165 80-266t248-101q191 0 281 101t90 307q0 67-4 124-6 86-8 104-13 120-16 143-4 31-7 61t-6 58-4 40l20 25q184 16 327 60 138 42 304 122zm86 365h193l-56-185h-270q-104 0-217-35v179q72 25 113 32l-3 2q-41 47-41 115 0 90 64 152 62 61 176 61 69 0 152-43v-172q-85 29-148 29-39 0-66-19-26-18-26-47 0-69 129-69zM408 963l180 180 182-180-180-181z"/><glyph glyph-name="uniFC68" unicode="ﱨ" horiz-adv-x="1820" arabic-form="final" d="m1436 1014 184-113q-68-277-68-434 0-106 71-169 69-62 198-62 20 0 20-21V23q0-23-20-23-212 0-341 112-128 111-128 298 0 87 12 194 7 73 29 168-95-7-211-33-150-35-232-97-82-63-82-130 0-44 32-79 28-30 124-95l76-49q217-144 217-328 0-174-169-288-168-113-437-113-338 0-493 140Q61-158 61 131q0 40 1 60 2 31 6 59 5 29 6 49t9 50q5 20 10 45 4 20 13 47l15 45q1 3 5.5 19.5T136 536l16 48h215q-91-232-91-422 0-196 115-284 114-87 387-87 135 0 233 40 99 41 99 101 0 57-158 162l-92 64q-103 73-150 149-48 78-48 185 0 192 189 337 190 146 585 185zm63 362h193l-56-184h-270q-104 0-217-35v178q78 27 115 33l-2 2q-43 46-43 115 0 89 63 151 64 62 176 62 69 0 152-43v-172q-83 28-148 28-40 0-66-18t-26-47q0-70 129-70z"/><glyph glyph-name="uniFC69" unicode="ﱩ" horiz-adv-x="1820" arabic-form="final" d="m1436 1014 184-113q-68-277-68-434 0-106 71-169 69-62 198-62 20 0 20-21V23q0-23-20-23-212 0-341 112-128 111-128 298 0 87 12 194 7 73 29 168-95-7-211-33-150-35-232-97-82-63-82-130 0-44 32-79 28-30 124-95l76-49q217-144 217-328 0-174-169-288-168-113-437-113-338 0-493 140Q61-158 61 131q0 40 1 60 2 31 6 59 5 29 6 49t9 50q5 20 10 45 4 20 13 47l15 45q1 3 5.5 19.5T136 536l16 48h215q-91-232-91-422 0-196 115-284 114-87 387-87 135 0 233 40 99 41 99 101 0 57-158 162l-92 64q-103 73-150 149-48 78-48 185 0 192 189 337 190 146 585 185zm63 362h193l-56-184h-270q-104 0-217-35v178q78 27 115 33l-2 2q-43 46-43 115 0 89 63 151 64 62 176 62 69 0 152-43v-172q-83 28-148 28-40 0-66-18t-26-47q0-70 129-70zM500-713l180 181 156-152 153 152 182-181-180-180-155 152-154-152z"/><glyph glyph-name="uniFC6A" unicode="ﱪ" horiz-adv-x="1226" arabic-form="final" d="m893 940 205-113q-43-187-43-352 0-239 172-239 20 0 20-21V23q0-23-20-23-383 0-383 373 0 77 10 178 5 38 11.5 85.5T874 696q-197-96-391-129 1-22 11-100 16-164 16-422 0-227-149-356T-20-440v215q137 0 225 73t88 213q0 174-9 290-9 118-42 382l20 25q184 16 327 60 138 42 304 122zM616-311l181 180 182-180-180-181z"/><glyph glyph-name="uniFC6B" unicode="ﱫ" horiz-adv-x="1226" arabic-form="final" d="m893 940 205-113q-43-187-43-352 0-239 172-239 20 0 20-21V23q0-23-20-23-383 0-383 373 0 77 10 178 5 38 11.5 85.5T874 696q-197-96-391-129 1-22 11-100 16-164 16-422 0-227-149-356T-20-440v215q137 0 225 73t88 213q0 174-9 290-9 118-42 382l20 25q184 16 327 60 138 42 304 122zm-784 176 180 180 182-180-180-180zM616-311l181 180 182-180-180-181z"/><glyph glyph-name="uniFC6D" unicode="ﱭ" horiz-adv-x="1914" arabic-form="final" d="m1581 940 205-113q-43-187-43-352 0-239 172-239 20 0 20-21V23q0-23-20-23-383 0-383 373 0 77 10 178 13 91 21 145-100-51-185-78-98-33-202-49 14-132 16-180 8-90 8-186 0-286-161-465-160-178-451-178-254 0-390 146Q61-146 61 131q0 40 1 60 2 31 6 59 5 29 6 49t9 50q5 20 10 45 4 20 13 47l15 45q1 3 5.5 19.5T136 536l16 48h215q-91-232-91-422 0-165 80-266t248-101q191 0 281 101t90 307q0 67-4 124-6 86-8 104-13 120-16 143-4 31-7 61t-6 58-4 40l20 25q184 16 327 60 138 42 304 122zM1245-313l180 180 183-180-181-181zM408 963l180 180 182-180-180-181z"/><glyph glyph-name="uniFC6E" unicode="ﱮ" horiz-adv-x="1820" arabic-form="final" d="m1436 1014 184-113q-68-277-68-434 0-106 71-169 69-62 198-62 20 0 20-21V23q0-23-20-23-212 0-341 112-128 111-128 298 0 87 12 194 7 73 29 168-95-7-211-33-150-35-232-97-82-63-82-130 0-44 32-79 28-30 124-95l76-49q217-144 217-328 0-174-169-288-168-113-437-113-338 0-493 140Q61-158 61 131q0 40 1 60 2 31 6 59 5 29 6 49t9 50q5 20 10 45 4 20 13 47l15 45q1 3 5.5 19.5T136 536l16 48h215q-91-232-91-422 0-196 115-284 114-87 387-87 135 0 233 40 99 41 99 101 0 57-158 162l-92 64q-103 73-150 149-48 78-48 185 0 192 189 337 190 146 585 185zm-52-1325 181 180 182-180-180-181z"/><glyph glyph-name="uniFC6F" unicode="ﱯ" horiz-adv-x="1820" arabic-form="final" d="m1436 1014 184-113q-68-277-68-434 0-106 71-169 69-62 198-62 20 0 20-21V23q0-23-20-23-212 0-341 112-128 111-128 298 0 87 12 194 7 73 29 168-95-7-211-33-150-35-232-97-82-63-82-130 0-44 32-79 28-30 124-95l76-49q217-144 217-328 0-174-169-288-168-113-437-113-338 0-493 140Q61-158 61 131q0 40 1 60 2 31 6 59 5 29 6 49t9 50q5 20 10 45 4 20 13 47l15 45q1 3 5.5 19.5T136 536l16 48h215q-91-232-91-422 0-196 115-284 114-87 387-87 135 0 233 40 99 41 99 101 0 57-158 162l-92 64q-103 73-150 149-48 78-48 185 0 192 189 337 190 146 585 185zm-52-1325 181 180 182-180-180-181zM500-713l180 181 156-152 153 152 182-181-180-180-155 152-154-152z"/><glyph glyph-name="uniFC70" unicode="ﱰ" horiz-adv-x="1226" arabic-form="final" d="m893 940 205-113q-43-187-43-352 0-239 172-239 20 0 20-21V23q0-23-20-23-383 0-383 373 0 77 10 178 5 38 11.5 85.5T874 696q-197-96-391-129 1-22 11-100 16-164 16-422 0-227-149-356T-20-440v215q137 0 225 73t88 213q0 174-9 290-9 118-42 382l20 25q184 16 327 60 138 42 304 122zm-342 340 180 180 156-151 153 151 183-180-181-180-155 151-154-151z"/><glyph glyph-name="uniFC71" unicode="ﱱ" horiz-adv-x="1226" arabic-form="final" d="m893 940 205-113q-43-187-43-352 0-239 172-239 20 0 20-21V23q0-23-20-23-383 0-383 373 0 77 10 178 5 38 11.5 85.5T874 696q-197-96-391-129 1-22 11-100 16-164 16-422 0-227-149-356T-20-440v215q137 0 225 73t88 213q0 174-9 290-9 118-42 382l20 25q184 16 327 60 138 42 304 122zm-784 176 180 180 182-180-180-180zm483 164 180 180 156-151 153 151 183-180-181-180-155 151-154-151z"/><glyph glyph-name="uniFC73" unicode="ﱳ" horiz-adv-x="1914" arabic-form="final" d="m1581 940 205-113q-43-187-43-352 0-239 172-239 20 0 20-21V23q0-23-20-23-383 0-383 373 0 77 10 178 13 91 21 145-100-51-185-78-98-33-202-49 14-132 16-180 8-90 8-186 0-286-161-465-160-178-451-178-254 0-390 146Q61-146 61 131q0 40 1 60 2 31 6 59 5 29 6 49t9 50q5 20 10 45 4 20 13 47l15 45q1 3 5.5 19.5T136 536l16 48h215q-91-232-91-422 0-165 80-266t248-101q191 0 281 101t90 307q0 67-4 124-6 86-8 104-13 120-16 143-4 31-7 61t-6 58-4 40l20 25q184 16 327 60 138 42 304 122zm-358 342 180 180 156-151 153 151 182-180-180-180-155 151-154-151zM408 963l180 180 182-180-180-181z"/><glyph glyph-name="uniFC74" unicode="ﱴ" horiz-adv-x="1820" arabic-form="final" d="m1436 1014 184-113q-68-277-68-434 0-106 71-169 69-62 198-62 20 0 20-21V23q0-23-20-23-212 0-341 112-128 111-128 298 0 87 12 194 7 73 29 168-95-7-211-33-150-35-232-97-82-63-82-130 0-44 32-79 28-30 124-95l76-49q217-144 217-328 0-174-169-288-168-113-437-113-338 0-493 140Q61-158 61 131q0 40 1 60 2 31 6 59 5 29 6 49t9 50q5 20 10 45 4 20 13 47l15 45q1 3 5.5 19.5T136 536l16 48h215q-91-232-91-422 0-196 115-284 114-87 387-87 135 0 233 40 99 41 99 101 0 57-158 162l-92 64q-103 73-150 149-48 78-48 185 0 192 189 337 190 146 585 185zm-373 344 180 180 156-152 153 152 183-180-181-180-155 151-154-151z"/><glyph glyph-name="uniFC75" unicode="ﱵ" horiz-adv-x="1820" arabic-form="final" d="m1436 1014 184-113q-68-277-68-434 0-106 71-169 69-62 198-62 20 0 20-21V23q0-23-20-23-212 0-341 112-128 111-128 298 0 87 12 194 7 73 29 168-95-7-211-33-150-35-232-97-82-63-82-130 0-44 32-79 28-30 124-95l76-49q217-144 217-328 0-174-169-288-168-113-437-113-338 0-493 140Q61-158 61 131q0 40 1 60 2 31 6 59 5 29 6 49t9 50q5 20 10 45 4 20 13 47l15 45q1 3 5.5 19.5T136 536l16 48h215q-91-232-91-422 0-196 115-284 114-87 387-87 135 0 233 40 99 41 99 101 0 57-158 162l-92 64q-103 73-150 149-48 78-48 185 0 192 189 337 190 146 585 185zm-373 344 180 180 156-152 153 152 183-180-181-180-155 151-154-151zM502-713l180 181 156-152 153 152 183-181-181-180-155 152-154-152z"/><glyph glyph-name="uniFC76" unicode="ﱶ" horiz-adv-x="1226" arabic-form="final" d="m893 940 205-113q-43-187-43-352 0-239 172-239 20 0 20-21V23q0-23-20-23-383 0-383 373 0 77 10 178 5 38 11.5 85.5T874 696q-197-96-391-129 1-22 11-100 16-164 16-422 0-227-149-356T-20-440v215q137 0 225 73t88 213q0 174-9 290-9 118-42 382l20 25q184 16 327 60 138 42 304 122zm-356 344 180 182 166-163 164 163 182-182-180-180-166 162-164-162zm200 264 144 146 145-146-143-143z"/><glyph glyph-name="uniFC77" unicode="ﱷ" horiz-adv-x="1226" arabic-form="final" d="m893 940 205-113q-43-187-43-352 0-239 172-239 20 0 20-21V23q0-23-20-23-383 0-383 373 0 77 10 178 5 38 11.5 85.5T874 696q-197-96-391-129 1-22 11-100 16-164 16-422 0-227-149-356T-20-440v215q137 0 225 73t88 213q0 174-9 290-9 118-42 382l20 25q184 16 327 60 138 42 304 122zm-784 176 180 180 182-180-180-180zm444 168 180 182 166-163 164 163 182-182-180-180-166 162-164-162zm201 264 143 146 145-146-143-143z"/><glyph glyph-name="uniFC79" unicode="ﱹ" horiz-adv-x="1914" arabic-form="final" d="m1581 940 205-113q-43-187-43-352 0-239 172-239 20 0 20-21V23q0-23-20-23-383 0-383 373 0 77 10 178 13 91 21 145-100-51-185-78-98-33-202-49 14-132 16-180 8-90 8-186 0-286-161-465-160-178-451-178-254 0-390 146Q61-146 61 131q0 40 1 60 2 31 6 59 5 29 6 49t9 50q5 20 10 45 4 20 13 47l15 45q1 3 5.5 19.5T136 536l16 48h215q-91-232-91-422 0-165 80-266t248-101q191 0 281 101t90 307q0 67-4 124-6 86-8 104-13 120-16 143-4 31-7 61t-6 58-4 40l20 25q184 16 327 60 138 42 304 122zm-364 346 180 182 166-163 163 163 183-182-180-180-166 162-164-162zM408 963l180 180 182-180-180-181zm1009 587 144 146 145-146-143-143z"/><glyph glyph-name="uniFC7A" unicode="ﱺ" horiz-adv-x="1820" arabic-form="final" d="m1436 1014 184-113q-68-277-68-434 0-106 71-169 69-62 198-62 20 0 20-21V23q0-23-20-23-212 0-341 112-128 111-128 298 0 87 12 194 7 73 29 168-95-7-211-33-150-35-232-97-82-63-82-130 0-44 32-79 28-30 124-95l76-49q217-144 217-328 0-174-169-288-168-113-437-113-338 0-493 140Q61-158 61 131q0 40 1 60 2 31 6 59 5 29 6 49t9 50q5 20 10 45 4 20 13 47l15 45q1 3 5.5 19.5T136 536l16 48h215q-91-232-91-422 0-196 115-284 114-87 387-87 135 0 233 40 99 41 99 101 0 57-158 162l-92 64q-103 73-150 149-48 78-48 185 0 192 189 337 190 146 585 185zm-367 289 180 182 166-164 164 164 182-182-180-181-166 162-164-162zm201 264 143 145 146-145-144-144z"/><glyph glyph-name="uniFC7B" unicode="ﱻ" horiz-adv-x="1820" arabic-form="final" d="m1436 1014 184-113q-68-277-68-434 0-106 71-169 69-62 198-62 20 0 20-21V23q0-23-20-23-212 0-341 112-128 111-128 298 0 87 12 194 7 73 29 168-95-7-211-33-150-35-232-97-82-63-82-130 0-44 32-79 28-30 124-95l76-49q217-144 217-328 0-174-169-288-168-113-437-113-338 0-493 140Q61-158 61 131q0 40 1 60 2 31 6 59 5 29 6 49t9 50q5 20 10 45 4 20 13 47l15 45q1 3 5.5 19.5T136 536l16 48h215q-91-232-91-422 0-196 115-284 114-87 387-87 135 0 233 40 99 41 99 101 0 57-158 162l-92 64q-103 73-150 149-48 78-48 185 0 192 189 337 190 146 585 185zm-367 289 180 182 166-164 164 164 182-182-180-181-166 162-164-162zm201 264 143 145 146-145-144-144zM500-713l180 181 156-152 153 152 182-181-180-180-155 152-154-152z"/><glyph glyph-name="uniFC83" unicode="ﲃ" horiz-adv-x="3082" arabic-form="final" d="M2517 1628h328v-10l-709-596 328-143q393-175 393-457 0-195-146-308Q2564 0 2312 0h-506q-97 0-184 29-128 44-199 143t-71 238q0 87 12 194 7 73 29 168-95-7-211-33-150-35-232-97-82-63-82-130 0-44 32-79 28-30 124-95l76-49q217-144 217-328 0-174-169-288-168-113-437-113-338 0-493 140Q61-158 61 131q0 40 1 60 2 31 6 59 5 29 6 49t9 50q5 20 10 45 4 20 13 47l15 45q1 3 5.5 19.5T136 536l16 48h215q-91-232-91-422 0-196 115-284 114-87 387-87 135 0 233 40 99 41 99 101 0 57-158 162l-92 64q-103 73-150 149-48 78-48 185 0 192 189 337 190 146 585 185l184-140q-68-277-68-407 0-106 69-169 68-62 191-62h517q135 0 219 48t84 124q0 75-66 137-67 62-219 131l-502 221v158zm166-1433 102 129q133-88 297-88 21 0 21-21V23q0-23-21-23-216 0-399 195z"/><glyph glyph-name="uniFC84" unicode="ﲄ" horiz-adv-x="3082" arabic-form="final" d="M2517 1628h328v-10l-709-596 328-143q393-175 393-457 0-195-146-308Q2564 0 2312 0h-506q-97 0-184 29-128 44-199 143t-71 238q0 87 12 194 7 73 29 168-95-7-211-33-150-35-232-97-82-63-82-130 0-44 32-79 28-30 124-95l76-49q217-144 217-328 0-174-169-288-168-113-437-113-338 0-493 140Q61-158 61 131q0 40 1 60 2 31 6 59 5 29 6 49t9 50q5 20 10 45 4 20 13 47l15 45q1 3 5.5 19.5T136 536l16 48h215q-91-232-91-422 0-196 115-284 114-87 387-87 135 0 233 40 99 41 99 101 0 57-158 162l-92 64q-103 73-150 149-48 78-48 185 0 192 189 337 190 146 585 185l184-140q-68-277-68-407 0-106 69-169 68-62 191-62h517q135 0 219 48t84 124q0 75-66 137-67 62-219 131l-502 221v158zm166-1433 102 129q133-88 297-88 21 0 21-21V23q0-23-21-23-216 0-399 195zM500-713l180 181 156-152 153 152 182-181-180-180-155 152-154-152z"/><glyph glyph-name="uniFC87" unicode="ﲇ" horiz-adv-x="1796" arabic-form="final" d="M1358 1485h225V408q0-91 47-132 46-40 166-40 21 0 21-21V23q0-23-21-23-208 0-328 109l-16 14-4-4q-34-34-78-62-2 0-16-10-72-232-258-356-193-131-488-131-253 0-400 148T61 131q0 40 1 60 2 31 6 59 5 29 6 49t9 50q5 20 10 45 4 20 13 47l15 45q1 3 5.5 19.5T136 536l16 48h215q-91-232-91-422 0-192 96-280 95-87 290-87 206 0 337 86 73 45 123 119H842l39 236h264q83 0 149 24 45 17 72 37-8 43-8 94v1094zM459-713l180 181 156-152 153 152 183-181-181-180-155 152-154-152z"/><glyph glyph-name="uniFC8A" unicode="ﲊ" horiz-adv-x="1226" arabic-form="final" d="m893 940 205-113q-43-187-43-352 0-239 172-239 20 0 20-21V23q0-23-20-23-383 0-383 373 0 77 10 178 5 38 11.5 85.5T874 696q-197-96-391-129 1-22 11-100 16-164 16-422 0-227-149-356T-20-440v215q137 0 225 73t88 213q0 174-9 290-9 118-42 382l20 25q184 16 327 60 138 42 304 122zm-166 346 180 180 183-180-181-180z"/><glyph glyph-name="uniFC8B" unicode="ﲋ" horiz-adv-x="1226" arabic-form="final" d="m893 940 205-113q-43-187-43-352 0-239 172-239 20 0 20-21V23q0-23-20-23-383 0-383 373 0 77 10 178 5 38 11.5 85.5T874 696q-197-96-391-129 1-22 11-100 16-164 16-422 0-227-149-356T-20-440v215q137 0 225 73t88 213q0 174-9 290-9 118-42 382l20 25q184 16 327 60 138 42 304 122zm-784 176 180 180 182-180-180-180zm618 170 180 180 183-180-181-180z"/><glyph glyph-name="uniFC8D" unicode="ﲍ" horiz-adv-x="1914" arabic-form="final" d="m1581 940 205-113q-43-187-43-352 0-239 172-239 20 0 20-21V23q0-23-20-23-383 0-383 373 0 77 10 178 13 91 21 145-100-51-185-78-98-33-202-49 14-132 16-180 8-90 8-186 0-286-161-465-160-178-451-178-254 0-390 146Q61-146 61 131q0 40 1 60 2 31 6 59 5 29 6 49t9 50q5 20 10 45 4 20 13 47l15 45q1 3 5.5 19.5T136 536l16 48h215q-91-232-91-422 0-165 80-266t248-101q191 0 281 101t90 307q0 67-4 124-6 86-8 104-13 120-16 143-4 31-7 61t-6 58-4 40l20 25q184 16 327 60 138 42 304 122zm-190 395 180 181 182-181-180-180zM408 963l180 180 182-180-180-181z"/><glyph glyph-name="uniFC8E" unicode="ﲎ" horiz-adv-x="1820" arabic-form="final" d="m1436 1014 184-113q-68-277-68-434 0-106 71-169 69-62 198-62 20 0 20-21V23q0-23-20-23-212 0-341 112-128 111-128 298 0 87 12 194 7 73 29 168-95-7-211-33-150-35-232-97-82-63-82-130 0-44 32-79 28-30 124-95l76-49q217-144 217-328 0-174-169-288-168-113-437-113-338 0-493 140Q61-158 61 131q0 40 1 60 2 31 6 59 5 29 6 49t9 50q5 20 10 45 4 20 13 47l15 45q1 3 5.5 19.5T136 536l16 48h215q-91-232-91-422 0-196 115-284 114-87 387-87 135 0 233 40 99 41 99 101 0 57-158 162l-92 64q-103 73-150 149-48 78-48 185 0 192 189 337 190 146 585 185zm-189 379 180 180 183-180-180-181z"/><glyph glyph-name="uniFC8F" unicode="ﲏ" horiz-adv-x="1820" arabic-form="final" d="m1436 1014 184-113q-68-277-68-434 0-106 71-169 69-62 198-62 20 0 20-21V23q0-23-20-23-212 0-341 112-128 111-128 298 0 87 12 194 7 73 29 168-95-7-211-33-150-35-232-97-82-63-82-130 0-44 32-79 28-30 124-95l76-49q217-144 217-328 0-174-169-288-168-113-437-113-338 0-493 140Q61-158 61 131q0 40 1 60 2 31 6 59 5 29 6 49t9 50q5 20 10 45 4 20 13 47l15 45q1 3 5.5 19.5T136 536l16 48h215q-91-232-91-422 0-196 115-284 114-87 387-87 135 0 233 40 99 41 99 101 0 57-158 162l-92 64q-103 73-150 149-48 78-48 185 0 192 189 337 190 146 585 185zm-189 379 180 180 183-180-180-181zM500-713l180 181 156-152 153 152 182-181-180-180-155 152-154-152z"/><glyph glyph-name="uniFC91" unicode="ﲑ" horiz-adv-x="1226" arabic-form="final" d="m893 940 205-113q-43-187-43-352 0-239 172-239 20 0 20-21V23q0-23-20-23-383 0-383 373 0 77 10 178 5 38 11.5 85.5T874 696q-197-96-391-129 1-22 11-100 16-164 16-422 0-227-149-356T-20-440v215q137 0 225 73t88 213q0 174-9 290-9 118-42 382l20 25q184 16 327 60 138 42 304 122zM494-299l180 180 155-151 154 151 182-180-180-180-156 151-153-151z"/><glyph glyph-name="uniFC92" unicode="ﲒ" horiz-adv-x="1226" arabic-form="final" d="m893 940 205-113q-43-187-43-352 0-239 172-239 20 0 20-21V23q0-23-20-23-383 0-383 373 0 77 10 178 5 38 11.5 85.5T874 696q-197-96-391-129 1-22 11-100 16-164 16-422 0-227-149-356T-20-440v215q137 0 225 73t88 213q0 174-9 290-9 118-42 382l20 25q184 16 327 60 138 42 304 122zm-784 176 180 180 182-180-180-180zM494-299l180 180 155-151 154 151 182-180-180-180-156 151-153-151z"/><glyph glyph-name="uniFC94" unicode="ﲔ" horiz-adv-x="1914" arabic-form="final" d="m1581 940 205-113q-43-187-43-352 0-239 172-239 20 0 20-21V23q0-23-20-23-383 0-383 373 0 77 10 178 13 91 21 145-100-51-185-78-98-33-202-49 14-132 16-180 8-90 8-186 0-286-161-465-160-178-451-178-254 0-390 146Q61-146 61 131q0 40 1 60 2 31 6 59 5 29 6 49t9 50q5 20 10 45 4 20 13 47l15 45q1 3 5.5 19.5T136 536l16 48h215q-91-232-91-422 0-165 80-266t248-101q191 0 281 101t90 307q0 67-4 124-6 86-8 104-13 120-16 143-4 31-7 61t-6 58-4 40l20 25q184 16 327 60 138 42 304 122zM1159-299l180 180 156-151 154 151 182-180-180-180-156 151-154-151zM408 963l180 180 182-180-180-181z"/><glyph glyph-name="uniFCCC" unicode="ﳌ" horiz-adv-x="614" d="M0 236q58 0 135-7 42-5 80-12l-6 29q-19 141-19 209v1030h226V178l59-28q76-34 180-107L543-162q-104 23-172 60-61 30-103 67l-37 8Q118 0 0 0q-20 0-20 20v193q0 23 20 23z"/><glyph glyph-name="uniFCFB" unicode="ﳻ" horiz-adv-x="3010" arabic-form="isolated" d="M2621 993h226q61-418 61-610 0-166-120-274Q2667 0 2490 0q-163 0-356 119-40-44-96-70-98-49-228-49-203 0-331 113-127 112-127 297 0 87 12 194 7 73 29 168-95-7-211-33-150-35-232-97-82-63-82-130 0-44 32-79 28-30 124-95l76-49q217-144 217-328 0-174-169-288-168-113-437-113-338 0-493 140Q61-158 61 131q0 40 1 60 2 31 6 59 5 29 6 49t9 50q5 20 10 45 4 20 13 47l15 45q1 3 5.5 19.5T136 536l16 48h215q-91-232-91-422 0-196 115-284 114-87 387-87 135 0 233 40 99 41 99 101 0 57-158 162l-92 64q-103 73-150 149-48 78-48 185 0 192 189 337 190 146 585 185l184-113q-68-277-68-434 0-106 69-169 68-62 189-62 169 0 215 102 48 111 48 420h208q0-190-22-332-15-82-33-133 45-20 98-37 66-20 146-20 213 0 213 163 0 187-62 594z"/><glyph glyph-name="uniFCFC" unicode="ﳼ" horiz-adv-x="3010" arabic-form="isolated" d="M2621 993h226q61-418 61-610 0-166-120-274Q2667 0 2490 0q-163 0-356 119-40-44-96-70-98-49-228-49-203 0-331 113-127 112-127 297 0 87 12 194 7 73 29 168-95-7-211-33-150-35-232-97-82-63-82-130 0-44 32-79 28-30 124-95l76-49q217-144 217-328 0-174-169-288-168-113-437-113-338 0-493 140Q61-158 61 131q0 40 1 60 2 31 6 59 5 29 6 49t9 50q5 20 10 45 4 20 13 47l15 45q1 3 5.5 19.5T136 536l16 48h215q-91-232-91-422 0-196 115-284 114-87 387-87 135 0 233 40 99 41 99 101 0 57-158 162l-92 64q-103 73-150 149-48 78-48 185 0 192 189 337 190 146 585 185l184-113q-68-277-68-434 0-106 69-169 68-62 189-62 169 0 215 102 48 111 48 420h208q0-190-22-332-15-82-33-133 45-20 98-37 66-20 146-20 213 0 213 163 0 187-62 594zM500-713l180 181 156-152 153 152 182-181-180-180-155 152-154-152z"/><glyph glyph-name="uniFCFD" unicode="ﳽ" horiz-adv-x="3010" arabic-form="isolated" d="M2621 993h226q61-418 61-610 0-166-120-274Q2667 0 2490 0q-163 0-356 119-40-44-96-70-98-49-228-49-203 0-331 113-127 112-127 297 0 87 12 194 7 73 29 168-95-7-211-33-150-35-232-97-82-63-82-130 0-44 32-79 28-30 124-95l76-49q217-144 217-328 0-174-169-288-168-113-437-113-338 0-493 140Q61-158 61 131q0 40 1 60 2 31 6 59 5 29 6 49t9 50q5 20 10 45 4 20 13 47l15 45q1 3 5.5 19.5T136 536l16 48h215q-91-232-91-422 0-196 115-284 114-87 387-87 135 0 233 40 99 41 99 101 0 57-158 162l-92 64q-103 73-150 149-48 78-48 185 0 192 189 337 190 146 585 185l184-113q-68-277-68-434 0-106 69-169 68-62 189-62 169 0 215 102 48 111 48 420h208q0-190-22-332-15-82-33-133 45-20 98-37 66-20 146-20 213 0 213 163 0 187-62 594zm-757 129 180 183 166-164 164 164 182-183-180-180-166 162-164-162zm200 264 144 146 145-146-143-143z"/><glyph glyph-name="uniFCFE" unicode="ﳾ" horiz-adv-x="3010" arabic-form="isolated" d="M2621 993h226q61-418 61-610 0-166-120-274Q2667 0 2490 0q-163 0-356 119-40-44-96-70-98-49-228-49-203 0-331 113-127 112-127 297 0 87 12 194 7 73 29 168-95-7-211-33-150-35-232-97-82-63-82-130 0-44 32-79 28-30 124-95l76-49q217-144 217-328 0-174-169-288-168-113-437-113-338 0-493 140Q61-158 61 131q0 40 1 60 2 31 6 59 5 29 6 49t9 50q5 20 10 45 4 20 13 47l15 45q1 3 5.5 19.5T136 536l16 48h215q-91-232-91-422 0-196 115-284 114-87 387-87 135 0 233 40 99 41 99 101 0 57-158 162l-92 64q-103 73-150 149-48 78-48 185 0 192 189 337 190 146 585 185l184-113q-68-277-68-434 0-106 69-169 68-62 189-62 169 0 215 102 48 111 48 420h208q0-190-22-332-15-82-33-133 45-20 98-37 66-20 146-20 213 0 213 163 0 187-62 594zM500-713l180 181 156-152 153 152 182-181-180-180-155 152-154-152zm1333 1835 180 183 166-164 164 164 182-183-180-180-166 162-164-162zm201 264 143 146 145-146-143-143z"/><glyph glyph-name="uniFD05" unicode="ﴅ" horiz-adv-x="3065" arabic-form="isolated" d="M2544 1102q188 0 314-127t126-318q0-298-230-477Q2523 0 2144 0h-332q-222 0-341 106t-119 304q0 87 12 194 7 73 29 168-95-7-211-33-150-35-232-97-82-63-82-130 0-44 32-79 28-30 124-95l76-49q217-144 217-328 0-174-169-288-168-113-437-113-338 0-493 140Q61-158 61 131q0 40 1 60 2 31 6 59 5 29 6 49t9 50q5 20 10 45 4 20 13 47l15 45q1 3 5.5 19.5T136 536l16 48h215q-91-232-91-422 0-196 115-284 114-87 387-87 135 0 233 40 99 41 99 101 0 57-158 162l-92 64q-103 73-150 149-48 78-48 185 0 192 189 337 190 146 585 185l184-113q-68-283-68-434 0-68 17-119l6-14q154 195 291 350 216 242 367 329 154 89 311 89zm-723-866h299q289 0 463 105t174 282q0 103-73 173-71 68-179 68-121 0-242-84-120-83-299-295-132-154-207-247 28-2 64-2z"/><glyph glyph-name="uniFD06" unicode="ﴆ" horiz-adv-x="3065" arabic-form="isolated" d="M2544 1102q188 0 314-127t126-318q0-298-230-477Q2523 0 2144 0h-332q-222 0-341 106t-119 304q0 87 12 194 7 73 29 168-95-7-211-33-150-35-232-97-82-63-82-130 0-44 32-79 28-30 124-95l76-49q217-144 217-328 0-174-169-288-168-113-437-113-338 0-493 140Q61-158 61 131q0 40 1 60 2 31 6 59 5 29 6 49t9 50q5 20 10 45 4 20 13 47l15 45q1 3 5.5 19.5T136 536l16 48h215q-91-232-91-422 0-196 115-284 114-87 387-87 135 0 233 40 99 41 99 101 0 57-158 162l-92 64q-103 73-150 149-48 78-48 185 0 192 189 337 190 146 585 185l184-113q-68-283-68-434 0-68 17-119l6-14q154 195 291 350 216 242 367 329 154 89 311 89zm-723-866h299q289 0 463 105t174 282q0 103-73 173-71 68-179 68-121 0-242-84-120-83-299-295-132-154-207-247 28-2 64-2zM500-713l180 181 156-152 153 152 182-181-180-180-155 152-154-152z"/><glyph glyph-name="uniFD07" unicode="ﴇ" horiz-adv-x="3065" arabic-form="isolated" d="M2544 1102q188 0 314-127t126-318q0-298-230-477Q2523 0 2144 0h-332q-222 0-341 106t-119 304q0 87 12 194 7 73 29 168-95-7-211-33-150-35-232-97-82-63-82-130 0-44 32-79 28-30 124-95l76-49q217-144 217-328 0-174-169-288-168-113-437-113-338 0-493 140Q61-158 61 131q0 40 1 60 2 31 6 59 5 29 6 49t9 50q5 20 10 45 4 20 13 47l15 45q1 3 5.5 19.5T136 536l16 48h215q-91-232-91-422 0-196 115-284 114-87 387-87 135 0 233 40 99 41 99 101 0 57-158 162l-92 64q-103 73-150 149-48 78-48 185 0 192 189 337 190 146 585 185l184-113q-68-283-68-434 0-68 17-119l6-14q154 195 291 350 216 242 367 329 154 89 311 89zm-723-866h299q289 0 463 105t174 282q0 103-73 173-71 68-179 68-121 0-242-84-120-83-299-295-132-154-207-247 28-2 64-2zm67 1079 180 180 183-180-180-180z"/><glyph glyph-name="uniFD08" unicode="ﴈ" horiz-adv-x="3065" arabic-form="isolated" d="M2544 1102q188 0 314-127t126-318q0-298-230-477Q2523 0 2144 0h-332q-222 0-341 106t-119 304q0 87 12 194 7 73 29 168-95-7-211-33-150-35-232-97-82-63-82-130 0-44 32-79 28-30 124-95l76-49q217-144 217-328 0-174-169-288-168-113-437-113-338 0-493 140Q61-158 61 131q0 40 1 60 2 31 6 59 5 29 6 49t9 50q5 20 10 45 4 20 13 47l15 45q1 3 5.5 19.5T136 536l16 48h215q-91-232-91-422 0-196 115-284 114-87 387-87 135 0 233 40 99 41 99 101 0 57-158 162l-92 64q-103 73-150 149-48 78-48 185 0 192 189 337 190 146 585 185l184-113q-68-283-68-434 0-68 17-119l6-14q154 195 291 350 216 242 367 329 154 89 311 89zm-723-866h299q289 0 463 105t174 282q0 103-73 173-71 68-179 68-121 0-242-84-120-83-299-295-132-154-207-247 28-2 64-2zM500-713l180 181 156-152 153 152 182-181-180-180-155 152-154-152zm1388 2028 180 180 183-180-180-180z"/><glyph glyph-name="uniFD0D" unicode="ﴍ" horiz-adv-x="2498" arabic-form="isolated" d="M913 1014h205q-80-368-80-469 0-165 65-238 64-71 216-71 147 0 194 102 48 111 48 420h208q0-190-22-332-15-82-33-133 45-20 98-37 66-20 146-20 213 0 213 163 0 187-62 594h226q61-418 61-610 0-166-120-274Q2155 0 1978 0q-163 0-356 119-40-42-90-70-89-49-213-49-237 0-362 129-123 127-123 369 0 77 8 147l4 29q-124-28-168-39-132-35-197-57l13-113q16-161 16-420 0-227-149-356T-20-440v215q137 0 225 73t88 213q0 286-37 572l162 170q19 4 55.5 12t97 20.5T686 860q115 24 199 31l4 20zm410 108 180 183 166-164 164 164 182-183-180-180-166 162-164-162zm201 264 143 146 145-146-143-143z"/><glyph glyph-name="uniFD0E" unicode="ﴎ" horiz-adv-x="2498" arabic-form="isolated" d="M913 1014h205q-80-368-80-469 0-165 65-238 64-71 216-71 147 0 194 102 48 111 48 420h208q0-190-22-332-15-82-33-133 45-20 98-37 66-20 146-20 213 0 213 163 0 187-62 594h226q61-418 61-610 0-166-120-274Q2155 0 1978 0q-163 0-356 119-40-42-90-70-89-49-213-49-237 0-362 129-123 127-123 369 0 77 8 147l4 29q-124-28-168-39-132-35-197-57l13-113q16-161 16-420 0-227-149-356T-20-440v215q137 0 225 73t88 213q0 286-37 572l162 170q19 4 55.5 12t97 20.5T686 860q115 24 199 31l4 20z"/><glyph glyph-name="uniFD0F" unicode="ﴏ" horiz-adv-x="2643" arabic-form="isolated" d="M2122 1102q188 0 314-127t126-318q0-298-230-477Q2101 0 1722 0h-200Q834 0 834 498q0 77 8 147l4 29q-124-28-168-39-132-35-197-57l13-113q16-161 16-420 0-227-149-356T-20-440v215q137 0 225 73t88 213q0 286-37 572l162 170q19 4 55.5 12t97 20.5T686 860q115 24 199 31l4 20 24 103h205q-80-368-80-469 0-83 23-146 23-55 72-90 183 229 313 375 216 239 368 328 153 90 308 90zm-580-866h156q289 0 463 105t174 282q0 103-73 173-71 68-179 68-119 0-240-85-122-86-301-296-81-92-199-239 78-8 199-8z"/><glyph glyph-name="uniFD10" unicode="ﴐ" horiz-adv-x="2643" arabic-form="isolated" d="M2122 1102q188 0 314-127t126-318q0-298-230-477Q2101 0 1722 0h-200Q834 0 834 498q0 77 8 147l4 29q-124-28-168-39-132-35-197-57l13-113q16-161 16-420 0-227-149-356T-20-440v215q137 0 225 73t88 213q0 286-37 572l162 170q19 4 55.5 12t97 20.5T686 860q115 24 199 31l4 20 24 103h205q-80-368-80-469 0-83 23-146 23-55 72-90 183 229 313 375 216 239 368 328 153 90 308 90zm-580-866h156q289 0 463 105t174 282q0 103-73 173-71 68-179 68-119 0-240-85-122-86-301-296-81-92-199-239 78-8 199-8zm-166 1048 180 180 183-180-180-180z"/><glyph glyph-name="uniFD17" unicode="ﴗ" horiz-adv-x="3090" arabic-form="final" d="M2673 901h209V758q0-183-23-332-9-47-29-127 53-29 115-47 74-16 145-16 21 0 21-21V23q0-23-21-23-114 0-206 45-67 32-134 90Q2642 0 2441 0q-70 0-151 31-62 23-170 92Q2014 0 1821 0q-213 0-342 112-127 111-127 298 0 87 12 194 7 73 29 168-95-7-211-33-150-35-232-97-82-63-82-130 0-44 32-79 28-30 124-95l76-49q217-144 217-328 0-174-169-288-168-113-437-113-338 0-493 140Q61-158 61 131q0 40 1 60 2 31 6 59 5 29 6 49t9 50q5 20 10 45 4 20 13 47l15 45q1 3 5.5 19.5T136 536l16 48h215q-91-232-91-422 0-196 115-284 114-87 387-87 135 0 233 40 99 41 99 101 0 57-158 162l-92 64q-103 73-150 149-48 78-48 185 0 192 189 337 190 146 585 185l184-113q-68-277-68-434 0-106 71-169 69-62 198-62 138 0 184 102 47 109 47 420h209q0-183-23-332-12-72-30-133 44-23 100-39 74-18 133-18 139 0 185 102 47 109 47 420v143z"/><glyph glyph-name="uniFD18" unicode="ﴘ" horiz-adv-x="3090" arabic-form="final" d="M2673 901h209V758q0-183-23-332-9-47-29-127 53-29 115-47 74-16 145-16 21 0 21-21V23q0-23-21-23-114 0-206 45-67 32-134 90Q2642 0 2441 0q-70 0-151 31-62 23-170 92Q2014 0 1821 0q-213 0-342 112-127 111-127 298 0 87 12 194 7 73 29 168-95-7-211-33-150-35-232-97-82-63-82-130 0-44 32-79 28-30 124-95l76-49q217-144 217-328 0-174-169-288-168-113-437-113-338 0-493 140Q61-158 61 131q0 40 1 60 2 31 6 59 5 29 6 49t9 50q5 20 10 45 4 20 13 47l15 45q1 3 5.5 19.5T136 536l16 48h215q-91-232-91-422 0-196 115-284 114-87 387-87 135 0 233 40 99 41 99 101 0 57-158 162l-92 64q-103 73-150 149-48 78-48 185 0 192 189 337 190 146 585 185l184-113q-68-277-68-434 0-106 71-169 69-62 198-62 138 0 184 102 47 109 47 420h209q0-183-23-332-12-72-30-133 44-23 100-39 74-18 133-18 139 0 185 102 47 109 47 420v143zM500-715l180 180 156-151 153 151 182-180-180-180-155 152-154-152z"/><glyph glyph-name="uniFD19" unicode="ﴙ" horiz-adv-x="3090" arabic-form="final" d="M2673 901h209V758q0-183-23-332-9-47-29-127 53-29 115-47 74-16 145-16 21 0 21-21V23q0-23-21-23-114 0-206 45-67 32-134 90Q2642 0 2441 0q-70 0-151 31-62 23-170 92Q2014 0 1821 0q-213 0-342 112-127 111-127 298 0 87 12 194 7 73 29 168-95-7-211-33-150-35-232-97-82-63-82-130 0-44 32-79 28-30 124-95l76-49q217-144 217-328 0-174-169-288-168-113-437-113-338 0-493 140Q61-158 61 131q0 40 1 60 2 31 6 59 5 29 6 49t9 50q5 20 10 45 4 20 13 47l15 45q1 3 5.5 19.5T136 536l16 48h215q-91-232-91-422 0-196 115-284 114-87 387-87 135 0 233 40 99 41 99 101 0 57-158 162l-92 64q-103 73-150 149-48 78-48 185 0 192 189 337 190 146 585 185l184-113q-68-277-68-434 0-106 71-169 69-62 198-62 138 0 184 102 47 109 47 420h209q0-183-23-332-12-72-30-133 44-23 100-39 74-18 133-18 139 0 185 102 47 109 47 420v143zm-863 219 181 183 166-164 163 164 183-183-181-180-165 162-164-162zm201 264 143 146 146-146-143-143z"/><glyph glyph-name="uniFD1A" unicode="ﴚ" horiz-adv-x="3090" arabic-form="final" d="M2673 901h209V758q0-183-23-332-9-47-29-127 53-29 115-47 74-16 145-16 21 0 21-21V23q0-23-21-23-114 0-206 45-67 32-134 90Q2642 0 2441 0q-70 0-151 31-62 23-170 92Q2014 0 1821 0q-213 0-342 112-127 111-127 298 0 87 12 194 7 73 29 168-95-7-211-33-150-35-232-97-82-63-82-130 0-44 32-79 28-30 124-95l76-49q217-144 217-328 0-174-169-288-168-113-437-113-338 0-493 140Q61-158 61 131q0 40 1 60 2 31 6 59 5 29 6 49t9 50q5 20 10 45 4 20 13 47l15 45q1 3 5.5 19.5T136 536l16 48h215q-91-232-91-422 0-196 115-284 114-87 387-87 135 0 233 40 99 41 99 101 0 57-158 162l-92 64q-103 73-150 149-48 78-48 185 0 192 189 337 190 146 585 185l184-113q-68-277-68-434 0-106 71-169 69-62 198-62 138 0 184 102 47 109 47 420h209q0-183-23-332-12-72-30-133 44-23 100-39 74-18 133-18 139 0 185 102 47 109 47 420v143zm-875 219 180 183 166-164 164 164 182-183-180-180-166 162-164-162zM500-715l180 180 156-151 153 151 182-180-180-180-155 152-154-152zm1499 2099 143 146 146-146-144-143z"/><glyph glyph-name="uniFD21" unicode="ﴡ" horiz-adv-x="3117" arabic-form="final" d="M2544 1102q188 0 314-127t126-318q0-298-230-477Q2523 0 2144 0h-332q-222 0-341 106t-119 304q0 87 12 194 7 73 29 168-95-7-211-33-150-35-232-97-82-63-82-130 0-44 32-79 28-30 124-95l76-49q217-144 217-328 0-174-169-288-168-113-437-113-338 0-493 140Q61-158 61 131q0 40 1 60 2 31 6 59 5 29 6 49t9 50q5 20 10 45 4 20 13 47l15 45q1 3 5.5 19.5T136 536l16 48h215q-91-232-91-422 0-196 115-284 114-87 387-87 135 0 233 40 99 41 99 101 0 57-158 162l-92 64q-103 73-150 149-48 78-48 185 0 192 189 337 190 146 585 185l184-113q-68-283-68-434 0-68 17-119l6-14q154 195 291 350 216 242 367 329 154 89 311 89zm-723-866h299q289 0 463 105t174 282q0 103-73 173-71 68-179 68-121 0-242-84-120-83-299-295-132-154-207-247 28-2 64-2zm897-41 102 129q133-88 297-88 21 0 21-21V23q0-23-21-23-216 0-399 195z"/><glyph glyph-name="uniFD22" unicode="ﴢ" horiz-adv-x="3117" arabic-form="final" d="M2544 1102q188 0 314-127t126-318q0-298-230-477Q2523 0 2144 0h-332q-222 0-341 106t-119 304q0 87 12 194 7 73 29 168-95-7-211-33-150-35-232-97-82-63-82-130 0-44 32-79 28-30 124-95l76-49q217-144 217-328 0-174-169-288-168-113-437-113-338 0-493 140Q61-158 61 131q0 40 1 60 2 31 6 59 5 29 6 49t9 50q5 20 10 45 4 20 13 47l15 45q1 3 5.5 19.5T136 536l16 48h215q-91-232-91-422 0-196 115-284 114-87 387-87 135 0 233 40 99 41 99 101 0 57-158 162l-92 64q-103 73-150 149-48 78-48 185 0 192 189 337 190 146 585 185l184-113q-68-283-68-434 0-68 17-119l6-14q154 195 291 350 216 242 367 329 154 89 311 89zm-723-866h299q289 0 463 105t174 282q0 103-73 173-71 68-179 68-121 0-242-84-120-83-299-295-132-154-207-247 28-2 64-2zm897-41 102 129q133-88 297-88 21 0 21-21V23q0-23-21-23-216 0-399 195zM500-713l180 181 156-152 153 152 182-181-180-180-155 152-154-152z"/><glyph glyph-name="uniFD23" unicode="ﴣ" horiz-adv-x="3117" arabic-form="final" d="M2544 1102q188 0 314-127t126-318q0-298-230-477Q2523 0 2144 0h-332q-222 0-341 106t-119 304q0 87 12 194 7 73 29 168-95-7-211-33-150-35-232-97-82-63-82-130 0-44 32-79 28-30 124-95l76-49q217-144 217-328 0-174-169-288-168-113-437-113-338 0-493 140Q61-158 61 131q0 40 1 60 2 31 6 59 5 29 6 49t9 50q5 20 10 45 4 20 13 47l15 45q1 3 5.5 19.5T136 536l16 48h215q-91-232-91-422 0-196 115-284 114-87 387-87 135 0 233 40 99 41 99 101 0 57-158 162l-92 64q-103 73-150 149-48 78-48 185 0 192 189 337 190 146 585 185l184-113q-68-283-68-434 0-68 17-119l6-14q154 195 291 350 216 242 367 329 154 89 311 89zm-723-866h299q289 0 463 105t174 282q0 103-73 173-71 68-179 68-121 0-242-84-120-83-299-295-132-154-207-247 28-2 64-2zm897-41 102 129q133-88 297-88 21 0 21-21V23q0-23-21-23-216 0-399 195zm-830 1120 180 180 183-180-180-180z"/><glyph glyph-name="uniFD24" unicode="ﴤ" horiz-adv-x="3117" arabic-form="final" d="M2544 1102q188 0 314-127t126-318q0-298-230-477Q2523 0 2144 0h-332q-222 0-341 106t-119 304q0 87 12 194 7 73 29 168-95-7-211-33-150-35-232-97-82-63-82-130 0-44 32-79 28-30 124-95l76-49q217-144 217-328 0-174-169-288-168-113-437-113-338 0-493 140Q61-158 61 131q0 40 1 60 2 31 6 59 5 29 6 49t9 50q5 20 10 45 4 20 13 47l15 45q1 3 5.5 19.5T136 536l16 48h215q-91-232-91-422 0-196 115-284 114-87 387-87 135 0 233 40 99 41 99 101 0 57-158 162l-92 64q-103 73-150 149-48 78-48 185 0 192 189 337 190 146 585 185l184-113q-68-283-68-434 0-68 17-119l6-14q154 195 291 350 216 242 367 329 154 89 311 89zm-723-866h299q289 0 463 105t174 282q0 103-73 173-71 68-179 68-121 0-242-84-120-83-299-295-132-154-207-247 28-2 64-2zm897-41 102 129q133-88 297-88 21 0 21-21V23q0-23-21-23-216 0-399 195zM500-713l180 181 156-152 153 152 182-181-180-180-155 152-154-152zm1388 2028 180 180 183-180-180-180z"/><glyph glyph-name="uniFD29" unicode="ﴩ" horiz-adv-x="2578" arabic-form="final" d="M913 1014h205q-80-368-80-469 1-164 69-238 65-71 202-71t184 102q47 109 47 420h209q0-183-23-332-12-72-30-133 44-23 100-39 74-18 133-18 139 0 185 102 47 109 47 420v143h209V758q0-183-23-332-9-47-29-127 53-29 115-47 74-16 145-16 21 0 21-21V23q0-23-21-23-114 0-206 45-67 32-134 90Q2130 0 1929 0q-70 0-151 31-62 23-170 92Q1500 0 1309 0q-221 0-347 126-127 127-128 372 0 77 8 147 2 14 2 27-90-18-166-37-132-35-197-57l13-113q16-161 16-420 0-227-149-356T-20-440v215q137 0 225 73t88 213q0 286-37 572l162 170q19 4 55.5 12t97 20.5T686 860q115 24 199 31l4 20zm390 106 180 183 166-164 163 164 183-183-180-180-166 162-164-162zm200 264 144 146 145-146-143-143z"/><glyph glyph-name="uniFD2A" unicode="ﴪ" horiz-adv-x="2578" arabic-form="final" d="M913 1014h205q-80-368-80-469 1-164 69-238 65-71 202-71t184 102q47 109 47 420h209q0-183-23-332-12-72-30-133 44-23 100-39 74-18 133-18 139 0 185 102 47 109 47 420v143h209V758q0-183-23-332-9-47-29-127 53-29 115-47 74-16 145-16 21 0 21-21V23q0-23-21-23-114 0-206 45-67 32-134 90Q2130 0 1929 0q-70 0-151 31-62 23-170 92Q1500 0 1309 0q-221 0-347 126-127 127-128 372 0 77 8 147 2 14 2 27-90-18-166-37-132-35-197-57l13-113q16-161 16-420 0-227-149-356T-20-440v215q137 0 225 73t88 213q0 286-37 572l162 170q19 4 55.5 12t97 20.5T686 860q115 24 199 31l4 20z"/><glyph glyph-name="uniFD2B" unicode="ﴫ" horiz-adv-x="2686" arabic-form="final" d="M2122 1102q188 0 314-127t126-318q0-298-230-477Q2101 0 1722 0h-200Q834 0 834 498q0 77 8 147l4 29q-124-28-168-39-132-35-197-57l13-113q16-161 16-420 0-227-149-356T-20-440v215q137 0 225 73t88 213q0 286-37 572l162 170q19 4 55.5 12t97 20.5T686 860q115 24 199 31l4 20 24 103h205q-80-368-80-469 0-83 23-146 23-55 72-90 183 229 313 375 216 239 368 328 153 90 308 90zm-580-866h156q289 0 463 105t174 282q0 103-73 173-71 68-179 68-119 0-240-85-122-86-301-296-81-92-199-239 78-8 199-8zm746-41 102 129q133-88 297-88 20 0 20-21V23q0-23-20-23-216 0-399 195z"/><glyph glyph-name="uniFD2C" unicode="ﴬ" horiz-adv-x="2686" arabic-form="final" d="M2122 1102q188 0 314-127t126-318q0-298-230-477Q2101 0 1722 0h-200Q834 0 834 498q0 77 8 147l4 29q-124-28-168-39-132-35-197-57l13-113q16-161 16-420 0-227-149-356T-20-440v215q137 0 225 73t88 213q0 286-37 572l162 170q19 4 55.5 12t97 20.5T686 860q115 24 199 31l4 20 24 103h205q-80-368-80-469 0-83 23-146 23-55 72-90 183 229 313 375 216 239 368 328 153 90 308 90zm-580-866h156q289 0 463 105t174 282q0 103-73 173-71 68-179 68-119 0-240-85-122-86-301-296-81-92-199-239 78-8 199-8zm746-41 102 129q133-88 297-88 20 0 20-21V23q0-23-20-23-216 0-399 195zm-912 1089 180 180 183-180-180-180z"/><glyph glyph-name="uniFE82" unicode="آ" horiz-adv-x="602" arabic-form="final" d="M164 1229h225V408q0-91 47-132 46-40 166-40 21 0 21-21V23q0-23-21-23-211 0-324 106-114 106-114 285v838zm-23 325q46 0 133-37 90-38 134-38 90 0 163 53l-2-156q-68-51-157-51-47 0-128 38t-118 38q-93 0-105-80H-61q0 108 55 170 56 63 147 63z"/><glyph glyph-name="uniFE84" unicode="أ" horiz-adv-x="602" arabic-form="final" d="M164 1229h225V408q0-91 47-132 46-40 166-40 21 0 21-21V23q0-23-21-23-211 0-324 106-114 106-114 285v838zm143 256h238l-41-144H162q-76 0-154-24v139q58 22 82 23l57 6-16 20q-33 41-33 97 0 79 58 134 57 54 139 54 93 0 172-41v-135q-89 33-135 33-44 0-74-24-31-25-31-64 0-33 27-54 20-15 53-20z"/><glyph glyph-name="uniFE86" unicode="ؤ" horiz-adv-x="1118" arabic-form="final" d="M555 993q188 0 305-122 117-121 129-345 8-166 8-282v-8h121q21 0 21-21V23q0-23-21-23H997q-7-61-30-121-55-148-235-234-177-85-478-85v215q266 0 397 84Q746-79 770 0H627Q378 0 230 130T82 483q0 221 134 366 134 144 339 144zm223-757-4 81q0 9-7 102-5 70-5 89-21 250-213 250-104 0-173-75t-69-191q0-256 350-256h121zM614 1329h193l-55-184H481q-104 0-217-35v178q78 27 115 33l-2 2q-43 44-43 115 0 90 63 151 64 62 176 62 69 0 152-43v-172q-83 28-147 28-42 0-67-18-26-18-26-47 0-70 129-70z"/><glyph glyph-name="uniFE88" unicode="إ" horiz-adv-x="602" arabic-form="final" d="M164 1485h225V408q0-91 47-132 46-40 166-40 21 0 21-21V23q0-23-21-23-211 0-324 106-114 106-114 285v1094zM303-397h234l-41-144H154q-76 0-154-24v139q58 20 82 25 29 4 57 4l-16 20q-33 41-33 96 0 81 57 135t140 54q93 0 172-41v-135q-86 32-135 32-45 0-74-23-31-25-31-65 0-32 27-53 29-19 57-20z"/><glyph glyph-name="uniFE8A" unicode="ئ" horiz-adv-x="1384" arabic-form="final" d="M983 70v225q271-59 401-59 21 0 21-21V23q0-23-21-23h-6q-36-89-84-150-214-290-665-290-257 0-412 149Q61-141 61 131q0 40 1 60 2 31 6 59 5 29 6 49t9 50q5 20 10 45 4 20 13 47l15 45q1 3 5.5 19.5T136 536l16 48h215q-91-232-91-422 0-367 406-367 203 0 348 86 90 52 146 139-16 6-37 10-12 2-31 7-32 10-125 33zm98 606h193l-55-184H948q-104 0-217-35v178q78 27 115 33l-2 2q-43 46-43 114 0 90 63 152 62 61 176 61 69 0 152-43V782q-85 29-148 29-40 0-66-18t-26-48q0-69 129-69z"/><glyph glyph-name="uniFE8B" unicode="ئ" horiz-adv-x="694" d="M315 993h226q61-434 61-602 0-178-115-285Q374 0 164 0H0q-20 0-20 23v192q0 21 20 21h164q120 0 166 40 47 41 47 132 0 143-62 585zm183 295h192l-55-184H365q-105 0-218-35v178q78 27 115 33l-2 2q-43 44-43 115 0 89 64 151t176 62q68 0 151-43v-172q-83 28-147 28-41 0-67-18-25-18-25-47 0-70 129-70z"/><glyph glyph-name="uniFE8C" unicode="ئ" horiz-adv-x="757" arabic-form="medial" d="M297 758h209q0-187-14-307-11-79-25-134 59-34 131-55 79-26 160-26 20 0 20-21V23q0-23-20-23-113 0-226 55-69 37-143 99-46-64-117-101Q164 0 0 0q-20 0-20 23v192q0 21 20 21 185 0 244 98 35 58 44 150 9 93 9 274zm195 332h192l-55-185H358q-104 0-217-35v179q73 25 115 32l-2 2q-43 46-43 115 0 90 63 152 62 61 177 61 68 0 151-43v-172q-85 29-147 29-40 0-67-19-26-18-26-47 0-69 130-69z"/><glyph glyph-name="uniFE8E" unicode="ا" horiz-adv-x="602" arabic-form="final" d="M164 1485h225V408q0-91 47-132 46-40 166-40 21 0 21-21V23q0-23-21-23-211 0-324 106-114 106-114 285v1094z"/><glyph glyph-name="uniFE90" unicode="ب" horiz-adv-x="1701" arabic-form="final" d="M1319 758h209q0-301-55-473 99-49 229-49 20 0 20-21V23q0-23-20-23-178 0-320 119Q1275 0 1094 0H606Q345 0 203 131T61 504q0 126 52 397h215q-41-217-41-344 0-175 79-248t291-73h430q139 0 185 102 47 109 47 420zM698-295l181 180 182-180-180-180z"/><glyph glyph-name="uniFE91" unicode="ب" horiz-adv-x="540" d="M152 993h225q61-434 61-602 0-179-114-285Q211 0 0 0q-20 0-20 23v192q0 21 20 21 120 0 166 40 47 41 47 132 0 151-61 585zM33-309l180 180 182-180-180-180z"/><glyph glyph-name="uniFE92" unicode="ب" horiz-adv-x="614" arabic-form="medial" d="M231 758h209q0-190-22-332-11-69-35-141 63-27 86-33 74-16 145-16 21 0 21-21V23q0-23-21-23-114 0-206 45-52 27-113 74Q188 0 0 0q-20 0-20 23v192q0 21 20 21 138 0 184 102 47 109 47 420zM121-311l180 180 182-180-180-181z"/><glyph glyph-name="uniFE94" unicode="ة" horiz-adv-x="1095" arabic-form="final" d="M713 1102h225V395q0-79 35-120 33-39 123-39 20 0 20-21V23q0-23-20-23-99 0-170 31-65 28-111 78-80-47-141-72Q591 0 487 0 295 0 178 111T61 403q0 143 86 280 85 136 281 228 127 55 285 78v113zM422 666q-135-96-135-244 0-92 53-140 54-49 152-49 78 0 141 15 40 7 96 31-16 70-16 147v346q-181-27-291-106zm-25 739 181 180 155-151 154 151 182-180-180-180-156 151-153-151z"/><glyph glyph-name="uniFE96" unicode="ت" horiz-adv-x="1701" arabic-form="final" d="M1319 758h209q0-301-55-473 99-49 229-49 20 0 20-21V23q0-23-20-23-178 0-320 119Q1277 0 1087 0H606Q345 0 203 131T61 504q0 126 52 397h215q-41-217-41-344 0-175 79-248t291-73h445q127 4 170 102 47 109 47 420zm-750 323 181 181 155-152 154 152 182-181-180-180-156 152-153-152z"/><glyph glyph-name="uniFE97" unicode="ت" horiz-adv-x="780" d="M315 993h226q61-434 61-602 0-178-115-285Q374 0 164 0H0q-20 0-20 23v192q0 21 20 21h164q120 0 166 40 47 41 47 132 0 143-62 585zM68 1305l180 180 155-152 154 152 182-180-180-181-156 152-153-152z"/><glyph glyph-name="uniFE98" unicode="ت" horiz-adv-x="757" arabic-form="medial" d="M297 758h209q0-187-14-307-11-79-25-134 59-34 131-55 79-26 160-26 20 0 20-21V23q0-23-20-23-113 0-226 55-69 37-143 99-46-64-117-101Q164 0 0 0q-20 0-20 23v192q0 21 20 21 185 0 244 98 35 58 44 150 9 93 9 274zM66 1081l180 181 155-152 154 152 182-181-180-180-156 152-153-152z"/><glyph glyph-name="uniFE9A" unicode="ث" horiz-adv-x="1701" arabic-form="final" d="M1319 758h209q0-301-55-473 99-49 229-49 20 0 20-21V23q0-23-20-23-178 0-320 119Q1275 0 1092 0H606Q345 0 203 131T61 504q0 126 52 397h215q-41-217-41-344 0-175 79-248t291-73h430q139 0 185 102 47 109 47 420zm-784 325 180 183 166-164 163 164 183-183-180-180-166 162-164-162zm200 265 144 145 145-145-143-144z"/><glyph glyph-name="uniFE9B" unicode="ث" horiz-adv-x="792" d="M315 993h226q61-434 61-602 0-178-115-285Q374 0 164 0H0q-20 0-20 23v192q0 21 20 21h164q120 0 166 40 47 41 47 132 0 143-62 585zM59 1298l181 183 166-164 163 164 183-183-181-180-165 162-164-162zm201 265 143 145 146-145-143-144z"/><glyph glyph-name="uniFE9C" unicode="ث" horiz-adv-x="757" arabic-form="medial" d="M297 758h209q0-187-14-307-11-79-25-134 59-34 131-55 79-26 160-26 20 0 20-21V23q0-23-20-23-113 0-226 55-69 37-143 99-46-64-117-101Q164 0 0 0q-20 0-20 23v192q0 21 20 21 185 0 244 98 35 58 44 150 9 93 9 274zM37 1081l180 183 166-164 164 164 182-183-180-180-166 162-164-162zm201 265 143 145 145-145-143-144z"/><glyph glyph-name="uniFE9E" unicode="ج" horiz-adv-x="1333" arabic-form="final" d="M387 1102q83 0 171-38 84-36 166-95 33-24 158-118 87-66 176-115 99-55 193-77l-61-225q-45 0-96-6v-49q0-143 239-143 21 0 21-21V23q0-23-21-23-393 0-393 342v66q-39-6-117-27-226-56-381-166T287-43q0-135 96-210t272-75q219 0 473 78v-217q-291-96-483-96-281 0-432 127Q61-308 61-76q0 133 59 242 58 107 162 184 104 76 225 126 124 50 269 83 55 13 131 25-49 28-102 65-2 2-11.5 9T768 676.5 735 701q-75 54-76 55-3 2-13 8.5t-23.5 15T595 797q-51 32-75 40-26 9-66 19-39 10-77 10-110 0-246-47v215q112 68 256 68zM553 12l180 181L915 12 735-168z"/><glyph glyph-name="uniFE9F" unicode="ج" horiz-adv-x="1251" d="M387 993q103 0 208-51 102-50 184-116 82-67 197-135 120-71 234-99l-61-225q-131-22-243-70-103-44-182-95-90-58-163-96-88-46-227-76Q194 0 2 0q-22 0-22 23v192q0 21 22 21 90 0 168 6t153 21q51 10 121 26 50 11 117 39 82 34 93 38 28 11 99 46 64 32 85 41 2 1 6.5 3t12.5 5.5 15 6.5q13 6 41 17-57 26-129 76-15 13-51 38-14 10-31 22t-21 15q-1 1-17 12t-30 20q-37 24-51 30-7 3-23.5 11.5T536 722q-31 16-53 20-5 1-22.5 5t-27.5 6q-30 5-56 5-110 0-246-47v215q110 67 256 67zM330-309l180 180 182-180-180-180z"/><glyph glyph-name="uniFEA0" unicode="ج" horiz-adv-x="1292" arabic-form="medial" d="M387 993q103 0 208-51 102-50 184-116 82-67 197-135 120-71 234-99l-61-225-94-19q12-40 47-69 55-43 190-43 21 0 21-21V23q0-23-21-23-356 0-389 297-73-31-121-61-31-18-88-54-52-33-98-57-25-13-100-46-74-32-132-44-57-11-156-24Q121 0 2 0q-22 0-22 23v192q0 21 22 21 90 0 168 6t153 21q51 10 121 26 50 11 117 39 82 34 93 38 28 11 99 46 64 32 85 41 2 1 6.5 3t12.5 5.5 15 6.5q13 6 41 17-57 26-129 76-15 13-51 38-14 10-31 22t-21 15q-1 1-17 12t-30 20q-37 24-51 30-7 3-23.5 11.5T536 722q-31 16-53 20-5 1-22.5 5t-27.5 6q-30 5-56 5-110 0-246-47v215q110 67 256 67zM330-311l180 180 182-180-180-181z"/><glyph glyph-name="uniFEA2" unicode="ح" horiz-adv-x="1333" arabic-form="final" d="M387 1102q83 0 171-38 84-36 166-95 33-24 158-118 87-66 176-115 99-55 193-77l-61-225q-45 0-96-6v-49q0-143 239-143 21 0 21-21V23q0-23-21-23-393 0-393 342v66q-39-6-117-27-226-56-381-166T287-43q0-135 96-210t272-75q219 0 473 78v-217q-291-96-483-96-281 0-432 127Q61-308 61-76q0 133 59 242 58 107 162 184 104 76 225 126 124 50 269 83 55 13 131 25-49 28-102 65-2 2-11.5 9T768 676.5 735 701q-75 54-76 55-3 2-13 8.5t-23.5 15T595 797q-51 32-75 40-26 9-66 19-39 10-77 10-110 0-246-47v215q112 68 256 68z"/><glyph glyph-name="uniFEA3" unicode="ح" horiz-adv-x="1251" d="M387 993q103 0 208-51 102-50 184-116 82-67 197-135 120-71 234-99l-61-225q-131-22-243-70-103-44-182-95-90-58-163-96-88-46-227-76Q194 0 2 0q-22 0-22 23v192q0 21 22 21 90 0 168 6t153 21q51 10 121 26 50 11 117 39 82 34 93 38 28 11 99 46 64 32 85 41 2 1 6.5 3t12.5 5.5 15 6.5q13 6 41 17-57 26-129 76-15 13-51 38-14 10-31 22t-21 15q-1 1-17 12t-30 20q-37 24-51 30-7 3-23.5 11.5T536 722q-31 16-53 20-5 1-22.5 5t-27.5 6q-30 5-56 5-110 0-246-47v215q110 67 256 67z"/><glyph glyph-name="uniFEA4" unicode="ح" horiz-adv-x="1292" arabic-form="medial" d="M387 993q103 0 208-51 102-50 184-116 82-67 197-135 120-71 234-99l-61-225-94-19q12-40 47-69 55-43 190-43 21 0 21-21V23q0-23-21-23-356 0-389 297-73-31-121-61-31-18-88-54-52-33-98-57-25-13-100-46-74-32-132-44-57-11-156-24Q121 0 2 0q-22 0-22 23v192q0 21 22 21 90 0 168 6t153 21q51 10 121 26 50 11 117 39 82 34 93 38 28 11 99 46 64 32 85 41 2 1 6.5 3t12.5 5.5 15 6.5q13 6 41 17-57 26-129 76-15 13-51 38-14 10-31 22t-21 15q-1 1-17 12t-30 20q-37 24-51 30-7 3-23.5 11.5T536 722q-31 16-53 20-5 1-22.5 5t-27.5 6q-30 5-56 5-110 0-246-47v215q110 67 256 67z"/><glyph glyph-name="uniFEA6" unicode="خ" horiz-adv-x="1333" arabic-form="final" d="M387 1102q83 0 171-38 84-36 166-95 33-24 158-118 87-66 176-115 99-55 193-77l-61-225q-45 0-96-6v-49q0-143 239-143 21 0 21-21V23q0-23-21-23-393 0-393 342v66q-39-6-117-27-226-56-381-166T287-43q0-135 96-210t272-75q219 0 473 78v-217q-291-96-483-96-281 0-432 127Q61-308 61-76q0 133 59 242 58 107 162 184 104 76 225 126 124 50 269 83 55 13 131 25-49 28-102 65-2 2-11.5 9T768 676.5 735 701q-75 54-76 55-3 2-13 8.5t-23.5 15T595 797q-51 32-75 40-26 9-66 19-39 10-77 10-110 0-246-47v215q112 68 256 68zm303 180 180 180 183-180-181-180z"/><glyph glyph-name="uniFEA7" unicode="خ" horiz-adv-x="1251" d="M387 993q103 0 208-51 102-50 184-116 82-67 197-135 120-71 234-99l-61-225q-131-22-243-70-103-44-182-95-90-58-163-96-88-46-227-76Q194 0 2 0q-22 0-22 23v192q0 21 22 21 90 0 168 6t153 21q51 10 121 26 50 11 117 39 82 34 93 38 28 11 99 46 64 32 85 41 2 1 6.5 3t12.5 5.5 15 6.5q13 6 41 17-57 26-129 76-15 13-51 38-14 10-31 22t-21 15q-1 1-17 12t-30 20q-37 24-51 30-7 3-23.5 11.5T536 722q-31 16-53 20-5 1-22.5 5t-27.5 6q-30 5-56 5-110 0-246-47v215q110 67 256 67zm-63 305 180 181 182-181-180-180z"/><glyph glyph-name="uniFEA8" unicode="خ" horiz-adv-x="1292" arabic-form="medial" d="M387 993q103 0 208-51 102-50 184-116 82-67 197-135 120-71 234-99l-61-225-94-19q12-40 47-69 55-43 190-43 21 0 21-21V23q0-23-21-23-356 0-389 297-73-31-121-61-31-18-88-54-52-33-98-57-25-13-100-46-74-32-132-44-57-11-156-24Q121 0 2 0q-22 0-22 23v192q0 21 22 21 90 0 168 6t153 21q51 10 121 26 50 11 117 39 82 34 93 38 28 11 99 46 64 32 85 41 2 1 6.5 3t12.5 5.5 15 6.5q13 6 41 17-57 26-129 76-15 13-51 38-14 10-31 22t-21 15q-1 1-17 12t-30 20q-37 24-51 30-7 3-23.5 11.5T536 722q-31 16-53 20-5 1-22.5 5t-27.5 6q-30 5-56 5-110 0-246-47v215q110 67 256 67zm-63 305 180 181 182-181-180-180z"/><glyph glyph-name="uniFEAA" unicode="د" horiz-adv-x="1050" arabic-form="final" d="M20 70v225q202-59 371-59 96 0 168 8 42 5 94 16-29 62-39 96-70 209-149 637h235q72-441 119-585 57-172 232-172 20 0 20-21V23q0-23-20-23-175 0-287 106-72-47-160-75Q499 0 391 0 284 0 216 13 143 27 20 70z"/><glyph glyph-name="uniFEAC" unicode="ذ" horiz-adv-x="1050" arabic-form="final" d="M20 70v225q202-59 371-59 96 0 168 8 42 5 94 16-29 62-39 96-70 209-149 637h235q72-441 119-585 57-172 232-172 20 0 20-21V23q0-23-20-23-175 0-287 106-72-47-160-75Q499 0 391 0 284 0 216 13 143 27 20 70zm379 1224 181 181 182-181-180-180z"/><glyph glyph-name="uniFEAE" unicode="ر" horiz-adv-x="710" arabic-form="final" d="M221 901h225q30-197 46-409l6-86 6-48q11-68 58-95 48-27 149-27 20 0 20-21V23q0-23-20-23-137 0-197 72l-4 6V45q0-230-143-357Q222-440-20-440v215q147 0 230 72t83 214q0 277-72 840z"/><glyph glyph-name="uniFEB0" unicode="ز" horiz-adv-x="710" arabic-form="final" d="M221 901h225q30-197 46-409l6-86 6-48q11-68 58-95 48-27 149-27 20 0 20-21V23q0-23-20-23-137 0-197 72l-4 6V45q0-230-143-357Q222-440-20-440v215q147 0 230 72t83 214q0 277-72 840zm-88 313 180 181 183-181-181-180z"/><glyph glyph-name="uniFEB2" unicode="س" horiz-adv-x="2699" arabic-form="final" d="M901 901h225q29-191 52-375 19-149 20-235 41-19 98-37 73-18 134-18 138 0 184 102 47 109 47 420h209q0-183-23-332-12-72-30-133 44-23 100-39 73-18 133-18 138 0 184 102 47 109 47 420v143h209V758q0-190-22-332-9-47-29-127 53-29 115-47 74-16 145-16 21 0 21-21V23q0-23-21-23-115 0-207 45-65 31-133 90Q2252 0 2050 0q-73 0-152 31-60 22-169 92Q1622 0 1430 0q-71 0-152 31-39 16-88 43-11-73-31-127-60-184-206-285-147-102-365-102-254 0-390 146Q61-146 61 131q0 40 1 60 2 31 6 59 5 29 6 49t9 50q5 20 10 45 4 20 13 47l15 45q1 3 5.5 19.5T136 536l16 48h215q-91-232-91-422 0-165 80-266t248-101q379 0 379 408 0 46-1 71-2 38-6 87-1 15-2.5 29.5t-3 29.5-2.5 21q-2 22-14 103-4 25-8.5 58.5T940 645q-1 5-7 46.5T921 770q-18 113-20 131z"/><glyph glyph-name="uniFEB3" unicode="س" horiz-adv-x="1783" d="M215 758h209q0-183-23-332-12-65-30-127 56-31 110-45 73-18 133-18 138 0 185 102 47 109 47 420h209q0-183-23-332-15-82-33-133 42-18 99-37 66-20 145-20 213 0 213 163 0 194-61 594h225q61-418 61-610 0-167-119-274Q1441 0 1264 0q-165 0-355 119Q802 0 614 0q-70 0-151 31-70 27-176 96Q185 0 0 0q-20 0-20 23v192q0 21 20 21 124 0 168 102 47 109 47 420z"/><glyph glyph-name="uniFEB4" unicode="س" horiz-adv-x="1884" arabic-form="medial" d="M215 758h209q0-183-23-332-12-65-30-127 56-31 110-45 73-18 133-18 138 0 185 102 47 109 47 420h209q0-183-23-332-11-65-31-133 43-22 101-39 74-18 133-18 137 0 184 102 47 109 47 420v143h209V758q0-190-22-332-9-47-29-127 53-29 115-47 74-16 145-16 21 0 21-21V23q0-23-21-23-116 0-207 45-65 31-133 90Q1438 0 1235 0q-73 0-152 31-62 23-170 92Q806 0 614 0q-70 0-151 31-70 27-176 96Q185 0 0 0q-20 0-20 23v192q0 21 20 21 124 0 168 102 47 109 47 420z"/><glyph glyph-name="uniFEB6" unicode="ش" horiz-adv-x="2699" arabic-form="final" d="M901 901h225q29-191 52-375 19-149 20-235 41-19 98-37 73-18 134-18 138 0 184 102 47 109 47 420h209q0-183-23-332-12-72-30-133 44-23 100-39 73-18 133-18 138 0 184 102 47 109 47 420v143h209V758q0-190-22-332-9-47-29-127 53-29 115-47 74-16 145-16 21 0 21-21V23q0-23-21-23-115 0-207 45-65 31-133 90Q2252 0 2050 0q-73 0-152 31-60 22-169 92Q1622 0 1430 0q-71 0-152 31-39 16-88 43-11-73-31-127-60-184-206-285-147-102-365-102-254 0-390 146Q61-146 61 131q0 40 1 60 2 31 6 59 5 29 6 49t9 50q5 20 10 45 4 20 13 47l15 45q1 3 5.5 19.5T136 536l16 48h215q-91-232-91-422 0-165 80-266t248-101q379 0 379 408 0 46-1 71-2 38-6 87-1 15-2.5 29.5t-3 29.5-2.5 21q-2 22-14 103-4 25-8.5 58.5T940 645q-1 5-7 46.5T921 770q-18 113-20 131zm510 229 180 183 166-164 164 164 182-183-180-180-166 162-164-162zm201 265 143 145 146-145-144-144z"/><glyph glyph-name="uniFEB7" unicode="ش" horiz-adv-x="1783" d="M215 758h209q0-183-23-332-12-65-30-127 56-31 110-45 73-18 133-18 138 0 185 102 47 109 47 420h209q0-183-23-332-15-82-33-133 42-18 99-37 66-20 145-20 213 0 213 163 0 194-61 594h225q61-418 61-610 0-167-119-274Q1441 0 1264 0q-165 0-355 119Q802 0 614 0q-70 0-151 31-70 27-176 96Q185 0 0 0q-20 0-20 23v192q0 21 20 21 124 0 168 102 47 109 47 420zm381 366 180 183 166-164 164 164 182-183-180-180-166 162-164-162zm201 265 143 145 145-145-143-144z"/><glyph glyph-name="uniFEB8" unicode="ش" horiz-adv-x="1884" arabic-form="medial" d="M215 758h209q0-183-23-332-12-65-30-127 56-31 110-45 73-18 133-18 138 0 185 102 47 109 47 420h209q0-183-23-332-11-65-31-133 43-22 101-39 74-18 133-18 137 0 184 102 47 109 47 420v143h209V758q0-190-22-332-9-47-29-127 53-29 115-47 74-16 145-16 21 0 21-21V23q0-23-21-23-116 0-207 45-65 31-133 90Q1438 0 1235 0q-73 0-152 31-62 23-170 92Q806 0 614 0q-70 0-151 31-70 27-176 96Q185 0 0 0q-20 0-20 23v192q0 21 20 21 124 0 168 102 47 109 47 420zm377 364 180 183 166-164 164 164 182-183-180-180-166 162-164-162zm201 264 143 146 145-146-143-143z"/><glyph glyph-name="uniFEBA" unicode="ص" horiz-adv-x="2625" arabic-form="final" d="M901 901h225q29-191 52-375l2-14q119 120 215 213 203 191 357 273 155 83 312 83 189 0 315-127t126-317q0-140-62-258-29-53-57-90 57-27 94-37 74-16 146-16 20 0 20-21V23q0-23-20-23-116 0-207 45-84 39-164 119-100-75-246-119-150-45-344-45-167 0-410 45l-67 12q-7-51-29-110-60-184-206-285-147-102-365-102-254 0-390 146Q61-146 61 131q0 40 1 60 2 31 6 59 5 29 6 49t9 50q5 20 10 45 4 20 13 47l15 45q1 3 5.5 19.5T136 536l16 48h215q-91-232-91-422 0-165 80-266t248-101q379 0 379 408 0 46-1 71-2 38-6 87-1 15-2.5 29.5t-3 29.5-2.5 21q-2 22-14 103-4 25-8.5 58.5T940 645q-1 5-7 46.5T921 770q-18 113-20 131zm492-655q133-10 247-10 285 0 461 102t176 264q0 104-72 173t-180 69q-107 0-234-72t-318-240q-144-129-275-253v-7q104-19 195-26z"/><glyph glyph-name="uniFEBB" unicode="ص" horiz-adv-x="2050" d="M303 758h205q-28-255-47-350-5-31-15-68l39-14 56-17q177 221 309 365 216 230 369 319 151 88 309 88 188 0 314-127t126-317q0-285-231-461Q1505 0 1128 0 728 0 436 111l-90 34q-39-36-76-63Q140 0 0 0q-20 0-20 23v192q0 21 20 21 106 0 163 35 58 35 85 116 37 109 55 371zm547-508q99-14 254-14 286 0 461 102 176 102 176 264 0 103-73 173-72 69-179 69-119 0-241-84-124-86-302-289-56-62-182-211 60-9 86-10z"/><glyph glyph-name="uniFEBC" unicode="ص" horiz-adv-x="2099" arabic-form="medial" d="M303 758h205q-28-255-47-350-5-31-15-68l39-14 56-17q177 221 309 365 216 230 369 319 151 88 309 88 188 0 314-127t126-317q0-285-231-461Q1505 0 1128 0 728 0 436 111l-90 34q-39-36-76-63Q140 0 0 0q-20 0-20 23v192q0 21 20 21 106 0 163 35 58 35 85 116 37 109 55 371zm547-508q99-14 254-14 286 0 461 102 176 102 176 264 0 103-73 173-72 69-179 69-119 0-241-84-124-86-302-289-56-62-182-211 60-9 86-10zm850-55 102 129q133-88 297-88 21 0 21-21V23q0-23-21-23-216 0-399 195z"/><glyph glyph-name="uniFEBE" unicode="ض" horiz-adv-x="2625" arabic-form="final" d="M901 901h225q29-191 52-375l2-14q119 120 215 213 203 191 357 273 155 83 312 83 189 0 315-127t126-317q0-140-62-258-29-53-57-90 57-27 94-37 74-16 146-16 20 0 20-21V23q0-23-20-23-116 0-207 45-84 39-164 119-100-75-246-119-150-45-344-45-167 0-410 45l-67 12q-7-51-29-110-60-184-206-285-147-102-365-102-254 0-390 146Q61-146 61 131q0 40 1 60 2 31 6 59 5 29 6 49t9 50q5 20 10 45 4 20 13 47l15 45q1 3 5.5 19.5T136 536l16 48h215q-91-232-91-422 0-165 80-266t248-101q379 0 379 408 0 46-1 71-2 38-6 87-1 15-2.5 29.5t-3 29.5-2.5 21q-2 22-14 103-4 25-8.5 58.5T940 645q-1 5-7 46.5T921 770q-18 113-20 131zm492-655q133-10 247-10 285 0 461 102t176 264q0 104-72 173t-180 69q-107 0-234-72t-318-240q-144-129-275-253v-7q104-19 195-26zm-50 1048 181 181 182-181-180-180z"/><glyph glyph-name="uniFEBF" unicode="ض" horiz-adv-x="2050" d="M303 758h205q-28-255-47-350-5-31-15-68l39-14 56-17q177 221 309 365 216 230 369 319 151 88 309 88 188 0 314-127t126-317q0-285-231-461Q1505 0 1128 0 728 0 436 111l-90 34q-39-36-76-63Q140 0 0 0q-20 0-20 23v192q0 21 20 21 106 0 163 35 58 35 85 116 37 109 55 371zm547-508q99-14 254-14 286 0 461 102 176 102 176 264 0 103-73 173-72 69-179 69-119 0-241-84-124-86-302-289-56-62-182-211 60-9 86-10zm-68 1032 181 180 182-180-180-180z"/><glyph glyph-name="uniFEC0" unicode="ض" horiz-adv-x="2099" arabic-form="medial" d="M303 758h205q-28-255-47-350-5-31-15-68l39-14 56-17q177 221 309 365 216 230 369 319 151 88 309 88 188 0 314-127t126-317q0-285-231-461Q1505 0 1128 0 728 0 436 111l-90 34q-39-36-76-63Q140 0 0 0q-20 0-20 23v192q0 21 20 21 106 0 163 35 58 35 85 116 37 109 55 371zm547-508q99-14 254-14 286 0 461 102 176 102 176 264 0 103-73 173-72 69-179 69-119 0-241-84-124-86-302-289-56-62-182-211 60-9 86-10zm850-55 102 129q133-88 297-88 21 0 21-21V23q0-23-21-23-216 0-399 195zM782 1282l181 180 182-180-180-180z"/><glyph glyph-name="uniFEC2" unicode="ط" horiz-adv-x="1812" arabic-form="final" d="M340 1485h225V993q0-138-28-291l-25-124 80 90q218 239 359 326t298 87q189 0 315-127t126-317q0-285-232-461T850 0Q371 0 20 88v225q133-29 232-41l88 105v1108zM825 236q285 0 461 102t176 264q0 104-72 173t-180 69q-114 0-224-80-105-77-298-289L483 248q168-12 342-12zm588-41 103 129q133-88 296-88 21 0 21-21V23q0-23-21-23-216 0-399 195z"/><glyph glyph-name="uniFEC3" unicode="ط" horiz-adv-x="1622" d="M211 1485h225V993q0-138-28-291-16-88-27-133l51 62q210 249 364 350 152 100 304 100 188 0 314-127t126-317q0-285-231-461Q1077 0 700 0H0q-20 0-20 23v192q0 21 20 21h121l90 116v1133zM342 236h334q285 0 461 102t176 264q0 103-73 173-72 69-179 69-110 0-225-89-116-90-312-313z"/><glyph glyph-name="uniFEC4" unicode="ط" horiz-adv-x="1671" arabic-form="medial" d="M211 1485h225V993q0-138-28-291-16-88-27-133l51 62q210 249 364 350 152 100 304 100 188 0 314-127t126-317q0-285-231-461Q1077 0 700 0H0q-20 0-20 23v192q0 21 20 21h121l90 116v1133zM342 236h334q285 0 461 102t176 264q0 103-73 173-72 69-179 69-110 0-225-89-116-90-312-313zm930-41 102 129q133-88 297-88 21 0 21-21V23q0-23-21-23-216 0-399 195z"/><glyph glyph-name="uniFEC6" unicode="ظ" horiz-adv-x="1812" arabic-form="final" d="M340 1485h225V993q0-138-28-291l-25-124 80 90q218 239 359 326t298 87q189 0 315-127t126-317q0-285-232-461T850 0Q371 0 20 88v225q133-29 232-41l88 105v1108zM825 236q285 0 461 102t176 264q0 104-72 173t-180 69q-114 0-224-80-105-77-298-289L483 248q168-12 342-12zm588-41 103 129q133-88 296-88 21 0 21-21V23q0-23-21-23-216 0-399 195zM713 1294l180 181 182-181-180-180z"/><glyph glyph-name="uniFEC7" unicode="ظ" horiz-adv-x="1622" d="M211 1485h225V993q0-138-28-291-16-88-27-133l51 62q210 249 364 350 152 100 304 100 188 0 314-127t126-317q0-285-231-461Q1077 0 700 0H0q-20 0-20 23v192q0 21 20 21h121l90 116v1133zM342 236h334q285 0 461 102t176 264q0 103-73 173-72 69-179 69-110 0-225-89-116-90-312-313zm219 1058 180 181 183-181-181-180z"/><glyph glyph-name="uniFEC8" unicode="ظ" horiz-adv-x="1671" arabic-form="medial" d="M211 1485h225V993q0-138-28-291-16-88-27-133l51 62q210 249 364 350 152 100 304 100 188 0 314-127t126-317q0-285-231-461Q1077 0 700 0H0q-20 0-20 23v192q0 21 20 21h121l90 116v1133zM342 236h334q285 0 461 102t176 264q0 103-73 173-72 69-179 69-110 0-225-89-116-90-312-313zm930-41 102 129q133-88 297-88 21 0 21-21V23q0-23-21-23-216 0-399 195zM561 1294l180 181 183-181-181-180z"/><glyph glyph-name="uniFECA" unicode="ع" horiz-adv-x="1210" arabic-form="final" d="M647 1102q196 0 329-109 132-108 132-266 0-213-254-393l-43-29 66-24q137-45 333-45 21 0 21-21V23q0-23-21-23-151 0-269 31-109 29-230 100l-88 57-62-36Q440 80 374 12q-65-67-65-141 0-96 95-147 96-52 274-52 220 0 473 78v-217q-291-96-483-96-584 0-584 401 0 220 287 412l80 53-68 111Q283 572 203 659q-16 20-64 68l-78-39v217q125 89 284 143t302 54zm-22-688 34 22q220 136 220 236 0 86-68 139t-182 53q-121 0-267-49l-28-8q146-146 291-393z"/><glyph glyph-name="uniFECB" unicode="ع" horiz-adv-x="1112" d="m1071 322-47-234Q535 0 0 0q-20 0-20 23v192q0 21 20 21 152 0 256 2Q88 362 88 569q0 190 134 318 133 127 337 127 136 0 354-82V717q-191 63-327 63-123 0-198-60t-75-163q0-114 106-208 105-93 292-81l-4-2q20 2 102 15 90 11 262 41z"/><glyph glyph-name="uniFECC" unicode="ع" horiz-adv-x="1208" arabic-form="medial" d="M645 1014q196 0 329-109 132-108 132-266 0-208-170-367l-23-18q11-2 62-8 86-10 233-10 21 0 21-21V23q0-23-21-23-219 0-379 43-82 23-161 53l-76-26Q377 0 0 0q-20 1-20 23v192q0 21 20 21 148 0 262 6 68 5 158 16-19 33-43 72-89 139-182 243-24 30-60 64-37-17-76-37v217q123 87 284 142 162 55 302 55zm-10-723 39 18q89 51 147 126 56 73 56 149 0 86-68 139t-182 53q-121 0-267-49l-28-8q65-65 135-162 81-116 168-266z"/><glyph glyph-name="uniFECE" unicode="غ" horiz-adv-x="1210" arabic-form="final" d="M647 1102q196 0 329-109 132-108 132-266 0-213-254-393l-43-29 66-24q137-45 333-45 21 0 21-21V23q0-23-21-23-151 0-269 31-109 29-230 100l-88 57-62-36Q440 80 374 12q-65-67-65-141 0-96 95-147 96-52 274-52 220 0 473 78v-217q-291-96-483-96-584 0-584 401 0 220 287 412l80 53-68 111Q283 572 203 659q-16 20-64 68l-78-39v217q125 89 284 143t302 54zm-22-688 34 22q220 136 220 236 0 86-68 139t-182 53q-121 0-267-49l-28-8q146-146 291-393zm-181 975 181 180 182-180-180-181z"/><glyph glyph-name="uniFECF" unicode="غ" horiz-adv-x="1112" d="m1071 322-47-234Q535 0 0 0q-20 0-20 23v192q0 21 20 21 152 0 256 2Q88 362 88 569q0 190 134 318 133 127 337 127 136 0 354-82V717q-191 63-327 63-123 0-198-60t-75-163q0-114 106-208 105-93 292-81l-4-2q20 2 102 15 90 11 262 41zm-723 976 180 181 183-181-181-180z"/><glyph glyph-name="uniFED0" unicode="غ" horiz-adv-x="1208" arabic-form="medial" d="M645 1014q196 0 329-109 132-108 132-266 0-208-170-367l-23-18q11-2 62-8 86-10 233-10 21 0 21-21V23q0-23-21-23-219 0-379 43-82 23-161 53l-76-26Q377 0 0 0q-20 1-20 23v192q0 21 20 21 148 0 262 6 68 5 158 16-19 33-43 72-89 139-182 243-24 30-60 64-37-17-76-37v217q123 87 284 142 162 55 302 55zm-10-723 39 18q89 51 147 126 56 73 56 149 0 86-68 139t-182 53q-121 0-267-49l-28-8q65-65 135-162 81-116 168-266zM426 1298l180 181 182-181-180-180z"/><glyph glyph-name="uniFED2" unicode="ف" horiz-adv-x="1951" arabic-form="final" d="M1407 1014q195 0 324-130t129-335q0-128-93-248-24-33-47-53l35-4q70-8 197-8 20 0 20-21V23q0-23-20-23-174 0-369 39-84 16-156 37-2-2-6-2Q1167 0 858 0q-20 1-20 23v192q0 21 20 21 131 0 209 8 10 0 18 2-33 30-49 51-88 106-88 252 0 189 132 327t327 138zm170-658q55 73 55 168 0 114-63 183t-168 69q-101 0-164-67t-63-177q0-96 57-172 54-72 164-110 130 33 182 106zM100 795h215q-28-147-28-238 0-175 79-248t291-73h234q20 0 20-21V23q0-23-20-23H606Q345 0 205 130 63 261 63 498q0 127 37 297zm1121 499 180 181 182-181-180-180z"/><glyph glyph-name="uniFED3" unicode="ف" horiz-adv-x="1069" d="M541 1014q191 0 318-135 128-136 128-336 0-247-145-395T457 0H0q-20 1-20 23v192q0 21 20 21h201q0 1-2 5-1 2-4 5-2 2-2 4-17 29-37 55-86 131-86 266 0 187 135 315 136 128 336 128zM428 236h35q139 0 217 75 80 77 80 211 0 110-65 183-64 71-167 71-104 0-169-69-64-68-64-170 0-84 67-185 43-69 56-94 9-12 10-22zm-68 1058 181 181 182-181-180-180z"/><glyph glyph-name="uniFED4" unicode="ف" horiz-adv-x="1093" arabic-form="medial" d="M549 1014q194 0 323-130t129-335q0-129-92-248-2-2-47-53l35-4q70-8 197-8 20 0 20-21V23q0-23-20-23-174 0-369 39-84 16-156 37-2-2-6-2Q309 0 0 0q-20 1-20 23v192q0 21 20 21 131 0 209 8 10 0 18 2-33 30-49 51-88 106-88 252 0 189 132 327t327 138zm170-658q55 73 55 168 0 114-63 183t-168 69q-101 0-164-67-64-69-64-177 0-94 58-172 54-72 164-110 130 33 182 106zm-346 938 180 181 182-181-180-180z"/><glyph glyph-name="uniFED6" unicode="ق" horiz-adv-x="1574" arabic-form="final" d="M1012 993q188 0 305-122 117-121 129-345l4-77q4-91 4-201v-12h121q20 0 20-21V23q0-23-20-23h-125q-11-70-37-125-68-150-244-233-173-82-438-82-350 0-509 140Q61-159 61 131q0 40 1 60 2 31 6 59 5 29 6 49t9 50q5 20 10 45 4 20 13 47l15 45q1 3 5.5 19.5T136 536l16 48h215q-91-232-91-422 0-196 115-284 114-87 387-87 169 0 281 47 110 46 151 125l19 37h-146Q835 0 687 130T539 483q0 221 134 366 133 144 339 144zm219-678-12 193q-21 250-213 250-104 0-173-75t-69-191q0-256 350-256h121q0 35-4 79zm-559 988 180 180 156-152 153 152 182-180-180-181-155 152-154-152z"/><glyph glyph-name="uniFED7" unicode="ق" horiz-adv-x="1069" d="M541 1014q191 0 318-135 128-136 128-336 0-247-145-395T457 0H0q-20 1-20 23v192q0 21 20 21h201q0 1-2 5-1 2-4 5-2 2-2 4-17 29-37 55-86 131-86 266 0 187 135 315 136 128 336 128zM428 236h35q139 0 217 75 80 77 80 211 0 110-65 183-64 71-167 71-104 0-169-69-64-68-64-170 0-84 67-185 43-69 56-94 9-12 10-22zM207 1303l180 180 156-152 153 152 183-180-181-181-155 152-154-152z"/><glyph glyph-name="uniFED8" unicode="ق" horiz-adv-x="1093" arabic-form="medial" d="M549 1014q194 0 323-130t129-335q0-129-92-248-2-2-47-53l35-4q70-8 197-8 20 0 20-21V23q0-23-20-23-174 0-369 39-84 16-156 37-2-2-6-2Q309 0 0 0q-20 1-20 23v192q0 21 20 21 131 0 209 8 10 0 18 2-33 30-49 51-88 106-88 252 0 189 132 327t327 138zm170-658q55 73 55 168 0 114-63 183t-168 69q-101 0-164-67-64-69-64-177 0-94 58-172 54-72 164-110 130 33 182 106zm-512 947 180 180 156-152 153 152 183-180-181-181-155 152-154-152z"/><glyph glyph-name="uniFEDA" unicode="ك" horiz-adv-x="1806" arabic-form="final" d="M98 795h215q-28-147-28-238 0-175 79-248t291-73h217q195 0 324 26 107 23 176 53-4 44-4 76v1094h225V408q0-91 47-132 46-40 166-40 21 0 21-21V23q0-23-21-23-207 0-327 109-24 22-35 34-98-66-221-100Q1075 0 872 0H604Q343 0 203 130 61 261 61 498q0 127 37 297zm842 92h193l-56-185H807q-108 0-217-34v178q79 27 112 33l-2 2q-41 47-41 114 0 90 64 152 62 61 176 61 69 0 152-43V993q-85 29-148 29-41 0-66-18-26-18-26-48 0-69 129-69z"/><glyph glyph-name="uniFEDB" unicode="ك" horiz-adv-x="1183" d="M784 1628h328v-10l-711-596 328-143q393-175 393-457 0-195-146-308Q829 0 578 0H0q-20 0-20 23v192q0 21 20 21h594q135 0 219 48t84 124q0 75-66 137-67 62-219 131L111 897v158z"/><glyph glyph-name="uniFEDC" unicode="ك" horiz-adv-x="1320" arabic-form="medial" d="M784 1628h328v-10l-711-596 328-143q393-175 393-457 0-195-146-308Q829 0 578 0H0q-20 0-20 23v192q0 21 20 21h594q135 0 219 48t84 124q0 75-66 137-67 62-219 131L111 897v158zM922 195l102 129q133-88 297-88 20 0 20-21V23q0-23-20-23-216 0-399 195z"/><glyph glyph-name="uniFEDE" unicode="ل" horiz-adv-x="1413" arabic-form="final" d="M975 1485h225V399q0-163 213-163 21 0 21-21V23q0-23-21-23-139 0-221 76-7-64-31-129-57-182-202-285-144-102-361-102-255 0-395 146Q61-146 61 131q0 40 1 60 2 31 6 59 5 29 6 49t9 50q5 20 10 45 4 20 13 47l15 45q1 3 5.5 19.5T136 536l16 48h215q-91-232-91-422 0-163 84-265t254-102q189 0 275 101t86 307v1282z"/><glyph glyph-name="uniFEDF" unicode="ل" horiz-adv-x="602" d="M213 1485h225V391q0-179-113-285T0 0q-20 0-20 23v192q0 21 20 21 120 0 166 40 47 41 47 132v1077z"/><glyph glyph-name="uniFEE0" unicode="ل" horiz-adv-x="651" arabic-form="medial" d="M213 1485h225V408q0-91 47-132 46-40 166-40 21 0 21-21V23q0-23-21-23-207 0-327 109l-17 14-4-4Q184 0 0 0q-20 0-20 23v192q0 21 20 21 84 0 150 24 43 16 71 37-8 43-8 94v1094z"/><glyph glyph-name="uniFEE2" unicode="م" horiz-adv-x="1353" arabic-form="final" d="M797 965q258 0 342-312l47-176q38-137 72-187 36-54 96-54 20 0 20-21V23q0-23-20-23-153 0-248 125-2 3-9.5 15t-13.5 21q-4 6-8 13t-6.5 10.5-3.5 5.5L1020 0Q626 0 446 129q-36 26-59 55-100-27-100-153 0-160 61-594H123Q61-121 61 47q0 123 63 217 62 93 165 137 27 11 41 15 1 26 12 61 40 186 163 338 121 150 292 150zm237-705q-33 91-53 162l-31 102q-57 203-172 203-78 0-152-98-76-100-116-271 156-90 365-114 70-8 169-8-1 4-10 24z"/><glyph glyph-name="uniFEE3" unicode="م" horiz-adv-x="1132" d="M649 965q377 0 422-727L903-27Q705-27 512 8q-171 35-297 94l-4-6Q128 0 0 0q-20 1-20 23v192q0 21 20 21 59 0 93 56t112 265q78 207 181 307 104 101 263 101zm-63-734q130-20 272-20-12 249-70 379-62 137-153 137-84 0-141-68-58-69-125-237l-45-113q122-56 262-78z"/><glyph glyph-name="uniFEE4" unicode="م" horiz-adv-x="1148" arabic-form="medial" d="M592 965q258 0 342-312l47-176q38-134 73-187 36-54 95-54 20 0 20-21V23q0-23-20-23-153 0-248 125-2 3-9 15t-13 21q-14 22-19 29L815 0Q646 0 487 29q-126 24-211 75l-59-43Q128 0 0 0q-20 0-20 23v192q0 21 20 21 82 0 139 20-16 48-16 100 0 87 33 189 33 103 90 197 58 96 149 159 93 64 197 64zm237-705q-33 91-53 162l-31 102q-57 203-172 203-78 0-152-98-76-100-116-271 156-90 365-114 70-8 170-8 0 2-2 5.5t-4.5 9-4.5 9.5z"/><glyph glyph-name="uniFEE6" unicode="ن" horiz-adv-x="1404" arabic-form="final" d="M901 901h225q29-191 52-375 11-60 12-116l8-52q11-68 58-95 48-27 149-27 20 0 20-21V23q0-23-20-23-137 0-197 72-7 7-14 22-7-68-35-147-60-184-206-285-147-102-365-102-254 0-390 146Q61-146 61 131q0 40 1 60 2 31 6 59 5 29 6 49t9 50q5 20 10 45 4 20 13 47l15 45q1 3 5.5 19.5T136 536l16 48h215q-91-232-91-422 0-165 80-266t248-101q379 0 379 408 0 46-1 71-2 38-6 87-1 15-2.5 29.5t-3 29.5-2.5 21q-2 22-14 103-4 25-8.5 58.5T940 645q-1 5-7 46.5T921 770q-18 113-20 131zm-473 62 180 180 183-180-181-181z"/><glyph glyph-name="uniFEE7" unicode="ن" horiz-adv-x="540" d="M152 993h225q61-434 61-602 0-179-114-285Q211 0 0 0q-20 0-20 23v192q0 21 20 21 120 0 166 40 47 41 47 132 0 151-61 585zm-78 301 180 181 182-181-180-180z"/><glyph glyph-name="uniFEE8" unicode="ن" horiz-adv-x="614" arabic-form="medial" d="M231 758h209q0-190-22-332-11-69-35-141 63-27 86-33 74-16 145-16 21 0 21-21V23q0-23-21-23-114 0-206 45-52 27-113 74Q188 0 0 0q-20 0-20 23v192q0 21 20 21 138 0 184 102 47 109 47 420zm-86 321 181 181 182-181-180-180z"/><glyph glyph-name="uniFEE9" unicode="ه" horiz-adv-x="1714" arabic-form="isolated" d="M643 1157v236q461 0 725-207t264-574q0-167-98-434L1315-27q-258 0-516 88l-56 19-32-12Q498 0 297 0 169 0 20 47v225q138-36 267-36 53 0 98 6l-51 55q-88 106-88 252 0 189 132 327t327 138q194 0 323-130t129-335q0-129-92-248-37-45-59-65 62-10 88-13 102-12 221-12 90 211 90 389 0 254-204 406-203 151-558 151zm231-801q56 74 56 168 0 113-64 183-63 69-168 69-100 0-163-67-64-69-64-177 0-96 57-172 55-72 166-110 128 35 180 106z"/><glyph glyph-name="uniFEEA" unicode="ه" horiz-adv-x="1095" arabic-form="final" d="M713 1102h225V395q0-79 35-120 33-39 123-39 20 0 20-21V23q0-23-20-23-99 0-170 31-65 28-111 78-80-47-141-72Q591 0 487 0 295 0 178 111T61 403q0 143 86 280 85 136 281 228 127 55 285 78v113zM422 666q-135-96-135-244 0-92 53-140 54-49 152-49 78 0 141 15 40 7 96 31-16 70-16 147v346q-181-27-291-106z"/><glyph glyph-name="uniFEEB" unicode="ه" horiz-adv-x="1558" d="M487 1157v236q461 0 725-207 265-208 265-574 0-164-99-434L1159-27q-258 0-516 88l-57 19-23-6Q309 0 0 0q-20 1-20 23v192q0 21 20 21 131 0 209 8 10 0 18 2-33 30-49 51-88 106-88 252 0 189 132 327t327 138q194 0 323-130t129-335q0-127-92-246-34-45-59-67 52-12 88-13 100-12 221-12 90 211 90 389 0 255-203 406t-559 151zm232-801q55 73 55 168 0 114-63 183t-168 69q-101 0-164-67-64-69-64-177 0-94 58-172 54-72 164-110 130 33 182 106z"/><glyph glyph-name="uniFEEC" unicode="ه" horiz-adv-x="1132" arabic-form="medial" d="M537 1167h178q307-268 307-577 0-152-80-264-21-32-51-64 28-7 74-14 84-12 168-12 20 0 20-23V20q0-20-20-20-50 0-93 8l-88 25q40-46 56-84 20-41 20-88 0-136-97-218-98-83-259-83-190 0-327 102T147-53L131 2Q73 0 0 0q-20 0-20 23v192q0 21 20 21 63 0 109 2 5 140 28 251 91 425 400 678zM322 254l38 8q437 77 437 322 0 133-66 235-60 90-133 150-50-43-90-99-87-116-136-274-50-161-50-326v-16zm79-219-41-8q23-59 60-109 96-125 242-125 161 0 161 111 0 63-32 121-28 54-78 110Q586 70 401 35z"/><glyph glyph-name="uniFEEE" unicode="و" horiz-adv-x="1118" arabic-form="final" d="M555 993q188 0 305-122 117-121 129-345 8-166 8-282v-8h121q21 0 21-21V23q0-23-21-23H997q-7-61-30-121-55-148-235-234-177-85-478-85v215q266 0 397 84Q746-79 770 0H627Q378 0 230 130T82 483q0 221 134 366 134 144 339 144zm223-757-4 81q0 9-7 102-5 70-5 89-21 250-213 250-104 0-173-75t-69-191q0-256 350-256h121z"/><glyph glyph-name="uniFEF0" unicode="ى" horiz-adv-x="1384" arabic-form="final" d="M983 70v225q271-59 401-59 21 0 21-21V23q0-23-21-23h-6q-36-89-84-150-214-290-665-290-257 0-412 149Q61-141 61 131q0 40 1 60 2 31 6 59 5 29 6 49t9 50q5 20 10 45 4 20 13 47l15 45q1 3 5.5 19.5T136 536l16 48h215q-91-232-91-422 0-367 406-367 203 0 348 86 90 52 146 139-16 6-37 10-12 2-31 7-32 10-125 33z"/><glyph glyph-name="uniFEF2" unicode="ي" horiz-adv-x="1384" arabic-form="final" d="M983 70v225q271-59 401-59 21 0 21-21V23q0-23-21-23h-6q-36-89-84-150-214-290-665-290-257 0-412 149Q61-141 61 131q0 40 1 60 2 31 6 59 5 29 6 49t9 50q5 20 10 45 4 20 13 47l15 45q1 3 5.5 19.5T136 536l16 48h215q-91-232-91-422 0-367 406-367 203 0 348 86 90 52 146 139-16 6-37 10-12 2-31 7-32 10-125 33zM459-713l180 181 156-152 153 152 182-181-180-180-155 152-154-152z"/><glyph glyph-name="uniFEF3" unicode="ي" horiz-adv-x="694" d="M315 993h226q61-434 61-602 0-178-115-285Q374 0 164 0H0q-20 0-20 23v192q0 21 20 21h164q120 0 166 40 47 41 47 132 0 143-62 585zM-43-313l180 180 156-152 153 152 183-180-180-181-156 152-154-152z"/><glyph glyph-name="uniFEF4" unicode="ي" horiz-adv-x="757" arabic-form="medial" d="M297 758h209q0-187-14-307-11-79-25-134 59-34 131-55 79-26 160-26 20 0 20-21V23q0-23-20-23-113 0-226 55-69 37-143 99-46-64-117-101Q164 0 0 0q-20 0-20 23v192q0 21 20 21 185 0 244 98 35 58 44 150 9 93 9 274zM4-315l180 180 156-152 154 152 182-180-180-181-156 152-154-152z"/><glyph glyph-name=".notdef" horiz-adv-x="1024" d="M0 0v1485h1024V0H0zm489 741L39 1425V59zm43 0L985 59v1366zm-20-32L68 39h886zM68 1446l444-672 442 672H68z"/><glyph glyph-name=".null"/><glyph glyph-name="nonmarkingreturn" horiz-adv-x="681"/><glyph glyph-name="space" horiz-adv-x="471"/><glyph glyph-name="exclam" unicode="!" horiz-adv-x="491" d="M328 436H168l-45 641v408h246v-408zM385 0H106v279h279V0z"/><glyph glyph-name="quotedbl" unicode="&quot;" horiz-adv-x="669" d="M37 1485h262l-41-527H78zm334 0h262l-41-527H412z"/><glyph glyph-name="numbersign" unicode="#" horiz-adv-x="1437" d="M123 1126h289l49 359h213l-49-359h290l50 359h215l-50-359h279l-25-192h-280l-47-338h278l-22-190h-283L975 0H760l55 406H524L469 0H256l55 406H29l24 190h285l47 338H102zm475-192-47-338h291l47 338H598z"/><glyph glyph-name="dollar" unicode="$" horiz-adv-x="1249" d="M561 1659h115v-150q218-23 345-151 128-130 128-332H907q-1 130-65 206-63 75-166 93V862l22-4q95-23 170-52 70-27 148-77 79-50 119-128 41-80 41-183 0-200-144-315Q887-13 676-25v-172H561v172Q340-8 203 133 66 275 70 485h241q0-145 72-227 71-81 178-96v502l-65 16Q98 782 98 1104q0 182 136 287 134 103 327 118v150zM940 397q0 99-62 148-63 50-202 90V160q113 5 188 66 76 63 76 171zm-606 715q0-170 213-219l14-4v440q-96-5-161-61-66-57-66-156z"/><glyph glyph-name="percent" unicode="%" horiz-adv-x="2119" d="M416 635q-170 0-260 117t-90 317q0 202 90 316t260 114q167 0 258-115 90-114 90-315 0-200-90-317T416 635zm0 131q166 0 166 303 0 297-166 297-168 0-168-297 0-303 168-303zM676 0H418l1024 1485h258zm1030-14q-171 0-260 116-90 117-90 318 0 202 90 316t260 114q167 0 258-115 90-114 90-315t-90-318q-89-116-258-116zm0 131q166 0 166 303 0 297-166 297-168 0-168-297 0-303 168-303z"/><glyph glyph-name="ampersand" unicode="&amp;" horiz-adv-x="1425" d="M530-27Q309-27 172 98T35 412q0 160 99 269 98 109 261 169-157 184-157 338 0 147 115 235t298 88q162 0 280-79t118-248q0-127-79-225T762 801l237-256q48 132 58 276h246q-27-244-144-450L1501 0h-334l-157 172Q811-27 530-27zm43 199q168 0 299 152L524 707q-235-88-235-281 0-116 76-185 77-69 208-69zm-81 1022q0-99 143-254l2-2q180 80 180 238 0 71-46 111t-118 40q-67 0-114-36t-47-97z"/><glyph glyph-name="quotesingle" unicode="'" horiz-adv-x="335" d="M37 1485h262l-41-527H78z"/><glyph glyph-name="parenleft" unicode="(" horiz-adv-x="528" d="M49 553q0 278 85 520 86 245 198 412h217q-248-410-248-932 0-530 248-934H332Q220-214 134 31 49 273 49 553z"/><glyph glyph-name="parenright" unicode=")" horiz-adv-x="526" d="M477 553q0-282-85-525-87-249-197-409H-20Q227 22 227 553q0 523-247 932h215q110-160 197-409 85-243 85-523z"/><glyph glyph-name="asterisk" unicode="*" horiz-adv-x="741" d="M440 1485v-228l213 82 60-151-217-76 129-182-125-96-142 188-127-188-139 94 131 182-215 78 58 151 210-82v228h164z"/><glyph glyph-name="plus" unicode="+" horiz-adv-x="1388" d="M809 0H584v438H131v219h453v441h225V657h451V438H809V0z"/><glyph glyph-name="comma" unicode="," horiz-adv-x="491" d="M106 0v279h279V-20L242-324H96L231 0H106z"/><glyph glyph-name="hyphen" unicode="-" horiz-adv-x="864" d="M766 442H98v220h668V442z"/><glyph glyph-name="period" unicode="." horiz-adv-x="491" d="M385 0H106v279h279V0z"/><glyph glyph-name="slash" unicode="/" horiz-adv-x="790" d="M223 0H-10l577 1485h234z"/><glyph glyph-name="zero" unicode="0" horiz-adv-x="1343" d="M672 162q162 0 250 150 88 149 88 431 0 283-88 432-88 150-250 150-160 0-248-150-88-149-88-432 0-282 88-431 88-150 248-150zm0-189q-287 0-439 209Q82 390 82 743q0 352 151 560t439 208q290 0 440-207 152-209 152-561 0-353-152-562Q961-27 672-27z"/><glyph glyph-name="one" unicode="1" horiz-adv-x="729" d="M575 0H332v1130H0v168q124 5 184 16 66 13 119 51 54 39 92 120h180V0z"/><glyph glyph-name="two" unicode="2" horiz-adv-x="1177" d="M610 1511q214 0 348-104 136-106 136-289 0-215-190-434-188-217-554-471h778V0H47v201q417 325 604 524 189 201 189 373 0 107-64 168-62 59-176 59-118 0-198-77-78-75-78-238H80q-4 225 141 363 146 138 389 138z"/><glyph glyph-name="three" unicode="3" horiz-adv-x="1230" d="M598 162q134 0 217 68 84 69 84 188 0 256-371 256h-71v203h61q344 0 344 229 0 106-74 163-72 56-184 56-134 0-210-75-77-75-93-208H63q16 214 164 342 146 127 391 127 208 0 351-98t143-293q0-108-58-196T895 786q126-46 191-144t65-218q0-216-160-334Q832-27 594-27q-246 0-391 141Q57 256 45 461h238q18-130 98-215 79-84 217-84z"/><glyph glyph-name="four" unicode="4" horiz-adv-x="1269" d="M750 1167 283 559h467v608zm505-608V348H993V0H750v348H16v203l736 934h241V559h262z"/><glyph glyph-name="five" unicode="5" horiz-adv-x="1236" d="M610 162q128 0 210 85 83 86 83 230 0 155-89 241-88 85-210 85-99 0-172-44-72-43-96-112l-230 12 99 826h889v-215H406l-48-373q115 92 308 92 202 0 346-135 143-134 143-373T997 108Q838-27 606-27q-245 0-387 139Q78 250 66 455h235q39-293 309-293z"/><glyph glyph-name="six" unicode="6" horiz-adv-x="1263" d="M348 477q0-144 80-230 79-85 209-85 129 0 210 85t81 230q0 146-80 232t-209 86-210-86q-81-85-81-232zm305 848q-148 0-234-138-84-136-89-370 117 170 356 170 209 0 351-139 143-140 143-367 0-219-151-364Q879-27 639-27q-281 0-419 194Q82 360 82 698q0 167 32 310 32 142 99 257t184 181q115 65 275 65 220 0 340-116 121-117 139-283H903q-12 107-79 160t-171 53z"/><glyph glyph-name="seven" unicode="7" horiz-adv-x="1019" d="M-6 1270v215h1067v-215Q765 988 618 692 470 394 446 0H170q37 722 633 1270H-6z"/><glyph glyph-name="eight" unicode="8" horiz-adv-x="1298" d="M647 1511q230 0 369-106t139-275q0-226-190-337 235-123 235-371 0-213-154-331T647-27Q403-27 249 91 94 210 94 422q0 252 236 371-95 53-143 144t-48 193q0 168 139 275 137 106 369 106zm0-813q-138 0-218-71-81-72-81-197 0-128 81-198 80-70 218-70t218 70q81 70 81 198 0 125-81 197-80 71-218 71zm266 402q0 107-71 166t-195 59q-123 0-195-60-73-61-73-165 0-106 74-171t194-65q122 0 195 65 71 64 71 171z"/><glyph glyph-name="nine" unicode="9" horiz-adv-x="1247" d="M899 1008q0 146-81 231-81 86-208 86-132 0-211-85-80-86-80-232t80-232 209-86q126 0 208 87 83 88 83 231zM594 162q148 0 234 137 85 136 90 369-117-170-357-170-210 0-351 140Q68 779 68 1006q0 220 150 363 149 142 390 142 281 0 419-193 138-194 138-532 0-135-19-249-19-115-65-222-44-103-111-179T802 17Q699-27 573-27 358-27 236 90 114 208 96 373h248q12-105 79-158t171-53z"/><glyph glyph-name="colon" unicode=":" horiz-adv-x="491" d="M385 823H106v279h279V823zm0-823H106v279h279V0z"/><glyph glyph-name="semicolon" unicode=";" horiz-adv-x="499" d="M385 823H106v279h279V823zM106 0v279h279V-20L242-324H96L231 0H106z"/><glyph glyph-name="less" unicode="&lt;" horiz-adv-x="1388" d="m158 649 1054 457V860L438 547l774-311V-8L158 444v205z"/><glyph glyph-name="equal" unicode="=" horiz-adv-x="1388" d="M1212 651H176v221h1036V651zm0-424H176v219h1036V227z"/><glyph glyph-name="greater" unicode="&gt;" horiz-adv-x="1388" d="M1231 649V444L176-8v244l776 311-776 313v246z"/><glyph glyph-name="question" unicode="?" horiz-adv-x="1052" d="M551 1511q201 0 342-93t141-271q0-243-258-399-107-65-147-113-39-47-39-141v-64H346v70q0 136 54 215 53 78 178 153 101 61 153 121 53 62 53 144 0 84-68 133t-169 49q-135 0-209-74-73-73-78-203H18q0 212 150 343 149 130 383 130zM608 0H330v279h278V0z"/><glyph glyph-name="at" unicode="@" horiz-adv-x="1689" d="M1243 313q-84 0-143 49-60 49-72 140-99-183-299-183-139 0-229 95-90 94-90 276 0 190 116 330 117 141 305 141 175 0 238-155 0 3 2.5 21.5t4.5 34.5q4 41 9 64h146l-60-446q-8-43-8-82 0-137 94-137 83 0 139 98 56 97 56 264 0 251-156 384-157 134-413 134-281 0-459-180-178-179-178-452 0-264 155-423 156-161 410-161 206 0 389 90l57-141Q1049-27 811-27q-323 0-526 207Q82 388 82 715q0 329 231 549 232 221 574 221 203 0 363-68 158-67 259-218t101-368q0-235-110-377-110-141-257-141zm-407 691q-111 0-178-93-66-91-66-227 0-211 170-211 116 0 184 96 68 97 68 238 0 197-178 197z"/><glyph glyph-name="A" unicode="A" horiz-adv-x="1384" d="m0 0 553 1485h274L1384 0h-284L983 330H381L266 0H0zm680 1184L457 547h448z"/><glyph glyph-name="B" unicode="B" horiz-adv-x="1366" d="M150 0v1485h559q534 0 534-379 0-100-48-187t-118-131q223-100 223-348 0-224-153-332T745 0H150zm260 666V209h346q276 0 276 231 0 115-70 170-71 56-221 56H410zm0 610V864h323q246 0 246 213 0 96-67 148-66 51-179 51H410z"/><glyph glyph-name="C" unicode="C" horiz-adv-x="1486" d="M1167 494h250q-46-249-215-385T776-27q-321 0-504 210Q90 392 90 748q0 352 188 558 187 205 510 205 251 0 415-136 165-137 210-384h-250q-34 149-135 229-99 78-248 78-185 0-303-145-119-146-119-405 0-263 118-412 118-150 302-150 154 0 254 78t135 230z"/><glyph glyph-name="D" unicode="D" horiz-adv-x="1472" d="M1114 743q0 168-47 280t-135 164q-87 52-177 70-93 19-212 19H410V209h133q124 0 212 18 85 17 177 72 88 52 135 165 47 112 47 279zm-964 742h405q141 0 267-22 122-21 227-73 106-52 179-136 72-82 114-212 42-129 42-299 0-213-62-359-63-148-178-230T885 36 555 0H150v1485z"/><glyph glyph-name="E" unicode="E" horiz-adv-x="1259" d="M150 0v1485h1050v-217H410V870h747V655H410V219h790V0H150z"/><glyph glyph-name="F" unicode="F" horiz-adv-x="1187" d="M150 0v1485h1036v-217H410V870h731V655H410V0H150z"/><glyph glyph-name="G" unicode="G" horiz-adv-x="1564" d="M803 1511q251 0 415-130 166-131 212-367h-248q-38 138-138 211t-247 73q-197 0-318-142T358 748q0-268 118-414 119-148 319-148 71 0 137 18 70 19 126 54 59 37 97 107 37 68 37 163v29H813v219h621V0h-205l-8 178Q1085-27 766-27q-314 0-495 211T90 748q0 348 192 556 191 207 521 207z"/><glyph glyph-name="H" unicode="H" horiz-adv-x="1527" d="M1118 1485h260V0h-260v655H410V0H150v1485h260V870h708v615z"/><glyph glyph-name="I" unicode="I" horiz-adv-x="559" d="M410 1485V0H150v1485h260z"/><glyph glyph-name="J" unicode="J" horiz-adv-x="1189" d="M532-27q-241 0-375 143T23 502h258q0-155 64-235 64-81 187-81 120 0 184 81 64 80 64 235v983h260V502q0-244-133-386Q773-27 532-27z"/><glyph glyph-name="K" unicode="K" horiz-adv-x="1382" d="M410 1485V778l630 707h310L799 881 1401 0h-307L627 692 410 455V0H150v1485h260z"/><glyph glyph-name="L" unicode="L" horiz-adv-x="1157" d="M410 1485V219h747V0H150v1485h260z"/><glyph glyph-name="M" unicode="M" horiz-adv-x="1824" d="M1044 0H780L403 1202V0H150v1485h403L913 301l359 1184h403V0h-254v1202z"/><glyph glyph-name="N" unicode="N" horiz-adv-x="1527" d="M1378 0h-348L401 1186V0H150v1485h348l628-1186v1186h252V0z"/><glyph glyph-name="O" unicode="O" horiz-adv-x="1597" d="M358 743q0-263 124-409 125-148 317-148 191 0 316 148 124 146 124 409t-124 409-316 146q-193 0-317-146T358 743zm1149 0q0-347-192-558Q1123-27 799-27T283 185Q90 398 90 743t192 557q192 211 517 211t517-211q191-210 191-557z"/><glyph glyph-name="P" unicode="P" horiz-adv-x="1292" d="M150 1485h489q104 0 192-8 78-7 169-37 88-29 143-78t91-136 36-208q0-134-47-228-47-93-138-142-89-47-195-67-108-20-247-20H410V0H150v1485zm489-209H410V774h241q171 0 260 48 88 48 88 194 0 70-21 119-20 47-52 76-30 27-82 42-48 14-96 19-40 4-109 4z"/><glyph glyph-name="Q" unicode="Q" horiz-adv-x="1597" d="M1507 743q0-376-223-587l176-209-160-133-188 223Q975-27 799-27q-324 0-516 212Q90 398 90 743t192 557q192 211 517 211t517-211q191-210 191-557zm-1149 0q0-263 124-409 125-148 317-148 95 0 162 33L840 365l157 133 127-152q115 154 115 397 0 263-124 409t-316 146q-193 0-317-146T358 743z"/><glyph glyph-name="R" unicode="R" horiz-adv-x="1390" d="M1053 0 739 627q-32-2-77-2H410V0H150v1485h473q341 0 501-95t160-333q0-289-278-383L1346 0h-293zM659 1276H410V831h258q177 0 264 49 86 48 86 175 0 133-90 177-91 44-269 44z"/><glyph glyph-name="S" unicode="S" horiz-adv-x="1327" d="m702 639-180 35Q94 764 94 1094q0 195 169 306 170 111 392 111 233 0 385-109 154-110 197-333H985q-55 229-344 229-106 0-195-49-90-49-90-147 0-153 222-197l182-35q110-21 190-49 79-27 159-79 77-50 118-130t41-186q0-213-176-333T678-27q-265 0-433 138T53 492h256q69-306 381-306 138 0 228 60t90 164q0 102-85 153-88 52-221 76z"/><glyph glyph-name="T" unicode="T" horiz-adv-x="1214" d="M477 0v1268H10v217h1194v-217H737V0H477z"/><glyph glyph-name="U" unicode="U" horiz-adv-x="1468" d="M127 1485h260V608q0-217 75-319 76-103 273-103 194 0 271 107 75 104 75 323v869h260V627q0-352-140-502Q1060-27 735-27q-326 0-467 146-141 145-141 499v867z"/><glyph glyph-name="V" unicode="V" horiz-adv-x="1304" d="M2 1485h283L662 307l366 1178h275L795 0H516z"/><glyph glyph-name="W" unicode="W" horiz-adv-x="1835" d="m1069 1485 254-1149 225 1149h273L1475 0h-308L918 1139 672 0H360L12 1485h283L532 338l236 1147h301z"/><glyph glyph-name="X" unicode="X" horiz-adv-x="1357" d="m-20 0 546 760-512 725h312l356-506 365 506h294L829 772 1376 0h-311L672 555 272 0H-20z"/><glyph glyph-name="Y" unicode="Y" horiz-adv-x="1316" d="M-10 1485h297l368-664 379 664h293L780 573V0H520v578z"/><glyph glyph-name="Z" unicode="Z" horiz-adv-x="1282" d="M1204 1485v-211L375 225h854V0H57v211l832 1049H123v225h1081z"/><glyph glyph-name="bracketleft" unicode="[" horiz-adv-x="673" d="M143 1485h500v-187H367V-172h276v-186H143v1843z"/><glyph glyph-name="backslash" unicode="\" horiz-adv-x="790" d="M223 1485 801 0H567L-10 1485h233z"/><glyph glyph-name="bracketright" unicode="]" horiz-adv-x="673" d="M31 1485h499V-358H31v186h278v1470H31v187z"/><glyph glyph-name="asciicircum" unicode="^" horiz-adv-x="1044" d="m623 1485 411-793H788l-268 531-268-531H8l410 793h205z"/><glyph glyph-name="underscore" unicode="_" horiz-adv-x="978" d="M926-221H53V0h873v-221z"/><glyph glyph-name="grave" unicode="`" horiz-adv-x="571" d="M336 1247 45 1485h289l192-238H336z"/><glyph glyph-name="a" unicode="a" horiz-adv-x="1165" d="M819 434v84q-266-24-378-71-111-47-111-138 0-72 55-112 56-41 147-41 137 0 212 69t75 209zM479-27q-180 0-294 90Q72 152 72 303q0 70 25 121 25 52 79 92t115 67q63 27 152 48 91 21 174 33 80 12 196 24v21q0 245-229 245-97 0-157-51-61-51-65-147H123q12 168 141 273 130 106 328 106 213 0 342-112 127-111 123-361 0-6-.5-21.5t-1-45-.5-58.5q-2-140-2-160 0-248 32-377H862q-15 81-20 150Q736-27 479-27z"/><glyph glyph-name="b" unicode="b" horiz-adv-x="1249" d="M371 551q0-181 80-281 79-98 204-98t202 102q77 103 77 277 0 169-78 273T655 928q-124 0-204-98t-80-279zm-234 934h244V954q105 172 328 172 204 0 341-158 138-159 138-417 0-260-138-419T709-27q-223 0-328 172V0H137v1485z"/><glyph glyph-name="c" unicode="c" horiz-adv-x="1155" d="M602 1126q186 0 323-110 138-111 171-291H858q-16 87-87 143t-169 56q-124 0-207-95-82-94-82-278 0-186 82-280 83-95 201-95 100 0 174 48t96 153h238q-35-188-181-295Q775-27 592-27q-237 0-384 163T61 549t149 414q148 163 392 163z"/><glyph glyph-name="d" unicode="d" horiz-adv-x="1249" d="M868 954v531h244V0H868v145Q763-27 541-27q-203 0-341 159Q61 292 61 551q0 257 139 417 137 158 341 158 222 0 327-172zm11-403q0 181-80 279t-205 98q-123 0-201-104t-78-273q0-174 77-277 76-102 202-102t205 98q80 100 80 281z"/><glyph glyph-name="e" unicode="e" horiz-adv-x="1196" d="M1133 481H311q12-145 100-225t199-80q208 0 271 154h239q-40-147-171-252T621-27q-257 0-407 169Q63 313 63 559q0 249 153 408t388 159q251 0 398-183 147-184 131-462zM604 936q-101 0-189-68-87-68-104-209h574q-5 125-86 201-82 76-195 76z"/><glyph glyph-name="f" unicode="f" horiz-adv-x="661" d="M170 1102v67q0 187 79 251 80 65 286 65h96v-187h-70q-94 0-120-25-27-25-27-112v-59h217V926H414V0H170v926H16v176h154z"/><glyph glyph-name="g" unicode="g" horiz-adv-x="1247" d="M868 954v148h244V111q0-267-133-390-127-118-391-118-194 0-318 82-125 83-153 256h241q16-77 71-112 53-34 165-34 151 0 219 80 55 62 55 186v129Q763 18 541 18q-203 0-341 152Q61 323 61 573q0 252 139 403 138 150 341 150 222 0 327-172zm11-381q0 176-80 268-79 91-205 91t-202-97q-77-98-77-262 0-167 77-265 76-97 202-97 125 0 205 92t80 270z"/><glyph glyph-name="h" unicode="h" horiz-adv-x="1206" d="M381 1485V948q99 178 334 178 375 0 375-434V0H846v633q0 68-7 110-8 46-27 92-19 45-63 69-43 24-112 24-256 0-256-342V0H137v1485h244z"/><glyph glyph-name="i" unicode="i" horiz-adv-x="518" d="M137 1485h244v-246H137v246zm0-383h244V0H137v1102z"/><glyph glyph-name="j" unicode="j" horiz-adv-x="518" d="M137 1485h244v-246H137v246zm0-1512v1129h244V-16q0-207-65-275-64-67-255-67h-81v188h45q73 0 93 27 19 26 19 116z"/><glyph glyph-name="k" unicode="k" horiz-adv-x="1095" d="M137 1485h244V659l407 443h293L659 649 1128 0H844L498 477 381 352V0H137v1485z"/><glyph glyph-name="l" unicode="l" horiz-adv-x="518" d="M381 1485V0H137v1485h244z"/><glyph glyph-name="m" unicode="m" horiz-adv-x="1857" d="M381 586V0H137v1102h244V948q99 178 319 178 240 0 322-194 134 194 358 194 361 0 361-434V0h-244v633q0 63-5 111-4 40-24 91-17 44-59 69-40 24-106 24-242 0-242-342V0H817v633q0 63-5 111-4 40-24 91-17 44-59 69-41 24-106 24-242 0-242-342z"/><glyph glyph-name="n" unicode="n" horiz-adv-x="1206" d="M381 1102V948q99 178 334 178 375 0 375-434V0H846v633q0 68-7 110-8 46-27 92-19 45-63 69-43 24-112 24-256 0-256-342V0H137v1102h244z"/><glyph glyph-name="o" unicode="o" horiz-adv-x="1212" d="M315 549q0-182 83-280 82-97 208-97t208 97q83 98 83 280 0 180-83 280-82 99-208 99t-208-99q-83-100-83-280zm291 577q223 0 382-149 161-150 161-428 0-281-161-428Q826-27 606-27T224 121Q63 268 63 549q0 278 161 428 159 149 382 149z"/><glyph glyph-name="p" unicode="p" horiz-adv-x="1243" d="M371 551q0-181 80-281 79-98 204-98 129 0 201 100t72 279q0 173-72 275T655 928q-124 0-204-98t-80-279zm-234 551h244V954q105 172 328 172 207 0 340-157t133-418q0-263-133-420Q915-27 709-27q-223 0-328 172v-503H137v1460z"/><glyph glyph-name="q" unicode="q" horiz-adv-x="1243" d="M872 551q0 182-79 279-80 98-205 98-129 0-201-102t-72-275q0-179 72-279t201-100q126 0 205 98t79 281zm-10 403v148h244V-358H862v503Q757-27 535-27q-206 0-340 158T61 551q0 260 134 418 133 157 340 157 222 0 327-172z"/><glyph glyph-name="r" unicode="r" horiz-adv-x="755" d="M739 1100V854q-61 6-116 6-124 0-183-62t-59-220V0H137v1102h240V905q94 195 299 199 30 0 63-4z"/><glyph glyph-name="s" unicode="s" horiz-adv-x="1077" d="M995 801H766q-37 139-242 139-85 0-144-34-61-35-61-87 0-102 148-131l156-31q84-16 156-40 67-22 122-58 58-38 86-94 29-58 29-135 0-166-135-261-137-96-332-96-199 0-328 102Q93 176 72 336h237q34-178 248-178 99 0 160 39t61 104q0 113-190 152l-166 32q-155 33-244 107-88 73-88 215t132 230q133 89 317 89 169 0 297-84 126-83 159-241z"/><glyph glyph-name="t" unicode="t" horiz-adv-x="696" d="M172 1102v291h244v-291h221V926H416V326q0-86 26-112 28-28 105-28h88V0H455Q280 0 226 58t-54 231v637H8v176h164z"/><glyph glyph-name="u" unicode="u" horiz-adv-x="1198" d="M817 0v152Q718-27 492-27q-369 0-369 435v694h244V467q0-66 6-111 6-46 25-91t63-69q43-24 108-24 248 0 248 342v588h244V0H817z"/><glyph glyph-name="v" unicode="v" horiz-adv-x="1028" d="m268 1102 254-787 252 787h254L631 0H401L0 1102h268z"/><glyph glyph-name="w" unicode="w" horiz-adv-x="1503" d="m436 319 189 783h252l190-783 162 783h264L1200 0H969L752 815 535 0H303L10 1102h264z"/><glyph glyph-name="x" unicode="x" horiz-adv-x="1095" d="M1063 1102 686 573 1087 0H801L541 371 276 0H8l402 559-379 543h286l236-340 244 340h266z"/><glyph glyph-name="y" unicode="y" horiz-adv-x="1015" d="M205-358H94v186h92q87 0 127 26t74 126l12 26L0 1102h266l250-791 250 791h250L629 2q-80-219-161-290-80-70-263-70z"/><glyph glyph-name="z" unicode="z" horiz-adv-x="1011" d="M53 0v186l590 729H94v187h852V915L354 186h607V0H53z"/><glyph glyph-name="braceleft" unicode="{" horiz-adv-x="643" d="M612-358h-84q-205 0-284 70-80 71-80 263v281q0 105-31 159-30 52-125 52v195q95 0 125 52 31 54 31 158v279q0 192 80 263t284 71h84v-199h-57q-89 0-123-32-33-32-33-113V846q0-133-44-195-43-61-132-84v-6q89-23 132-84 44-62 44-194V-16q0-82 33-114 34-32 123-32h57v-196z"/><glyph glyph-name="bar" unicode="|" horiz-adv-x="507" d="M150 1485h208V-184H150v1669z"/><glyph glyph-name="braceright" unicode="}" horiz-adv-x="643" d="M31-358v196h57q89 0 123 32 33 32 33 114v299q0 132 44 194 43 61 130 84v6q-87 23-130 84-44 62-44 195v295q0 81-33 113-34 32-123 32H31v199h82q204 0 284-71t80-263V872q0-105 32-158 31-52 126-52V467q-95 0-126-52-32-53-32-159V-25q0-192-80-263-79-70-284-70H31z"/><glyph glyph-name="asciitilde" unicode="~" horiz-adv-x="1388" d="M899 592q117 0 125 141h190q-6-164-85-258t-224-94q-81 0-217 71-134 70-196 70-120 0-127-141H174q6 167 85 259 79 93 226 93 98 0 231-70 134-71 183-71z"/><glyph glyph-name="uni00A0" horiz-adv-x="471"/><glyph glyph-name="exclamdown" unicode="¡" horiz-adv-x="491" d="M369 27v-385H123V27l43 639h160zm16 796H106v279h279V823z"/><glyph glyph-name="cent" unicode="¢" horiz-adv-x="1140" d="M535 1276h100v-152q175-12 298-119t152-280H848q-15 81-70 133-57 54-143 64V178q186 24 221 199h238q-38-177-163-283Q804-13 635-25v-165H535v165Q318-9 190 153 63 313 63 549q0 235 127 393 128 159 345 180v154zM315 551q0-164 60-257t160-114v738q-102-18-161-110t-59-257z"/><glyph glyph-name="sterling" unicode="£" horiz-adv-x="1187" d="M623 1325q-107 0-182-51-74-50-74-146 0-110 108-315h361V668H537q24-74 24-125 0-103-54-190-53-85-138-146l2-4q59 28 133 28 54 0 151-31 101-32 166-32 102 0 258 59l72-178q-49-31-143-56-90-24-172-24-70 0-210 44T412 57q-130 0-285-88L41 150q125 60 201 145 75 84 75 229 0 66-30 144H31v145h184q-102 197-102 326 0 126 77 212t191 124q108 36 248 36 247 0 387-137 139-136 135-364H907q0 315-284 315z"/><glyph glyph-name="currency" unicode="¤" horiz-adv-x="1302" d="M162 709q0 159 90 284l-141 144 100 100 139-139q128 100 295 100 172 0 301-104l146 143 100-100-148-148q91-132 91-280 0-155-91-281l148-145-100-101-146 144Q812 225 645 225q-165 0-293 99L211 182 111 283l141 143q-90 124-90 283zm205 0q0-126 77-210 78-85 199-85 127 0 209 85t82 210q0 130-82 216-82 87-209 87-121 0-199-87-77-86-77-216z"/><glyph glyph-name="yen" unicode="¥" horiz-adv-x="1320" d="M1147 199H776V0H528v199H172v161h356v160H172v160h285L-4 1485h287l376-707 381 707h285L852 680h295V520H776V360h371V199z"/><glyph glyph-name="brokenbar" unicode="¦" horiz-adv-x="483" d="M137 1485h209V860H137v625zm0-1045h209v-624H137v624z"/><glyph glyph-name="section" unicode="§" horiz-adv-x="1226" d="M610-209q90 0 143 40 54 41 54 110 0 62-41 109-39 45-150 102L356 287Q70 432 70 647q0 93 63 170 62 75 166 121-129 111-129 262 0 145 128 228t300 83q191 0 313-97 124-98 146-265H823q-34 178-231 178-84 0-135-31-49-30-49-82 0-55 36-92 37-38 123-82l281-145q155-82 233-163t78-191q0-104-64-184T918 227q129-108 129-260 0-165-127-264-126-98-318-98-202 0-329 114Q145-167 133 25h232q35-234 245-234zm109 916L469 836q-168-57-168-166 0-57 38-98 37-39 120-85l276-143 23-12q160 69 160 170 0 57-48 105-49 49-151 100z"/><glyph glyph-name="dieresis" unicode="¨" horiz-adv-x="788" d="M45 1257v228h215v-228H45zm483 228h215v-228H528v228z"/><glyph glyph-name="copyright" unicode="©" horiz-adv-x="1689" d="M78 739q0 337 222 555 221 217 546 217t545-217q221-218 221-555 0-336-221-551T846-27q-326 0-547 215T78 739zm164 0q0-272 173-445t431-173q259 0 432 173 172 172 172 445 0 276-172 449-172 174-432 174-258 0-431-174-173-175-173-449zm604-254q164 0 201 156l188-47q-33-119-138-194-104-74-255-74-189 0-295 115-107 116-107 309 0 190 112 305 111 114 296 114 150 0 250-78 103-80 131-204l-189-51q-15 81-65 126-50 46-129 46-90 0-146-67-55-65-55-191 0-127 55-195 56-70 146-70z"/><glyph glyph-name="ordfeminine" unicode="ª" horiz-adv-x="718" d="M270 883q-94 0-155 48-62 48-62 132 0 107 105 155t307 66v19q0 110-111 110-109 0-116-94H72q7 94 88 156 79 61 207 61 136 0 204-61 70-62 70-205l-2-66v-78q0-172 12-229H479q0 18-1 37t-1 39q-66-90-207-90zm199 276v17q-120-12-176-33-55-21-55-68 0-33 25-51 26-18 67-18 139 0 139 153z"/><glyph glyph-name="guillemotleft" unicode="«" horiz-adv-x="1112" d="M358 88 33 559l325 469h234L317 559 592 88H358zm455 0L487 559l326 469h234L772 559l275-471H813z"/><glyph glyph-name="logicalnot" unicode="¬" horiz-adv-x="1388" d="M1022 659H139v220h1110V195h-227v464z"/><glyph glyph-name="uni00AD" unicode="­" horiz-adv-x="864" d="M766 442H98v220h668V442z"/><glyph glyph-name="registered" unicode="®" horiz-adv-x="1689" d="M78 739q0 337 222 555 221 217 546 217t545-217q221-218 221-555 0-336-221-551T846-27q-326 0-547 215T78 739zm164 0q0-272 173-445t431-173q259 0 432 173 172 172 172 445 0 276-172 449-172 174-432 174-258 0-431-174-173-175-173-449zm776-381L848 659H715V358H516v820h297q183 0 282-58 97-57 97-205 0-159-148-221l197-336h-223zm-25 555q0 49-35 78t-100 29H715V813h145q133 0 133 100z"/><glyph glyph-name="macron" unicode="¯" horiz-adv-x="720" d="M676 1286H45v180h631v-180z"/><glyph glyph-name="degree" unicode="°" horiz-adv-x="690" d="M27 1192q0 131 94 225t223 94q131 0 225-94 95-95 95-225 0-128-95-223t-225-95q-128 0-223 95-94 94-94 223zm168 0q0-68 42-114t107-46q68 0 111 46t43 114q0 71-43 117-44 47-111 47-65 0-107-47t-42-117z"/><glyph glyph-name="plusminus" unicode="±" horiz-adv-x="1388" d="M580 805v278h231V805h438V584H811V299H580v285H139v221h441zM1249 0H139v219h1110V0z"/><glyph glyph-name="twosuperior" unicode="²" horiz-adv-x="727" d="M371 1747q132 0 212-61 81-62 81-170 0-124-102-236-104-115-302-236h412V897H41v145q264 205 317 256 125 119 125 207 0 54-32 82-34 29-86 29-138 0-138-172H53q-4 139 84 221t234 82z"/><glyph glyph-name="threesuperior" unicode="³" horiz-adv-x="761" d="M381 1014q64 0 104 32 39 32 39 91 0 118-192 118h-47v144h41q182 0 182 114 0 47-37 74t-90 27q-133 0-154-127H55q12 126 105 193t231 67q125 0 210-56 87-57 87-165 0-61-34-110-35-50-81-77 62-24 97-82t35-118q0-124-95-190-94-66-233-66-137 0-227 72T45 1159h174q11-71 53-107 44-38 109-38z"/><glyph glyph-name="acute" unicode="´" horiz-adv-x="567" d="m522 1485-291-238H45l191 238h286z"/><glyph glyph-name="mu" unicode="µ" horiz-adv-x="1191" d="M336-358H111q24 129 24 340v1120h227V500q0-330 226-330 123 0 183 93t60 251v588h228V0H831v133Q741-18 592-18q-150 0-230 129V-4q0-204-26-354z"/><glyph glyph-name="mu" unicode="μ" horiz-adv-x="1191" d="M336-358H111q24 129 24 340v1120h227V500q0-330 226-330 123 0 183 93t60 251v588h228V0H831v133Q741-18 592-18q-150 0-230 129V-4q0-204-26-354z"/><glyph glyph-name="paragraph" unicode="¶" horiz-adv-x="1044" d="M0 1122q0 174 126 268 127 95 351 95h432V-182H748v1515H512V-182H348v948q-145 15-246 101Q0 954 0 1122z"/><glyph glyph-name="periodcentered" unicode="·" horiz-adv-x="491" d="M385 412H106v278h279V412z"/><glyph glyph-name="cedilla" unicode="¸" horiz-adv-x="516" d="m45-360 35 88q53-29 119-29 116 0 116 61 0 60-84 60-47 0-77-19l-62 35L197 6h108L240-98q38 6 71 6 69-1 115-40 45-38 45-99 0-75-70-122-68-46-161-46-116 0-195 39z"/><glyph glyph-name="onesuperior" unicode="¹" horiz-adv-x="493" d="M385 897H209v586H23v127q102 5 149 30 50 27 78 93h135V897z"/><glyph glyph-name="ordmasculine" unicode="º" horiz-adv-x="743" d="M233 1208q0-188 140-188 65 0 103 47t38 141-38 141q-37 46-103 46-65 0-102-46-38-47-38-141zm-180 0q0 158 93 242t227 84q135 0 228-84t93-242q0-157-93-241t-228-84q-137 0-228 84-92 84-92 241z"/><glyph glyph-name="guillemotright" unicode="»" horiz-adv-x="1112" d="M1079 559 754 88H520l277 471-277 469h234zm-454 0L299 88H66l276 471-276 469h233z"/><glyph glyph-name="onequarter" unicode="¼" horiz-adv-x="1736" d="M385 649H209v586H23v127q100 4 149 31 50 27 78 92h135V649zM340 0H82l1024 1485h258zm1057 606-213-266h213v266zm305-266V186h-127V0h-178v186H989v140l418 510h168V340h127z"/><glyph glyph-name="onehalf" unicode="½" horiz-adv-x="1683" d="M385 649H209v586H23v127q100 4 149 31 50 27 78 92h135V649zM340 0H82l1024 1485h258zm985 850q130 0 212-62 81-61 81-170 0-124-101-235-103-114-303-236h412V0H995v145q269 209 318 256 125 119 125 207 0 54-33 82-34 29-86 29-137 0-137-172h-174q-4 139 84 221t233 82z"/><glyph glyph-name="threequarters" unicode="¾" horiz-adv-x="2004" d="M381 766q64 0 104 32 39 32 39 91 0 119-192 119h-47v143h41q182 0 182 115 0 46-37 73t-90 27q-133 0-154-127H55q12 127 105 194 92 66 231 66 125 0 210-56 87-57 87-165 0-61-34-110t-81-76q62-24 97-82t35-119q0-124-95-190-94-66-233-66-136 0-227 73-90 72-105 203h174q11-71 53-107 44-38 109-38zM610 0H352l1024 1485h258zm1057 606-213-266h213v266zm305-266V186h-127V0h-178v186h-407v140l417 510h168V340h127z"/><glyph glyph-name="questiondown" unicode="¿" horiz-adv-x="1052" d="M506-387q-198 0-341 93Q23-201 23-23q0 130 69 217 67 85 187 160 69 44 102 69 32 24 58 74 26 49 26 111v64h244v-70q0-96-34-165-35-71-76-108-45-40-122-91-66-41-107-72-37-28-67-74-31-48-31-102 0-84 69-133 70-50 173-50 132 0 204 76 73 77 77 203h241q0-212-150-342-151-131-380-131zM725 823H446v279h279V823z"/><glyph glyph-name="Agrave" unicode="À" horiz-adv-x="1384" d="m0 0 553 1485h274L1384 0h-284L983 330H381L266 0H0zm680 1184L457 547h448zm-74 399-338 232h314l217-232H606z"/><glyph glyph-name="Aacute" unicode="Á" horiz-adv-x="1384" d="m0 0 553 1485h274L1384 0h-284L983 330H381L266 0H0zm680 1184L457 547h448zm436 631-317-232H586l215 232h315z"/><glyph glyph-name="Acircumflex" unicode="Â" horiz-adv-x="1384" d="m0 0 553 1485h274L1384 0h-284L983 330H381L266 0H0zm680 1184L457 547h448zm123 631 276-232H829l-137 105-139-105H305l283 232h215z"/><glyph glyph-name="Atilde" unicode="Ã" horiz-adv-x="1384" d="m0 0 553 1485h274L1384 0h-284L983 330H381L266 0H0zm680 1184L457 547h448zm137 551q85 0 103 80h170q-38-232-263-232-67 0-146 40t-116 40q-84 0-96-80H295q39 232 262 232 69 0 145-40t115-40z"/><glyph glyph-name="Adieresis" unicode="Ä" horiz-adv-x="1384" d="m0 0 553 1485h274L1384 0h-284L983 330H381L266 0H0zm680 1184L457 547h448zm-336 626h215v-221H344v221zm483 0h215v-221H827v221z"/><glyph glyph-name="Aring" unicode="Å" horiz-adv-x="1384" d="m0 0 553 1485h274L1384 0h-284L983 330H381L266 0H0zm680 1184L457 547h448zm12 731q80 0 133-48 54-49 54-126 0-74-54-125-52-49-133-49-79 0-131 49-53 50-53 125t53 125q52 49 131 49zm0-86q-36 0-62-26t-26-62q0-38 26-62t62-24q38 0 63 24t25 62q0 37-25 62-26 26-63 26z"/><glyph glyph-name="AE" unicode="Æ" horiz-adv-x="2076" d="M2021 0H969v309H432L225 0H-53L969 1485h1052v-217h-792V870h747V655h-747V219h792V0zM969 1110 575 524h394v586z"/><glyph glyph-name="Ccedilla" unicode="Ç" horiz-adv-x="1486" d="M1167 494h250q-46-249-215-385T776-27q-321 0-504 210Q90 392 90 748q0 352 188 558 187 205 510 205 251 0 415-136 165-137 210-384h-250q-34 149-135 229-99 78-248 78-185 0-303-145-119-146-119-405 0-263 118-412 118-150 302-150 154 0 254 78t135 230zM541-360l34 88q53-29 119-29 117 0 117 61 0 60-84 60-48 0-78-19l-61 35L692 6h109L735-98q37 6 72 6 69-1 115-40 45-38 45-99 0-75-70-122-68-46-162-46-115 0-194 39z"/><glyph glyph-name="Egrave" unicode="È" horiz-adv-x="1259" d="M150 0v1485h1050v-217H410V870h747V655H410V219h790V0H150zm499 1583-338 232h314l217-232H649z"/><glyph glyph-name="Eacute" unicode="É" horiz-adv-x="1259" d="M150 0v1485h1050v-217H410V870h747V655H410V219h790V0H150zm927 1815-317-232H547l215 232h315z"/><glyph glyph-name="Ecircumflex" unicode="Ê" horiz-adv-x="1259" d="M150 0v1485h1050v-217H410V870h747V655H410V219h790V0H150zm655 1815 276-232H831l-137 105-139-105H307l283 232h215z"/><glyph glyph-name="Edieresis" unicode="Ë" horiz-adv-x="1259" d="M150 0v1485h1050v-217H410V870h747V655H410V219h790V0H150zm196 1810h215v-221H346v221zm483 0h215v-221H829v221z"/><glyph glyph-name="Igrave" unicode="Ì" horiz-adv-x="559" d="M410 1485V0H150v1485h260zm-215 98-338 232h313l217-232H195z"/><glyph glyph-name="Iacute" unicode="Í" horiz-adv-x="559" d="M410 1485V0H150v1485h260zm292 330-317-232H172l215 232h315z"/><glyph glyph-name="Icircumflex" unicode="Î" horiz-adv-x="559" d="M410 1485V0H150v1485h260zm-21 330 277-232H416l-137 105-140-105h-248l283 232h215z"/><glyph glyph-name="Idieresis" unicode="Ï" horiz-adv-x="559" d="M410 1485V0H150v1485h260zm-480 325h215v-221H-70v221zm484 0h215v-221H414v221z"/><glyph glyph-name="Eth" unicode="Ð" horiz-adv-x="1513" d="M190 1485h406q141 0 267-22 122-21 227-73 106-52 179-136 72-82 114-212 42-129 42-299 0-213-62-359-63-148-178-230T926 36 596 0H190v643H18v217h172v625zm965-742q0 168-47 280t-135 164q-87 52-177 70-93 19-212 19H451V860h272V643H451V209h133q124 0 212 18 85 17 177 72 88 52 135 165 47 112 47 279z"/><glyph glyph-name="Ntilde" unicode="Ñ" horiz-adv-x="1527" d="M1378 0h-348L401 1186V0H150v1485h348l628-1186v1186h252V0zM930 1735q84 0 102 80h170q-38-232-262-232-67 0-146 40t-116 40q-84 0-96-80H408q39 232 262 232 68 0 145-40t115-40z"/><glyph glyph-name="Ograve" unicode="Ò" horiz-adv-x="1597" d="M358 743q0-263 124-409 125-148 317-148 191 0 316 148 124 146 124 409t-124 409-316 146q-193 0-317-146T358 743zm1149 0q0-347-192-558Q1123-27 799-27T283 185Q90 398 90 743t192 557q192 211 517 211t517-211q191-210 191-557zm-794 840-338 232h313l217-232H713z"/><glyph glyph-name="Oacute" unicode="Ó" horiz-adv-x="1597" d="M358 743q0-263 124-409 125-148 317-148 191 0 316 148 124 146 124 409t-124 409-316 146q-193 0-317-146T358 743zm1149 0q0-347-192-558Q1123-27 799-27T283 185Q90 398 90 743t192 557q192 211 517 211t517-211q191-210 191-557zm-284 1072-318-232H692l215 232h316z"/><glyph glyph-name="Ocircumflex" unicode="Ô" horiz-adv-x="1597" d="M358 743q0-263 124-409 125-148 317-148 191 0 316 148 124 146 124 409t-124 409-316 146q-193 0-317-146T358 743zm1149 0q0-347-192-558Q1123-27 799-27T283 185Q90 398 90 743t192 557q192 211 517 211t517-211q191-210 191-557zM909 1815l277-232H936l-137 105-140-105H412l282 232h215z"/><glyph glyph-name="Otilde" unicode="Õ" horiz-adv-x="1597" d="M358 743q0-263 124-409 125-148 317-148 191 0 316 148 124 146 124 409t-124 409-316 146q-193 0-317-146T358 743zm1149 0q0-347-192-558Q1123-27 799-27T283 185Q90 398 90 743t192 557q192 211 517 211t517-211q191-210 191-557zm-583 992q84 0 102 80h170q-38-232-262-232-68 0-147 40t-115 40q-85 0-97-80H401q39 232 263 232 69 0 145-40t115-40z"/><glyph glyph-name="Odieresis" unicode="Ö" horiz-adv-x="1597" d="M358 743q0-263 124-409 125-148 317-148 191 0 316 148 124 146 124 409t-124 409-316 146q-193 0-317-146T358 743zm1149 0q0-347-192-558Q1123-27 799-27T283 185Q90 398 90 743t192 557q192 211 517 211t517-211q191-210 191-557zM451 1810h215v-221H451v221zm483 0h215v-221H934v221z"/><glyph glyph-name="multiply" unicode="×" horiz-adv-x="1388" d="M1178 213 1026 61 686 401 354 68 211 209l332 336-330 329 152 152 331-330 334 332 141-141-331-334z"/><glyph glyph-name="Oslash" unicode="Ø" horiz-adv-x="1597" d="M1507 743q0-347-192-558Q1123-27 799-27q-267 0-445 144L223-37 123 51l137 160Q90 419 90 743q0 345 192 557 192 211 517 211 265 0 444-145l117 135 100-86-123-143q170-209 170-529zm-1149 0q0-197 72-331l657 770q-120 116-288 116-193 0-317-146T358 743zm881 0q0 195-72 328L512 301q115-115 287-115 191 0 316 148 124 146 124 409z"/><glyph glyph-name="Ugrave" unicode="Ù" horiz-adv-x="1468" d="M127 1485h260V608q0-217 75-319 76-103 273-103 194 0 271 107 75 104 75 323v869h260V627q0-352-140-502Q1060-27 735-27q-326 0-467 146-141 145-141 499v867zm582 98-338 232h313l217-232H709z"/><glyph glyph-name="Uacute" unicode="Ú" horiz-adv-x="1468" d="M127 1485h260V608q0-217 75-319 76-103 273-103 194 0 271 107 75 104 75 323v869h260V627q0-352-140-502Q1060-27 735-27q-326 0-467 146-141 145-141 499v867zm989 330-317-232H586l215 232h315z"/><glyph glyph-name="Ucircumflex" unicode="Û" horiz-adv-x="1468" d="M127 1485h260V608q0-217 75-319 76-103 273-103 194 0 271 107 75 104 75 323v869h260V627q0-352-140-502Q1060-27 735-27q-326 0-467 146-141 145-141 499v867zm717 330 276-232H870l-137 105-139-105H346l283 232h215z"/><glyph glyph-name="Udieresis" unicode="Ü" horiz-adv-x="1468" d="M127 1485h260V608q0-217 75-319 76-103 273-103 194 0 271 107 75 104 75 323v869h260V627q0-352-140-502Q1060-27 735-27q-326 0-467 146-141 145-141 499v867zm258 325h215v-221H385v221zm483 0h215v-221H868v221z"/><glyph glyph-name="Yacute" unicode="Ý" horiz-adv-x="1316" d="M-10 1485h297l368-664 379 664h293L780 573V0H520v578zm1089 330-317-232H549l215 232h315z"/><glyph glyph-name="Thorn" unicode="Þ" horiz-adv-x="1267" d="M414 1239h202q110 0 192-9 83-9 170-39 86-30 142-81 54-50 91-140 36-88 36-210 0-135-47-231-46-94-136-144-89-50-196-71-106-21-247-21H414V0H150v1485h264v-246zm202-217H414V510h217q170 0 259 50t89 198q0 68-22 121-20 48-52 77-30 27-83 42-55 16-97 20-40 4-109 4z"/><glyph glyph-name="germandbls" unicode="ß" horiz-adv-x="1320" d="M381 0H137v981q0 263 119 393 131 137 422 137 216 0 349-94 134-95 134-274 0-218-184-303 120-37 197-138 75-99 75-262 0-230-150-348Q948-27 709-27 586-27 475-2l39 207q95-31 193-31 124 0 208 69t84 195q0 279-385 279h-24v205h18q310 0 310 206 0 92-65 145-64 52-181 52-161 0-234-88-57-78-57-254V0z"/><glyph glyph-name="agrave" unicode="à" horiz-adv-x="1165" d="M819 434v84q-266-24-378-71-111-47-111-138 0-72 55-112 56-41 147-41 137 0 212 69t75 209zM479-27q-180 0-294 90Q72 152 72 303q0 70 25 121 25 52 79 92t115 67q63 27 152 48 91 21 174 33 80 12 196 24v21q0 245-229 245-97 0-157-51-61-51-65-147H123q12 168 141 273 130 106 328 106 213 0 342-112 127-111 123-361 0-6-.5-21.5t-1-45-.5-58.5q-2-140-2-160 0-248 32-377H862q-15 81-20 150Q736-27 479-27zm41 1274-291 238h289l193-238H520z"/><glyph glyph-name="aacute" unicode="á" horiz-adv-x="1165" d="M819 434v84q-266-24-378-71-111-47-111-138 0-72 55-112 56-41 147-41 137 0 212 69t75 209zM479-27q-180 0-294 90Q72 152 72 303q0 70 25 121 25 52 79 92t115 67q63 27 152 48 91 21 174 33 80 12 196 24v21q0 245-229 245-97 0-157-51-61-51-65-147H123q12 168 141 273 130 106 328 106 213 0 342-112 127-111 123-361 0-6-.5-21.5t-1-45-.5-58.5q-2-140-2-160 0-248 32-377H862q-15 81-20 150Q736-27 479-27zm477 1512-290-238H479l191 238h286z"/><glyph glyph-name="acircumflex" unicode="â" horiz-adv-x="1165" d="M819 434v84q-266-24-378-71-111-47-111-138 0-72 55-112 56-41 147-41 137 0 212 69t75 209zM479-27q-180 0-294 90Q72 152 72 303q0 70 25 121 25 52 79 92t115 67q63 27 152 48 91 21 174 33 80 12 196 24v21q0 245-229 245-97 0-157-51-61-51-65-147H123q12 168 141 273 130 106 328 106 213 0 342-112 127-111 123-361 0-6-.5-21.5t-1-45-.5-58.5q-2-140-2-160 0-248 32-377H862q-15 81-20 150Q736-27 479-27zm217 1512 287-238H758l-162 99-164-99H209l293 238h194z"/><glyph glyph-name="atilde" unicode="ã" horiz-adv-x="1165" d="M819 434v84q-266-24-378-71-111-47-111-138 0-72 55-112 56-41 147-41 137 0 212 69t75 209zM479-27q-180 0-294 90Q72 152 72 303q0 70 25 121 25 52 79 92t115 67q63 27 152 48 91 21 174 33 80 12 196 24v21q0 245-229 245-97 0-157-51-61-51-65-147H123q12 168 141 273 130 106 328 106 213 0 342-112 127-111 123-361 0-6-.5-21.5t-1-45-.5-58.5q-2-140-2-160 0-248 32-377H862q-15 81-20 150Q736-27 479-27zm250 1442q84 0 102 90h175q-22-141-100-201-77-59-165-59-71 0-150 46t-116 46q-82 0-98-90H203q23 140 99 200t165 60q72 0 146-46t116-46z"/><glyph glyph-name="adieresis" unicode="ä" horiz-adv-x="1165" d="M819 434v84q-266-24-378-71-111-47-111-138 0-72 55-112 56-41 147-41 137 0 212 69t75 209zM479-27q-180 0-294 90Q72 152 72 303q0 70 25 121 25 52 79 92t115 67q63 27 152 48 91 21 174 33 80 12 196 24v21q0 245-229 245-97 0-157-51-61-51-65-147H123q12 168 141 273 130 106 328 106 213 0 342-112 127-111 123-361 0-6-.5-21.5t-1-45-.5-58.5q-2-140-2-160 0-248 32-377H862q-15 81-20 150Q736-27 479-27zM246 1257v228h215v-228H246zm483 228h215v-228H729v228z"/><glyph glyph-name="aring" unicode="å" horiz-adv-x="1165" d="M819 434v84q-266-24-378-71-111-47-111-138 0-72 55-112 56-41 147-41 137 0 212 69t75 209zM479-27q-180 0-294 90Q72 152 72 303q0 70 25 121 25 52 79 92t115 67q63 27 152 48 91 21 174 33 80 12 196 24v21q0 245-229 245-97 0-157-51-61-51-65-147H123q12 168 141 273 130 106 328 106 213 0 342-112 127-111 123-361 0-6-.5-21.5t-1-45-.5-58.5q-2-140-2-160 0-248 32-377H862q-15 81-20 150Q736-27 479-27zm117 1622q79 0 135-50 55-49 55-128t-55-128q-56-50-135-50t-135 50q-55 49-55 128t55 128q56 50 135 50zm0-92q-35 0-59-24-25-25-25-62 0-35 25-60 24-24 59-24 37 0 61 24 25 25 25 60 0 38-26 62t-60 24z"/><glyph glyph-name="ae" unicode="æ" horiz-adv-x="1931" d="M1339 936q-103 0-191-67-86-65-101-210h573q-5 125-86 201-82 76-195 76zM819 434v84q-266-24-378-71-111-47-111-138 0-72 55-112 56-41 147-41 137 0 212 69t75 209zm797-104h239q-41-147-171-252T1356-27q-288 0-434 220Q792-27 479-27q-180 0-294 90Q72 152 72 303q0 70 25 121 25 52 79 92t115 67q63 27 152 48 91 21 174 33 80 12 196 24v21q0 245-229 245-97 0-157-51-61-51-65-147H123q12 168 141 273 130 106 328 106 268 0 373-166 145 157 374 157 252 0 399-183 147-182 130-462h-821q12-143 100-224 89-81 199-81 207 0 270 154z"/><glyph glyph-name="ccedilla" unicode="ç" horiz-adv-x="1155" d="M602 1126q186 0 323-110 138-111 171-291H858q-16 87-87 143t-169 56q-124 0-207-95-82-94-82-278 0-186 82-280 83-95 201-95 100 0 174 48t96 153h238q-35-188-181-295Q775-27 592-27q-237 0-384 163T61 549t149 414q148 163 392 163zM354-360l35 88q53-29 119-29 117 0 117 61 0 60-84 60-48 0-78-19l-62 35L506 6h108L549-98q37 6 72 6 68-1 114-40 45-38 45-99 0-75-69-122-68-46-162-46-115 0-195 39z"/><glyph glyph-name="egrave" unicode="è" horiz-adv-x="1196" d="M1133 481H311q12-145 100-225t199-80q208 0 271 154h239q-40-147-171-252T621-27q-257 0-407 169Q63 313 63 559q0 249 153 408t388 159q251 0 398-183 147-184 131-462zM604 936q-101 0-189-68-87-68-104-209h574q-5 125-86 201-82 76-195 76zm-106 311-291 238h289l192-238H498z"/><glyph glyph-name="eacute" unicode="é" horiz-adv-x="1196" d="M1133 481H311q12-145 100-225t199-80q208 0 271 154h239q-40-147-171-252T621-27q-257 0-407 169Q63 313 63 559q0 249 153 408t388 159q251 0 398-183 147-184 131-462zM604 936q-101 0-189-68-87-68-104-209h574q-5 125-86 201-82 76-195 76zm350 549-290-238H477l191 238h286z"/><glyph glyph-name="ecircumflex" unicode="ê" horiz-adv-x="1196" d="M1133 481H311q12-145 100-225t199-80q208 0 271 154h239q-40-147-171-252T621-27q-257 0-407 169Q63 313 63 559q0 249 153 408t388 159q251 0 398-183 147-184 131-462zM604 936q-101 0-189-68-87-68-104-209h574q-5 125-86 201-82 76-195 76zm103 549 286-238H768l-162 99-164-99H219l293 238h195z"/><glyph glyph-name="edieresis" unicode="ë" horiz-adv-x="1196" d="M1133 481H311q12-145 100-225t199-80q208 0 271 154h239q-40-147-171-252T621-27q-257 0-407 169Q63 313 63 559q0 249 153 408t388 159q251 0 398-183 147-184 131-462zM604 936q-101 0-189-68-87-68-104-209h574q-5 125-86 201-82 76-195 76zm-360 321v228h215v-228H244zm483 228h215v-228H727v228z"/><glyph glyph-name="igrave" unicode="ì" horiz-adv-x="518" d="M137 1102h244V0H137v1102zm29 145-291 238h289l192-238H166z"/><glyph glyph-name="iacute" unicode="í" horiz-adv-x="518" d="M137 1102h244V0H137v1102zm504 383-291-238H164l190 238h287z"/><glyph glyph-name="icircumflex" unicode="î" horiz-adv-x="518" d="M137 1102h244V0H137v1102zm221 383 287-238H420l-162 99-164-99h-223l293 238h194z"/><glyph glyph-name="idieresis" unicode="ï" horiz-adv-x="518" d="M137 1102h244V0H137v1102zm-227 155v228h215v-228H-90zm483 228h215v-228H393v228z"/><glyph glyph-name="eth" unicode="ð" horiz-adv-x="1183" d="m662 1436 126 80 111-56-145-90q354-276 354-733 0-326-145-495T578-27q-230 0-375 154Q59 280 59 545q0 267 135 425 134 156 341 156 102 0 188-47 85-47 135-129l2 2q-74 175-276 316l-148-90-108 51 157 98q-39 22-166 78l175 123q79-37 168-92zm208-885q0 182-79 279-80 98-205 98-129 0-201-102t-72-275q0-179 72-279t201-100q126 0 205 98t79 281z"/><glyph glyph-name="ntilde" unicode="ñ" horiz-adv-x="1206" d="M381 1102V948q99 178 334 178 375 0 375-434V0H846v633q0 68-7 110-8 46-27 92-19 45-63 69-43 24-112 24-256 0-256-342V0H137v1102h244zm381 313q84 0 102 90h174q-22-142-99-201t-165-59q-71 0-150 46t-116 46q-82 0-98-90H236q23 140 99 200 77 60 165 60 72 0 146-46t116-46z"/><glyph glyph-name="ograve" unicode="ò" horiz-adv-x="1212" d="M315 549q0-182 83-280 82-97 208-97t208 97q83 98 83 280 0 180-83 280-82 99-208 99t-208-99q-83-100-83-280zm291 577q223 0 382-149 161-150 161-428 0-281-161-428Q826-27 606-27T224 121Q63 268 63 549q0 278 161 428 159 149 382 149zm-100 121-291 238h289l192-238H506z"/><glyph glyph-name="oacute" unicode="ó" horiz-adv-x="1212" d="M315 549q0-182 83-280 82-97 208-97t208 97q83 98 83 280 0 180-83 280-82 99-208 99t-208-99q-83-100-83-280zm291 577q223 0 382-149 161-150 161-428 0-281-161-428Q826-27 606-27T224 121Q63 268 63 549q0 278 161 428 159 149 382 149zm377 359-291-238H506l190 238h287z"/><glyph glyph-name="ocircumflex" unicode="ô" horiz-adv-x="1212" d="M315 549q0-182 83-280 82-97 208-97t208 97q83 98 83 280 0 180-83 280-82 99-208 99t-208-99q-83-100-83-280zm291 577q223 0 382-149 161-150 161-428 0-281-161-428Q826-27 606-27T224 121Q63 268 63 549q0 278 161 428 159 149 382 149zm94 359 287-238H762l-162 99-164-99H213l293 238h194z"/><glyph glyph-name="otilde" unicode="õ" horiz-adv-x="1212" d="M315 549q0-182 83-280 82-97 208-97t208 97q83 98 83 280 0 180-83 280-82 99-208 99t-208-99q-83-100-83-280zm291 577q223 0 382-149 161-150 161-428 0-281-161-428Q826-27 606-27T224 121Q63 268 63 549q0 278 161 428 159 149 382 149zm119 289q84 0 102 90h174q-22-142-99-201t-165-59q-71 0-150 46t-116 46q-81 0-98-90H199q23 140 99 200t165 60q72 0 146-46t116-46z"/><glyph glyph-name="odieresis" unicode="ö" horiz-adv-x="1212" d="M315 549q0-182 83-280 82-97 208-97t208 97q83 98 83 280 0 180-83 280-82 99-208 99t-208-99q-83-100-83-280zm291 577q223 0 382-149 161-150 161-428 0-281-161-428Q826-27 606-27T224 121Q63 268 63 549q0 278 161 428 159 149 382 149zm-354 131v228h215v-228H252zm483 228h215v-228H735v228z"/><glyph glyph-name="divide" unicode="÷" horiz-adv-x="1388" d="M557 53v266h277V53H557zm0 707v266h277V760H557zm680-330H154v219h1083V430z"/><glyph glyph-name="oslash" unicode="ø" horiz-adv-x="1212" d="M606 1126q190 0 326-102l90 104 92-81-92-107q127-146 127-391 0-281-161-428Q826-27 606-27 414-27 274 78L160-55 68 29l116 135Q63 315 63 549q0 278 161 428 159 149 382 149zm291-577q0 117-39 203L420 246q77-74 186-74 126 0 208 97 83 98 83 280zm-582 0q0-115 33-195l438 504q-78 70-180 70-126 0-208-99-83-100-83-280z"/><glyph glyph-name="ugrave" unicode="ù" horiz-adv-x="1198" d="M817 0v152Q718-27 492-27q-369 0-369 435v694h244V467q0-66 6-111 6-46 25-91t63-69q43-24 108-24 248 0 248 342v588h244V0H817zM518 1247l-291 238h289l193-238H518z"/><glyph glyph-name="uacute" unicode="ú" horiz-adv-x="1198" d="M817 0v152Q718-27 492-27q-369 0-369 435v694h244V467q0-66 6-111 6-46 25-91t63-69q43-24 108-24 248 0 248 342v588h244V0H817zm137 1485-290-238H477l191 238h286z"/><glyph glyph-name="ucircumflex" unicode="û" horiz-adv-x="1198" d="M817 0v152Q718-27 492-27q-369 0-369 435v694h244V467q0-66 6-111 6-46 25-91t63-69q43-24 108-24 248 0 248 342v588h244V0H817zM692 1485l287-238H754l-162 99-164-99H205l293 238h194z"/><glyph glyph-name="udieresis" unicode="ü" horiz-adv-x="1198" d="M817 0v152Q718-27 492-27q-369 0-369 435v694h244V467q0-66 6-111 6-46 25-91t63-69q43-24 108-24 248 0 248 342v588h244V0H817zM250 1257v228h215v-228H250zm483 228h215v-228H733v228z"/><glyph glyph-name="yacute" unicode="ý" horiz-adv-x="1015" d="M205-358H94v186h92q87 0 127 26t74 126l12 26L0 1102h266l250-791 250 791h250L629 2q-80-219-161-290-80-70-263-70zm686 1843-291-238H414l190 238h287z"/><glyph glyph-name="thorn" unicode="þ" horiz-adv-x="1249" d="M381 1485V954q106 172 328 172 204 0 341-158 138-159 138-417 0-260-138-419T709-27q-222 0-328 172v-503H137v1843h244zm-10-934q0-184 80-282 79-97 206-97 123 0 201 102t78 277q0 173-78 275T657 928q-126 0-206-98t-80-279z"/><glyph glyph-name="ydieresis" unicode="ÿ" horiz-adv-x="1015" d="M205-358H94v186h92q87 0 127 26t74 126l12 26L0 1102h266l250-791 250 791h250L629 2q-80-219-161-290-80-70-263-70zm-45 1615v228h215v-228H160zm483 228h215v-228H643v228z"/><glyph glyph-name="Amacron" unicode="Ā" horiz-adv-x="1384" d="m0 0 553 1485h274L1384 0h-284L983 330H381L266 0H0zm680 1184L457 547h448zm328 426H377v178h631v-178z"/><glyph glyph-name="amacron" unicode="ā" horiz-adv-x="1165" d="M819 434v84q-266-24-378-71-111-47-111-138 0-72 55-112 56-41 147-41 137 0 212 69t75 209zM479-27q-180 0-294 90Q72 152 72 303q0 70 25 121 25 52 79 92t115 67q63 27 152 48 91 21 174 33 80 12 196 24v21q0 245-229 245-97 0-157-51-61-51-65-147H123q12 168 141 273 130 106 328 106 213 0 342-112 127-111 123-361 0-6-.5-21.5t-1-45-.5-58.5q-2-140-2-160 0-248 32-377H862q-15 81-20 150Q736-27 479-27zm439 1313H287v180h631v-180z"/><glyph glyph-name="Abreve" unicode="Ă" horiz-adv-x="1384" d="m0 0 553 1485h274L1384 0h-284L983 330H381L266 0H0zm680 1184L457 547h448zm168 631h182q-22-240-338-240-312 0-336 240h183q15-105 155-105 142 0 154 105z"/><glyph glyph-name="abreve" unicode="ă" horiz-adv-x="1165" d="M819 434v84q-266-24-378-71-111-47-111-138 0-72 55-112 56-41 147-41 137 0 212 69t75 209zM479-27q-180 0-294 90Q72 152 72 303q0 70 25 121 25 52 79 92t115 67q63 27 152 48 91 21 174 33 80 12 196 24v21q0 245-229 245-97 0-157-51-61-51-65-147H123q12 168 141 273 130 106 328 106 213 0 342-112 127-111 123-361 0-6-.5-21.5t-1-45-.5-58.5q-2-140-2-160 0-248 32-377H862q-15 81-20 150Q736-27 479-27zm283 1512h176q-29-248-340-248-318 0-336 248h178q12-113 160-113 150 0 162 113z"/><glyph glyph-name="Aogonek" unicode="Ą" horiz-adv-x="1384" d="m0 0 553 1485h274L1384 0q-186-92-186-160 0-71 92-71 58 0 94 14v-150q-74-18-149-18-64 0-114 14-55 15-98 60-44 46-44 112 0 130 121 199L983 330H381L266 0H0zm680 1184L457 547h448z"/><glyph glyph-name="aogonek" unicode="ą" horiz-adv-x="1165" d="M819 434v84q-266-24-378-71-111-47-111-138 0-72 55-112 56-41 147-41 137 0 212 69t75 209zM862 0q-15 81-20 149Q737-27 479-27q-180 0-294 90Q72 152 72 303q0 70 25 121 25 52 79 92t115 67q63 27 152 48 91 21 174 33 80 12 196 24v21q0 245-229 245-97 0-157-51-61-51-65-147H123q12 168 141 273 130 106 328 106 213 0 342-112 127-111 123-361 0-6-.5-21.5t-1-45-.5-58.5q-2-140-2-160 0-248 32-377-93-44-138-80-44-35-44-78 0-75 94-75 17 0 86 18v-150q-64-20-131-20-115 0-189 46-75 47-75 142 0 59 48 112 47 52 126 85z"/><glyph glyph-name="Cacute" unicode="Ć" horiz-adv-x="1486" d="M1167 494h250q-46-249-215-385T776-27q-321 0-504 210Q90 392 90 748q0 352 188 558 187 205 510 205 251 0 415-136 165-137 210-384h-250q-34 149-135 229-99 78-248 78-185 0-303-145-119-146-119-405 0-263 118-412 118-150 302-150 154 0 254 78t135 230zm11 1321-318-232H647l215 232h316z"/><glyph glyph-name="cacute" unicode="ć" horiz-adv-x="1155" d="M602 1126q186 0 323-110 138-111 171-291H858q-16 87-87 143t-169 56q-124 0-207-95-82-94-82-278 0-186 82-280 83-95 201-95 100 0 174 48t96 153h238q-35-188-181-295Q775-27 592-27q-237 0-384 163T61 549t149 414q148 163 392 163zm359 359-291-238H483l191 238h287z"/><glyph glyph-name="Ccircumflex" unicode="Ĉ" horiz-adv-x="1486" d="M1167 494h250q-46-249-215-385T776-27q-321 0-504 210Q90 392 90 748q0 352 188 558 187 205 510 205 251 0 415-136 165-137 210-384h-250q-34 149-135 229-99 78-248 78-185 0-303-145-119-146-119-405 0-263 118-412 118-150 302-150 154 0 254 78t135 230zM895 1815l276-232H922l-138 105-139-105H397l283 232h215z"/><glyph glyph-name="ccircumflex" unicode="ĉ" horiz-adv-x="1155" d="M602 1126q186 0 323-110 138-111 171-291H858q-16 87-87 143t-169 56q-124 0-207-95-82-94-82-278 0-186 82-280 83-95 201-95 100 0 174 48t96 153h238q-35-188-181-295Q775-27 592-27q-237 0-384 163T61 549t149 414q148 163 392 163zm96 359 287-238H760l-162 99-164-99H211l293 238h194z"/><glyph glyph-name="Cdotaccent" unicode="Ċ" horiz-adv-x="1486" d="M1167 494h250q-46-249-215-385T776-27q-321 0-504 210Q90 392 90 748q0 352 188 558 187 205 510 205 251 0 415-136 165-137 210-384h-250q-34 149-135 229-99 78-248 78-185 0-303-145-119-146-119-405 0-263 118-412 118-150 302-150 154 0 254 78t135 230zM659 1810h252v-221H659v221z"/><glyph glyph-name="cdotaccent" unicode="ċ" horiz-adv-x="1155" d="M602 1126q186 0 323-110 138-111 171-291H858q-16 87-87 143t-169 56q-124 0-207-95-82-94-82-278 0-186 82-280 83-95 201-95 100 0 174 48t96 153h238q-35-188-181-295Q775-27 592-27q-237 0-384 163T61 549t149 414q148 163 392 163zm-131 359h215v-228H471v228z"/><glyph glyph-name="Ccaron" unicode="Č" horiz-adv-x="1486" d="M1167 494h250q-46-249-215-385T776-27q-321 0-504 210Q90 392 90 748q0 352 188 558 187 205 510 205 251 0 415-136 165-137 210-384h-250q-34 149-135 229-99 78-248 78-185 0-303-145-119-146-119-405 0-263 118-412 118-150 302-150 154 0 254 78t135 230zM680 1583l-277 232h250l135-107 142 107h248l-283-232H680z"/><glyph glyph-name="ccaron" unicode="č" horiz-adv-x="1155" d="M602 1126q186 0 323-110 138-111 171-291H858q-16 87-87 143t-169 56q-124 0-207-95-82-94-82-278 0-186 82-280 83-95 201-95 100 0 174 48t96 153h238q-35-188-181-295Q775-27 592-27q-237 0-384 163T61 549t149 414q148 163 392 163zm-125 121-287 238h226l159-99 166 99h224l-293-238H477z"/><glyph glyph-name="Dcaron" unicode="Ď" horiz-adv-x="1472" d="M1114 743q0 168-47 280t-135 164q-87 52-177 70-93 19-212 19H410V209h133q124 0 212 18 85 17 177 72 88 52 135 165 47 112 47 279zm-964 742h405q141 0 267-22 122-21 227-73 106-52 179-136 72-82 114-212 42-129 42-299 0-213-62-359-63-148-178-230T885 36 555 0H150v1485zm464 98-276 232h250l135-107 141 107h248l-283-232H614z"/><glyph glyph-name="dcaron" unicode="ď" horiz-adv-x="1449" d="m1491 1485-143-348h-158l61 348h240zM868 954v531h244V0H868v145Q763-27 541-27q-203 0-341 159Q61 292 61 551q0 257 139 417 137 158 341 158 222 0 327-172zm11-403q0 181-80 279t-205 98q-123 0-201-104t-78-273q0-174 77-277 76-102 202-102t205 98q80 100 80 281z"/><glyph glyph-name="Dcroat" unicode="Đ" horiz-adv-x="1513" d="M190 1485h406q141 0 267-22 122-21 227-73 106-52 179-136 72-82 114-212 42-129 42-299 0-213-62-359-63-148-178-230T926 36 596 0H190v643H18v217h172v625zm965-742q0 168-47 280t-135 164q-87 52-177 70-93 19-212 19H451V860h272V643H451V209h133q124 0 212 18 85 17 177 72 88 52 135 165 47 112 47 279z"/><glyph glyph-name="dcroat" unicode="đ" horiz-adv-x="1257" d="M868 954v226H594v161h274v144h244v-144h145v-161h-145V0H868v145Q763-27 541-27q-203 0-341 159Q61 292 61 551q0 257 139 417 137 158 341 158 222 0 327-172zm11-403q0 181-80 279t-205 98q-123 0-201-104t-78-273q0-174 77-277 76-102 202-102t205 98q80 100 80 281z"/><glyph glyph-name="Emacron" unicode="Ē" horiz-adv-x="1259" d="M150 0v1485h1050v-217H410V870h747V655H410V219h790V0H150zm854 1610H373v178h631v-178z"/><glyph glyph-name="emacron" unicode="ē" horiz-adv-x="1196" d="M1133 481H311q12-145 100-225t199-80q208 0 271 154h239q-40-147-171-252T621-27q-257 0-407 169Q63 313 63 559q0 249 153 408t388 159q251 0 398-183 147-184 131-462zM604 936q-101 0-189-68-87-68-104-209h574q-5 125-86 201-82 76-195 76zm318 350H291v180h631v-180z"/><glyph glyph-name="Ebreve" unicode="Ĕ" horiz-adv-x="1259" d="M150 0v1485h1050v-217H410V870h747V655H410V219h790V0H150zm700 1815h182q-21-240-338-240-312 0-336 240h183q15-105 155-105 142 0 154 105z"/><glyph glyph-name="ebreve" unicode="ĕ" horiz-adv-x="1196" d="M1133 481H311q12-145 100-225t199-80q208 0 271 154h239q-40-147-171-252T621-27q-257 0-407 169Q63 313 63 559q0 249 153 408t388 159q251 0 398-183 147-184 131-462zM604 936q-101 0-189-68-87-68-104-209h574q-5 125-86 201-82 76-195 76zm150 549h176q-29-248-340-248-318 0-336 248h178q12-113 160-113 150 0 162 113z"/><glyph glyph-name="Edotaccent" unicode="Ė" horiz-adv-x="1259" d="M150 0v1485h1050v-217H410V870h747V655H410V219h790V0H150zm399 1810h252v-221H549v221z"/><glyph glyph-name="edotaccent" unicode="ė" horiz-adv-x="1196" d="M1133 481H311q12-145 100-225t199-80q208 0 271 154h239q-40-147-171-252T621-27q-257 0-407 169Q63 313 63 559q0 249 153 408t388 159q251 0 398-183 147-184 131-462zM604 936q-101 0-189-68-87-68-104-209h574q-5 125-86 201-82 76-195 76zm-119 549h215v-228H485v228z"/><glyph glyph-name="Eogonek" unicode="Ę" horiz-adv-x="1259" d="M150 0v1485h1050v-217H410V870h747V655H410V219h790V0H150zm790 0h260q-186-92-186-160 0-71 92-71 58 0 94 14v-150q-73-18-149-18-64 0-113 14-52 15-96 59-43 43-43 113Q799-74 940 0z"/><glyph glyph-name="eogonek" unicode="ę" horiz-adv-x="1196" d="M604 936q-103 0-191-67-87-66-102-210h574q-5 125-86 201-82 76-195 76zM872-215v-150q-64-20-131-20-115 0-189 46-75 47-75 142 0 94 92 172Q337-9 200 160T63 559q0 249 153 408t388 159q251 0 398-183 147-184 131-462H311q12-142 101-224 89-81 198-81 208 0 271 154h239q-56-192-233-293Q692-74 692-158q0-75 94-75 17 0 86 18z"/><glyph glyph-name="Ecaron" unicode="Ě" horiz-adv-x="1259" d="M150 0v1485h1050v-217H410V870h747V655H410V219h790V0H150zm434 1583-277 232h250l135-107 142 107h247l-282-232H584z"/><glyph glyph-name="ecaron" unicode="ě" horiz-adv-x="1196" d="M1133 481H311q12-145 100-225t199-80q208 0 271 154h239q-40-147-171-252T621-27q-257 0-407 169Q63 313 63 559q0 249 153 408t388 159q251 0 398-183 147-184 131-462zM604 936q-101 0-189-68-87-68-104-209h574q-5 125-86 201-82 76-195 76zm-112 311-287 238h225l160-99 166 99h223l-293-238H492z"/><glyph glyph-name="Gcircumflex" unicode="Ĝ" horiz-adv-x="1564" d="M803 1511q251 0 415-130 166-131 212-367h-248q-38 138-138 211t-247 73q-197 0-318-142T358 748q0-268 118-414 119-148 319-148 71 0 137 18 70 19 126 54 59 37 97 107 37 68 37 163v29H813v219h621V0h-205l-8 178Q1085-27 766-27q-314 0-495 211T90 748q0 348 192 556 191 207 521 207zm110 304 277-232H940l-137 105-139-105H416l282 232h215z"/><glyph glyph-name="gcircumflex" unicode="ĝ" horiz-adv-x="1247" d="M868 954v148h244V111q0-267-133-390-127-118-391-118-194 0-318 82-125 83-153 256h241q16-77 71-112 53-34 165-34 151 0 219 80 55 62 55 186v129Q763 18 541 18q-203 0-341 152Q61 323 61 573q0 252 139 403 138 150 341 150 222 0 327-172zm11-381q0 176-80 268-79 91-205 91t-202-97q-77-98-77-262 0-167 77-265 76-97 202-97 125 0 205 92t80 270zm-152 912 287-238H788l-161 99-164-99H240l292 238h195z"/><glyph glyph-name="Gbreve" unicode="Ğ" horiz-adv-x="1564" d="M803 1511q251 0 415-130 166-131 212-367h-248q-38 138-138 211t-247 73q-197 0-318-142T358 748q0-268 118-414 119-148 319-148 71 0 137 18 70 19 126 54 59 37 97 107 37 68 37 163v29H813v219h621V0h-205l-8 178Q1085-27 766-27q-314 0-495 211T90 748q0 348 192 556 191 207 521 207zm160 304h182q-23-240-338-240-312 0-336 240h182q15-105 156-105 142 0 154 105z"/><glyph glyph-name="gbreve" unicode="ğ" horiz-adv-x="1247" d="M868 954v148h244V111q0-267-133-390-127-118-391-118-194 0-318 82-125 83-153 256h241q16-77 71-112 53-34 165-34 151 0 219 80 55 62 55 186v129Q763 18 541 18q-203 0-341 152Q61 323 61 573q0 252 139 403 138 150 341 150 222 0 327-172zm11-381q0 176-80 268-79 91-205 91t-202-97q-77-98-77-262 0-167 77-265 76-97 202-97 125 0 205 92t80 270zm-115 912h176q-29-248-340-248-318 0-336 248h178q12-113 160-113 150 0 162 113z"/><glyph glyph-name="Gdotaccent" unicode="Ġ" horiz-adv-x="1564" d="M803 1511q251 0 415-130 166-131 212-367h-248q-38 138-138 211t-247 73q-197 0-318-142T358 748q0-268 118-414 119-148 319-148 71 0 137 18 70 19 126 54 59 37 97 107 37 68 37 163v29H813v219h621V0h-205l-8 178Q1085-27 766-27q-314 0-495 211T90 748q0 348 192 556 191 207 521 207zm-125 299h252v-221H678v221z"/><glyph glyph-name="gdotaccent" unicode="ġ" horiz-adv-x="1247" d="M868 954v148h244V111q0-267-133-390-127-118-391-118-194 0-318 82-125 83-153 256h241q16-77 71-112 53-34 165-34 151 0 219 80 55 62 55 186v129Q763 18 541 18q-203 0-341 152Q61 323 61 573q0 252 139 403 138 150 341 150 222 0 327-172zm11-381q0 176-80 268-79 91-205 91t-202-97q-77-98-77-262 0-167 77-265 76-97 202-97 125 0 205 92t80 270zm-402 912h215v-228H477v228z"/><glyph glyph-name="uni0122" unicode="Ģ" horiz-adv-x="1564" d="M803 1511q251 0 415-130 166-131 212-367h-248q-38 138-138 211t-247 73q-197 0-318-142T358 748q0-268 118-414 119-148 319-148 71 0 137 18 70 19 126 54 59 37 97 107 37 68 37 163v29H813v219h621V0h-205l-8 178Q1085-27 766-27q-314 0-495 211T90 748q0 348 192 556 191 207 521 207zM662-268v194h206v-209l-90-182H655l80 197h-73z"/><glyph glyph-name="uni0123" unicode="ģ" horiz-adv-x="1247" d="M682 1434v-195H475v209l90 182h125l-80-196h72zm186-480v148h244V111q0-267-133-390-127-118-391-118-194 0-318 82-125 83-153 256h241q16-77 71-112 53-34 165-34 151 0 219 80 55 62 55 186v129Q763 18 541 18q-203 0-341 152Q61 323 61 573q0 252 139 403 138 150 341 150 222 0 327-172zm11-381q0 176-80 268-79 91-205 91t-202-97q-77-98-77-262 0-167 77-265 76-97 202-97 125 0 205 92t80 270z"/><glyph glyph-name="Hcircumflex" unicode="Ĥ" horiz-adv-x="1529" d="M1118 1485h260V0h-260v655H410V0H150v1485h260V870h708v615zm-244 330 277-232H901l-137 105-139-105H377l282 232h215z"/><glyph glyph-name="hcircumflex" unicode="ĥ" horiz-adv-x="1206" d="M381 1485V948q99 178 334 178 375 0 375-434V0H846v633q0 68-7 110-8 46-27 92-19 45-63 69-43 24-112 24-256 0-256-342V0H137v1485h244zm-8 330 276-232H399l-137 105-139-105h-248l283 232h215z"/><glyph glyph-name="Hbar" unicode="Ħ" horiz-adv-x="1529" d="M1118 1485h260v-236h131v-196h-131V0h-260v655H410V0H150v1053H20v196h130v236h260v-236h708v236zM410 870h708v183H410V870z"/><glyph glyph-name="hbar" unicode="ħ" horiz-adv-x="1220" d="M395 1485v-144h256v-161H395V948q99 178 334 178 375 0 375-434V0H860v633q0 68-7 110-8 46-27 92-19 45-63 69-43 24-112 24-256 0-256-342V0H152v1180H-20v161h172v144h243z"/><glyph glyph-name="Itilde" unicode="Ĩ" horiz-adv-x="559" d="M410 1485V0H150v1485h260zm-7 250q85 0 103 80h170q-38-232-262-232-68 0-147 40t-115 40q-85 0-97-80h-174q39 232 262 232 70 0 146-40t114-40z"/><glyph glyph-name="itilde" unicode="ĩ" horiz-adv-x="518" d="M137 1102h244V0H137v1102zm246 313q84 0 102 90h174q-22-142-99-201t-165-59q-71 0-150 46t-116 46q-81 0-98-90h-174q23 140 99 200t165 60q72 0 146-46t116-46z"/><glyph glyph-name="Imacron" unicode="Ī" horiz-adv-x="559" d="M410 1485V0H150v1485h260zm184 125H-37v178h631v-178z"/><glyph glyph-name="imacron" unicode="ī" horiz-adv-x="518" d="M137 1102h244V0H137v1102zm436 184H-57v180h630v-180z"/><glyph glyph-name="Ibreve" unicode="Ĭ" horiz-adv-x="559" d="M410 1485V0H150v1485h260zm24 330h182q-22-240-337-240-312 0-336 240h182q15-105 156-105t153 105z"/><glyph glyph-name="ibreve" unicode="ĭ" horiz-adv-x="518" d="M137 1102h244V0H137v1102zm283 383h176q-29-248-340-248-318 0-336 248H98q12-113 160-113 150 0 162 113z"/><glyph glyph-name="Iogonek" unicode="Į" horiz-adv-x="559" d="M152 0h260Q225-92 225-160q0-71 92-71 59 0 95 14v-150q-74-18-150-18-63 0-112 14-53 15-97 59-43 43-43 113Q10-74 152 0zm258 1485V0H150v1485h260z"/><glyph glyph-name="iogonek" unicode="į" horiz-adv-x="518" d="M135 0h2v1102h244V0q-92-45-136-80t-44-78q0-75 94-75 17 0 86 18v-150q-64-20-131-20-116 0-190 46t-74 142Q-14-76 135 0zm2 1485h244v-246H137v246z"/><glyph glyph-name="Idotaccent" unicode="İ" horiz-adv-x="559" d="M410 1485V0H150v1485h260zm-256 325h252v-221H154v221z"/><glyph glyph-name="dotlessi" unicode="ı" horiz-adv-x="518" d="M137 1102h244V0H137v1102z"/><glyph glyph-name="Jcircumflex" unicode="Ĵ" horiz-adv-x="1189" d="M532-27q-241 0-375 143T23 502h258q0-155 64-235 64-81 187-81 120 0 184 81 64 80 64 235v983h260V502q0-244-133-386Q773-27 532-27zm496 1842 277-232h-250l-137 105-140-105H530l283 232h215z"/><glyph glyph-name="jcircumflex" unicode="ĵ" horiz-adv-x="518" d="M137-27v1129h244V-16q0-207-65-275-64-67-255-67h-81v188h45q73 0 93 27 19 26 19 116zm221 1512 287-238H420l-162 99-164-99h-223l293 238h194z"/><glyph glyph-name="uni0136" unicode="Ķ" horiz-adv-x="1382" d="M410 1485V778l630 707h310L799 881 1401 0h-307L627 692 410 455V0H150v1485h260zM616-268v194h207v-209l-90-182H610l80 197h-74z"/><glyph glyph-name="uni0137" unicode="ķ" horiz-adv-x="1095" d="M137 1485h244V659l407 443h293L659 649 1128 0H844L498 477 381 352V0H137v1485zM489-268v194h207v-209l-90-182H483l80 197h-74z"/><glyph glyph-name="Lacute" unicode="Ĺ" horiz-adv-x="1157" d="M410 1485V219h747V0H150v1485h260zm284 330-317-232H164l215 232h315z"/><glyph glyph-name="lacute" unicode="ĺ" horiz-adv-x="516" d="M381 1485V0H137v1485h244zm301 330-317-232H152l215 232h315z"/><glyph glyph-name="uni013B" unicode="Ļ" horiz-adv-x="1157" d="M410 1485V219h747V0H150v1485h260zM553-268v194h207v-209l-90-182H547l80 197h-74z"/><glyph glyph-name="uni013C" unicode="ļ" horiz-adv-x="518" d="M381 1485V0H137v1485h244zM158-268v194h207v-209l-91-182H152l79 197h-73z"/><glyph glyph-name="Lcaron" unicode="Ľ" horiz-adv-x="1157" d="M410 1485V219h747V0H150v1485h260zm497 0-143-348H606l62 348h239z"/><glyph glyph-name="lcaron" unicode="ľ" horiz-adv-x="724" d="m766 1485-143-348H465l61 348h240zm-385 0V0H137v1485h244z"/><glyph glyph-name="Ldot" unicode="Ŀ" horiz-adv-x="1157" d="M731 987h252V766H731v221zm-321 498V219h747V0H150v1485h260z"/><glyph glyph-name="ldot" unicode="ŀ" horiz-adv-x="733" d="M381 1485V0H137v1485h244zm137-518h215V739H518v228z"/><glyph glyph-name="Lslash" unicode="Ł" horiz-adv-x="1202" d="M455 1485V920l356 233V924L455 690V219h747V0H195v522L0 395v230l195 127v733h260z"/><glyph glyph-name="lslash" unicode="ł" horiz-adv-x="624" d="M434 1485V963l150 92V854l-150-92V0H190v614L41 524v201l149 90v670h244z"/><glyph glyph-name="Nacute" unicode="Ń" horiz-adv-x="1527" d="M1378 0h-348L401 1186V0H150v1485h348l628-1186v1186h252V0zm-194 1815-318-232H653l215 232h316z"/><glyph glyph-name="nacute" unicode="ń" horiz-adv-x="1206" d="M381 1102V948q99 178 334 178 375 0 375-434V0H846v633q0 68-7 110-8 46-27 92-19 45-63 69-43 24-112 24-256 0-256-342V0H137v1102h244zm614 383-290-238H518l191 238h286z"/><glyph glyph-name="uni0145" unicode="Ņ" horiz-adv-x="1527" d="M1378 0h-348L401 1186V0H150v1485h348l628-1186v1186h252V0zM664-268v194h206v-209l-90-182H657l80 197h-73z"/><glyph glyph-name="uni0146" unicode="ņ" horiz-adv-x="1206" d="M381 1102V948q99 178 334 178 375 0 375-434V0H846v633q0 68-7 110-8 46-27 92-19 45-63 69-43 24-112 24-256 0-256-342V0H137v1102h244zM502-268v194h207v-209l-91-182H496l79 197h-73z"/><glyph glyph-name="Ncaron" unicode="Ň" horiz-adv-x="1527" d="M1378 0h-348L401 1186V0H150v1485h348l628-1186v1186h252V0zM686 1583l-276 232h249l136-107 141 107h248l-283-232H686z"/><glyph glyph-name="ncaron" unicode="ň" horiz-adv-x="1206" d="M381 1102V948q99 178 334 178 375 0 375-434V0H846v633q0 68-7 110-8 46-27 92-19 45-63 69-43 24-112 24-256 0-256-342V0H137v1102h244zm151 145-286 238h225l160-99 166 99h223l-293-238H532z"/><glyph glyph-name="Eng" unicode="Ŋ" horiz-adv-x="1529" d="M1118 2 401 1186V0H150v1485h348l628-1030v1030h252V-18q0-212-74-277t-286-65H907v202h54q95 0 126 26t31 109V2z"/><glyph glyph-name="eng" unicode="ŋ" horiz-adv-x="1206" d="M846-14v647q0 68-7 110-8 47-27 91t-63 68q-43 24-112 24-256 0-256-340V0H137v1102h244V948q99 178 334 178 375 0 375-434V-14q0-203-74-274-73-70-260-70h-99v200h52q88 0 112 27 25 28 25 117z"/><glyph glyph-name="Omacron" unicode="Ō" horiz-adv-x="1597" d="M358 743q0-263 124-409 125-148 317-148 191 0 316 148 124 146 124 409t-124 409-316 146q-193 0-317-146T358 743zm1149 0q0-347-192-558Q1123-27 799-27T283 185Q90 398 90 743t192 557q192 211 517 211t517-211q191-210 191-557zm-393 867H483v178h631v-178z"/><glyph glyph-name="omacron" unicode="ō" horiz-adv-x="1212" d="M315 549q0-182 83-280 82-97 208-97t208 97q83 98 83 280 0 180-83 280-82 99-208 99t-208-99q-83-100-83-280zm291 577q223 0 382-149 161-150 161-428 0-281-161-428Q826-27 606-27T224 121Q63 268 63 549q0 278 161 428 159 149 382 149zm309 160H285v180h630v-180z"/><glyph glyph-name="Obreve" unicode="Ŏ" horiz-adv-x="1597" d="M358 743q0-263 124-409 125-148 317-148 191 0 316 148 124 146 124 409t-124 409-316 146q-193 0-317-146T358 743zm1149 0q0-347-192-558Q1123-27 799-27T283 185Q90 398 90 743t192 557q192 211 517 211t517-211q191-210 191-557zM954 1815h183q-23-240-338-240-312 0-336 240h182q15-105 156-105t153 105z"/><glyph glyph-name="obreve" unicode="ŏ" horiz-adv-x="1212" d="M315 549q0-182 83-280 82-97 208-97t208 97q83 98 83 280 0 180-83 280-82 99-208 99t-208-99q-83-100-83-280zm291 577q223 0 382-149 161-150 161-428 0-281-161-428Q826-27 606-27T224 121Q63 268 63 549q0 278 161 428 159 149 382 149zm156 359h176q-29-248-340-248-318 0-336 248h178q12-113 160-113 150 0 162 113z"/><glyph glyph-name="Ohungarumlaut" unicode="Ő" horiz-adv-x="1597" d="M358 743q0-263 124-409 125-148 317-148 191 0 316 148 124 146 124 409t-124 409-316 146q-193 0-317-146T358 743zm1149 0q0-347-192-558Q1123-27 799-27T283 185Q90 398 90 743t192 557q192 211 517 211t517-211q191-210 191-557zm-471 1072-317-232H506l215 232h315zm369 0-318-232H877l215 232h313z"/><glyph glyph-name="ohungarumlaut" unicode="ő" horiz-adv-x="1212" d="M315 549q0-182 83-280 82-97 208-97t208 97q83 98 83 280 0 180-83 280-82 99-208 99t-208-99q-83-100-83-280zm291 577q223 0 382-149 161-150 161-428 0-281-161-428Q826-27 606-27T224 121Q63 268 63 549q0 278 161 428 159 149 382 149zm193 359-287-238H322l190 238h287zm368 0-290-238H690l189 238h288z"/><glyph glyph-name="OE" unicode="Œ" horiz-adv-x="2322" d="M1241 748q0 263-123 407-122 143-319 143-193 0-317-144-124-143-124-406 0-265 124-413 125-149 317-149 193 0 318 148 124 146 124 414zm14-748v154Q1091-27 799-27q-324 0-516 213Q90 400 90 748q0 343 194 554 193 209 515 209 294 0 456-174v148h1008v-217h-790V870h745V655h-745V219h790V0H1255z"/><glyph glyph-name="oe" unicode="œ" horiz-adv-x="2021" d="M1430 936q-104 0-192-67-86-65-101-210h573q-5 125-86 201-82 76-194 76zm-824-8q-126 0-208-99-83-100-83-280 0-182 83-280 82-97 208-97t208 97q83 98 83 280 0 180-83 280-82 99-208 99zm1100-598h240q-40-147-171-252T1446-27q-274 0-424 203Q878-27 606-27q-220 0-382 148Q63 268 63 549q0 278 161 428 159 149 382 149 268 0 414-198 144 198 410 198 251 0 398-183 147-182 130-462h-821q12-143 100-224 89-81 199-81 207 0 270 154z"/><glyph glyph-name="Racute" unicode="Ŕ" horiz-adv-x="1390" d="M1053 0 739 627q-32-2-77-2H410V0H150v1485h473q341 0 501-95t160-333q0-289-278-383L1346 0h-293zM659 1276H410V831h258q177 0 264 49 86 48 86 175 0 133-90 177-91 44-269 44zm398 539-318-232H526l215 232h316z"/><glyph glyph-name="racute" unicode="ŕ" horiz-adv-x="755" d="M739 1100V854q-61 6-116 6-124 0-183-62t-59-220V0H137v1102h240V905q94 195 299 199 30 0 63-4zm82 385-291-238H344l191 238h286z"/><glyph glyph-name="uni0156" unicode="Ŗ" horiz-adv-x="1390" d="M1053 0 739 627q-32-2-77-2H410V0H150v1485h473q341 0 501-95t160-333q0-289-278-383L1346 0h-293zM659 1276H410V831h258q177 0 264 49 86 48 86 175 0 133-90 177-91 44-269 44zM594-268v194h207v-209l-90-182H588l80 197h-74z"/><glyph glyph-name="uni0157" unicode="ŗ" horiz-adv-x="755" d="M152-268v194h206v-209l-90-182H145l80 197h-73zm587 1368V854q-61 6-116 6-124 0-183-62t-59-220V0H137v1102h240V905q94 195 299 199 30 0 63-4z"/><glyph glyph-name="Rcaron" unicode="Ř" horiz-adv-x="1390" d="M1053 0 739 627q-32-2-77-2H410V0H150v1485h473q341 0 501-95t160-333q0-289-278-383L1346 0h-293zM659 1276H410V831h258q177 0 264 49 86 48 86 175 0 133-90 177-91 44-269 44zm-75 307-277 232h250l135-107 142 107h247l-282-232H584z"/><glyph glyph-name="rcaron" unicode="ř" horiz-adv-x="755" d="M739 1100V854q-61 6-116 6-124 0-183-62t-59-220V0H137v1102h240V905q94 195 299 199 30 0 63-4zm-401 147L51 1485h225l160-99 166 99h223l-293-238H338z"/><glyph glyph-name="Sacute" unicode="Ś" horiz-adv-x="1327" d="m702 639-180 35Q94 764 94 1094q0 195 169 306 170 111 392 111 233 0 385-109 154-110 197-333H985q-55 229-344 229-106 0-195-49-90-49-90-147 0-153 222-197l182-35q110-21 190-49 79-27 159-79 77-50 118-130t41-186q0-213-176-333T678-27q-265 0-433 138T53 492h256q69-306 381-306 138 0 228 60t90 164q0 102-85 153-88 52-221 76zm381 1176-317-232H553l215 232h315z"/><glyph glyph-name="sacute" unicode="ś" horiz-adv-x="1077" d="M995 801H766q-37 139-242 139-85 0-144-34-61-35-61-87 0-102 148-131l156-31q84-16 156-40 67-22 122-58 58-38 86-94 29-58 29-135 0-166-135-261-137-96-332-96-199 0-328 102Q93 176 72 336h237q34-178 248-178 99 0 160 39t61 104q0 113-190 152l-166 32q-155 33-244 107-88 73-88 215t132 230q133 89 317 89 169 0 297-84 126-83 159-241zm-73 684-291-238H444l191 238h287z"/><glyph glyph-name="Scircumflex" unicode="Ŝ" horiz-adv-x="1327" d="m702 639-180 35Q94 764 94 1094q0 195 169 306 170 111 392 111 233 0 385-109 154-110 197-333H985q-55 229-344 229-106 0-195-49-90-49-90-147 0-153 222-197l182-35q110-21 190-49 79-27 159-79 77-50 118-130t41-186q0-213-176-333T678-27q-265 0-433 138T53 492h256q69-306 381-306 138 0 228 60t90 164q0 102-85 153-88 52-221 76zm89 1176 276-232H817l-137 105-139-105H293l282 232h216z"/><glyph glyph-name="scircumflex" unicode="ŝ" horiz-adv-x="1077" d="M995 801H766q-37 139-242 139-85 0-144-34-61-35-61-87 0-102 148-131l156-31q84-16 156-40 67-22 122-58 58-38 86-94 29-58 29-135 0-166-135-261-137-96-332-96-199 0-328 102Q93 176 72 336h237q34-178 248-178 99 0 160 39t61 104q0 113-190 152l-166 32q-155 33-244 107-88 73-88 215t132 230q133 89 317 89 169 0 297-84 126-83 159-241zm-342 684 287-238H715l-162 99-164-99H166l293 238h194z"/><glyph glyph-name="Scedilla" unicode="Ş" horiz-adv-x="1327" d="m702 639-180 35Q94 764 94 1094q0 195 169 306 170 111 392 111 233 0 385-109 154-110 197-333H985q-55 229-344 229-106 0-195-49-90-49-90-147 0-153 222-197l182-35q110-21 190-49 79-27 159-79 77-50 118-130t41-186q0-213-176-333T678-27q-265 0-433 138T53 492h256q69-306 381-306 138 0 228 60t90 164q0 102-85 153-88 52-221 76zM446-360l35 88q53-29 119-29 117 0 117 61 0 60-84 60-48 0-78-19l-61 35L598 6h109L641-98q37 6 72 6 68-1 114-40 45-38 45-99 0-75-69-122-68-46-162-46-115 0-195 39z"/><glyph glyph-name="scedilla" unicode="ş" horiz-adv-x="1077" d="M995 801H766q-37 139-242 139-85 0-144-34-61-35-61-87 0-102 148-131l156-31q84-16 156-40 67-22 122-58 58-38 86-94 29-58 29-135 0-166-135-261-137-96-332-96-199 0-328 102Q93 176 72 336h237q34-178 248-178 99 0 160 39t61 104q0 113-190 152l-166 32q-155 33-244 107-88 73-88 215t132 230q133 89 317 89 169 0 297-84 126-83 159-241zM332-360l35 88q53-29 118-29 117 0 117 61 0 60-84 60-48 0-78-19l-61 35L483 6h109L526-98q38 6 72 6 69-1 115-40 45-38 45-99 0-75-70-122-68-46-162-46-114 0-194 39z"/><glyph glyph-name="Scaron" unicode="Š" horiz-adv-x="1327" d="m702 639-180 35Q94 764 94 1094q0 195 169 306 170 111 392 111 233 0 385-109 154-110 197-333H985q-55 229-344 229-106 0-195-49-90-49-90-147 0-153 222-197l182-35q110-21 190-49 79-27 159-79 77-50 118-130t41-186q0-213-176-333T678-27q-265 0-433 138T53 492h256q69-306 381-306 138 0 228 60t90 164q0 102-85 153-88 52-221 76zm-133 944-276 232h250l135-107 141 107h248l-283-232H569z"/><glyph glyph-name="scaron" unicode="š" horiz-adv-x="1077" d="M995 801H766q-37 139-242 139-85 0-144-34-61-35-61-87 0-102 148-131l156-31q84-16 156-40 67-22 122-58 58-38 86-94 29-58 29-135 0-166-135-261-137-96-332-96-199 0-328 102Q93 176 72 336h237q34-178 248-178 99 0 160 39t61 104q0 113-190 152l-166 32q-155 33-244 107-88 73-88 215t132 230q133 89 317 89 169 0 297-84 126-83 159-241zm-553 446-286 238h225l160-99 166 99h223l-293-238H442z"/><glyph glyph-name="uni0162" unicode="Ţ" horiz-adv-x="1214" d="M502-268v194h207v-209l-91-182H496l79 197h-73zM477 0v1268H10v217h1194v-217H737V0H477z"/><glyph glyph-name="uni0163" unicode="ţ" horiz-adv-x="696" d="M172 1102v291h244v-291h221V926H416V326q0-86 26-112 28-28 105-28h88V0H455Q280 0 226 58t-54 231v637H8v176h164zm55-1370v194h207v-209l-90-182H221l80 197h-74z"/><glyph glyph-name="Tcaron" unicode="Ť" horiz-adv-x="1214" d="M477 0v1268H10v217h1194v-217H737V0H477zm15 1583-277 232h250l135-107 141 107h248l-282-232H492z"/><glyph glyph-name="tcaron" unicode="ť" horiz-adv-x="819" d="m860 1483-143-307H559l62 307h239zm-688-381v291h244v-291h221V926H416V326q0-86 26-112 28-28 105-28h88V0H455Q280 0 226 58t-54 231v637H8v176h164z"/><glyph glyph-name="Tbar" unicode="Ŧ" horiz-adv-x="1208" d="M477 0v643H139v217h338v408H10v217h1194v-217H737V860h330V643H737V0H477z"/><glyph glyph-name="tbar" unicode="ŧ" horiz-adv-x="696" d="M184 1102v291h244v-291h221V926H428V762h221V575H428V326q0-85 27-112 28-28 104-28h88V0H467Q293 0 239 58q-55 60-55 231v286H20v187h164v164H20v176h164z"/><glyph glyph-name="Utilde" unicode="Ũ" horiz-adv-x="1468" d="M127 1485h260V608q0-217 75-319 76-103 273-103 194 0 271 107 75 104 75 323v869h260V627q0-352-140-502Q1060-27 735-27q-326 0-467 146-141 145-141 499v867zm752 250q84 0 102 80h170q-38-232-262-232-68 0-147 40t-115 40q-85 0-97-80H356q39 232 262 232 70 0 146-40t115-40z"/><glyph glyph-name="utilde" unicode="ũ" horiz-adv-x="1198" d="M817 0v152Q718-27 492-27q-369 0-369 435v694h244V467q0-66 6-111 6-46 25-91t63-69q43-24 108-24 248 0 248 342v588h244V0H817zm-80 1415q85 0 103 90h174q-22-141-100-201-77-59-164-59-72 0-151 46t-116 46q-81 0-98-90H211q23 140 99 200t165 60q73 0 147-46t115-46z"/><glyph glyph-name="Umacron" unicode="Ū" horiz-adv-x="1468" d="M127 1485h260V608q0-217 75-319 76-103 273-103 194 0 271 107 75 104 75 323v869h260V627q0-352-140-502Q1060-27 735-27q-326 0-467 146-141 145-141 499v867zm922 125H418v178h631v-178z"/><glyph glyph-name="umacron" unicode="ū" horiz-adv-x="1198" d="M817 0v152Q718-27 492-27q-369 0-369 435v694h244V467q0-66 6-111 6-46 25-91t63-69q43-24 108-24 248 0 248 342v588h244V0H817zm90 1286H276v180h631v-180z"/><glyph glyph-name="Ubreve" unicode="Ŭ" horiz-adv-x="1468" d="M127 1485h260V608q0-217 75-319 76-103 273-103 194 0 271 107 75 104 75 323v869h260V627q0-352-140-502Q1060-27 735-27q-326 0-467 146-141 145-141 499v867zm762 330h182q-23-240-338-240-312 0-336 240h183q15-105 155-105 142 0 154 105z"/><glyph glyph-name="ubreve" unicode="ŭ" horiz-adv-x="1198" d="M817 0v152Q718-27 492-27q-369 0-369 435v694h244V467q0-66 6-111 6-46 25-91t63-69q43-24 108-24 248 0 248 342v588h244V0H817zm-63 1485h176q-29-248-340-248-318 0-336 248h178q12-113 160-113 150 0 162 113z"/><glyph glyph-name="Uring" unicode="Ů" horiz-adv-x="1468" d="M127 1485h260V608q0-217 75-319 76-103 273-103 194 0 271 107 75 104 75 323v869h260V627q0-352-140-502Q1060-27 735-27q-326 0-467 146-141 145-141 499v867zm606 430q81 0 133-48 54-49 54-126 0-74-54-125-52-49-133-49-79 0-131 49-53 50-53 125t53 125q52 49 131 49zm0-86q-36 0-62-26t-26-62q0-38 26-62 25-24 62-24t63 24q25 24 25 62 0 37-25 62-26 26-63 26z"/><glyph glyph-name="uring" unicode="ů" horiz-adv-x="1198" d="M817 0v152Q718-27 492-27q-369 0-369 435v694h244V467q0-66 6-111 6-46 25-91t63-69q43-24 108-24 248 0 248 342v588h244V0H817zM596 1595q79 0 135-50 55-49 55-128t-55-128q-56-50-135-50t-135 50q-55 49-55 128t55 128q56 50 135 50zm0-92q-35 0-59-24-25-25-25-62 0-35 25-60 24-24 59-24 37 0 61 24 25 25 25 60 0 38-26 62t-60 24z"/><glyph glyph-name="Uhungarumlaut" unicode="Ű" horiz-adv-x="1468" d="M127 1485h260V608q0-217 75-319 76-103 273-103 194 0 271 107 75 104 75 323v869h260V627q0-352-140-502Q1060-27 735-27q-326 0-467 146-141 145-141 499v867zm823 330-317-232H420l215 232h315zm369 0-318-232H791l215 232h313z"/><glyph glyph-name="uhungarumlaut" unicode="ű" horiz-adv-x="1198" d="m791 1485-287-238H313l191 238h287zm368 0-291-238H682l188 238h289zM817 0v152Q718-27 492-27q-369 0-369 435v694h244V467q0-66 6-111 6-46 25-91t63-69q43-24 108-24 248 0 248 342v588h244V0H817z"/><glyph glyph-name="Uogonek" unicode="Ų" horiz-adv-x="1468" d="M770-385q-64 0-113 14-52 15-96 59-43 43-43 113 0 104 105 176Q360-2 244 147 127 297 127 618v867h260V608q0-217 75-319 76-103 273-103 194 0 271 107 75 104 75 323v869h260V627q0-306-100-452Q1140 27 901-25q-71-17-118-56-50-41-50-79 0-71 92-71 59 0 95 14v-150q-74-18-150-18z"/><glyph glyph-name="uogonek" unicode="ų" horiz-adv-x="1198" d="M817 0v152Q718-27 492-27q-369 0-369 435v694h244V467q0-66 6-111 6-46 25-91t63-69q43-24 108-24 248 0 248 342v588h244V0H817zm-2 0h246q-92-45-136-80t-44-78q0-75 94-75 17 0 86 18v-150q-64-20-131-20-116 0-190 46t-74 142Q666-76 815 0z"/><glyph glyph-name="Wcircumflex" unicode="Ŵ" horiz-adv-x="1835" d="m1069 1485 254-1149 225 1149h273L1475 0h-308L918 1139 672 0H360L12 1485h283L532 338l236 1147h301zm-43 330 277-232h-250l-138 105-139-105H528l283 232h215z"/><glyph glyph-name="wcircumflex" unicode="ŵ" horiz-adv-x="1503" d="m436 319 189 783h252l190-783 162 783h264L1200 0H969L752 815 535 0H303L10 1102h264zm406 1166 286-238H903l-162 99-163-99H354l293 238h195z"/><glyph glyph-name="Ycircumflex" unicode="Ŷ" horiz-adv-x="1316" d="M-10 1485h297l368-664 379 664h293L780 573V0H520v578zm776 330 276-232H793l-138 105-139-105H268l283 232h215z"/><glyph glyph-name="ycircumflex" unicode="ŷ" horiz-adv-x="1015" d="M205-358H94v186h92q87 0 127 26t74 126l12 26L0 1102h266l250-791 250 791h250L629 2q-80-219-161-290-80-70-263-70zm403 1843 287-238H670l-162 99-164-99H121l293 238h194z"/><glyph glyph-name="Ydieresis" unicode="Ÿ" horiz-adv-x="1316" d="M-10 1485h297l368-664 379 664h293L780 573V0H520v578zm317 325h215v-221H307v221zm484 0h215v-221H791v221z"/><glyph glyph-name="Zacute" unicode="Ź" horiz-adv-x="1282" d="M1204 1485v-211L375 225h854V0H57v211l832 1049H123v225h1081zm-137 330-317-232H537l215 232h315z"/><glyph glyph-name="zacute" unicode="ź" horiz-adv-x="1011" d="M53 0v186l590 729H94v187h852V915L354 186h607V0H53zm836 1485-291-238H412l190 238h287z"/><glyph glyph-name="Zdotaccent" unicode="Ż" horiz-adv-x="1282" d="M1204 1485v-211L375 225h854V0H57v211l832 1049H123v225h1081zm-686 325h252v-221H518v221z"/><glyph glyph-name="zdotaccent" unicode="ż" horiz-adv-x="1011" d="M53 0v186l590 729H94v187h852V915L354 186h607V0H53zm367 1485h215v-228H420v228z"/><glyph glyph-name="Zcaron" unicode="Ž" horiz-adv-x="1282" d="M1204 1485v-211L375 225h854V0H57v211l832 1049H123v225h1081zm-631 98-276 232h250l135-107 141 107h248l-283-232H573z"/><glyph glyph-name="zcaron" unicode="ž" horiz-adv-x="1011" d="M53 0v186l590 729H94v187h852V915L354 186h607V0H53zm373 1247-287 238h226l159-99 166 99h223l-292-238H426z"/><glyph glyph-name="uni018F" unicode="Ə" horiz-adv-x="1587" d="M96 866h1127q-12 208-133 320t-295 112q-145 0-249-64-105-65-149-179H133q61 229 239 343 175 113 419 113 327 0 515-204 189-206 189-559 0-356-191-565Q1112-27 791-27q-362 0-545 255T96 866zm695-680q181 0 300 119 117 117 134 342H365q5-221 124-340 121-121 302-121z"/><glyph glyph-name="uni0218" unicode="Ș" horiz-adv-x="1327" d="m702 639-180 35Q94 764 94 1094q0 195 169 306 170 111 392 111 233 0 385-109 154-110 197-333H985q-55 229-344 229-106 0-195-49-90-49-90-147 0-153 222-197l182-35q110-21 190-49 79-27 159-79 77-50 118-130t41-186q0-213-176-333T678-27q-265 0-433 138T53 492h256q69-306 381-306 138 0 228 60t90 164q0 102-85 153-88 52-221 76zM559-268v194h207v-209l-90-182H553l80 197h-74z"/><glyph glyph-name="uni0219" unicode="ș" horiz-adv-x="1077" d="M995 801H766q-37 139-242 139-85 0-144-34-61-35-61-87 0-102 148-131l156-31q84-16 156-40 67-22 122-58 58-38 86-94 29-58 29-135 0-166-135-261-137-96-332-96-199 0-328 102Q93 176 72 336h237q34-178 248-178 99 0 160 39t61 104q0 113-190 152l-166 32q-155 33-244 107-88 73-88 215t132 230q133 89 317 89 169 0 297-84 126-83 159-241zM438-268v194h207v-209l-90-182H432l80 197h-74z"/><glyph glyph-name="uni021A" unicode="Ț" horiz-adv-x="1214" d="M502-268v194h207v-209l-91-182H496l79 197h-73zM477 0v1268H10v217h1194v-217H737V0H477z"/><glyph glyph-name="uni021B" unicode="ț" horiz-adv-x="696" d="M172 1102v291h244v-291h221V926H416V326q0-86 26-112 28-28 105-28h88V0H455Q280 0 226 58t-54 231v637H8v176h164zm55-1370v194h207v-209l-90-182H221l80 197h-74z"/><glyph glyph-name="uni0232" unicode="Ȳ" horiz-adv-x="1316" d="M-10 1485h297l368-664 379 664h293L780 573V0H520v578zm981 125H340v178h631v-178z"/><glyph glyph-name="uni0233" unicode="ȳ" horiz-adv-x="1015" d="M205-358H94v186h92q87 0 127 26t74 126l12 26L0 1102h266l250-791 250 791h250L629 2q-80-219-161-290-80-70-263-70zm618 1644H193v180h630v-180z"/><glyph glyph-name="uni0237" unicode="ȷ" horiz-adv-x="518" d="M137-27v1129h244V-16q0-207-65-275-64-67-255-67h-81v188h45q73 0 93 27 19 26 19 116z"/><glyph glyph-name="uni0259" unicode="ə" horiz-adv-x="1196" d="M66 618h821q-12 146-100 226t-199 80q-208 0-271-154H78q40 147 171 252 129 104 329 104 256 0 406-169 151-171 151-416 0-249-153-408Q828-27 594-27q-250 0-398 184Q50 339 66 618zm528-454q103 0 189 67 87 68 104 209H313q4-124 86-200t195-76z"/><glyph glyph-name="circumflex" unicode="ˆ" horiz-adv-x="864" d="m532 1485 287-238H594l-162 99-164-99H45l293 238h194z"/><glyph glyph-name="caron" unicode="ˇ" horiz-adv-x="864" d="M332 1247 45 1485h225l160-99 166 99h223l-293-238H332z"/><glyph glyph-name="breve" unicode="˘" horiz-adv-x="765" d="M545 1485h176q-29-248-340-248-318 0-336 248h178q12-113 160-113 150 0 162 113z"/><glyph glyph-name="dotaccent" unicode="˙" horiz-adv-x="305" d="M45 1485h215v-228H45v228z"/><glyph glyph-name="ring" unicode="˚" horiz-adv-x="471" d="M236 1595q79 0 135-50 55-49 55-128t-55-128q-56-50-135-50-80 0-136 50-55 49-55 128t55 128q56 50 136 50zm0-92q-36 0-60-24t-24-62q0-36 24-60t60-24q37 0 61 24 25 25 25 60 0 38-26 62t-60 24z"/><glyph glyph-name="ogonek" unicode="˛" horiz-adv-x="485" d="M195 0h245q-92-45-136-80t-44-78q0-75 94-75 17 0 86 18v-150q-64-20-131-20-115 0-189 46-75 47-75 142Q45-76 195 0z"/><glyph glyph-name="tilde" unicode="˜" horiz-adv-x="892" d="M571 1415q85 0 103 90h174q-22-142-99-201t-165-59q-72 0-151 46t-116 46q-81 0-98-90H45q23 140 99 200t165 60q73 0 147-46t115-46z"/><glyph glyph-name="hungarumlaut" unicode="˝" horiz-adv-x="935" d="m522 1485-286-238H45l191 238h286zm369 0-291-238H414l188 238h289z"/><glyph glyph-name="uni0326" unicode="̦" horiz-adv-x="303" d="M51-268v194h207v-209l-90-182H45l80 197H51z"/><glyph glyph-name="uni032C" unicode="̬" horiz-adv-x="864" d="M354-283 45 0h231l154-121L590 0h229L504-283H354z"/><glyph glyph-name="uni0394" unicode="Δ" horiz-adv-x="1423" d="m-4 0 717 1503L1427 0H-4zm1100 211-383 803-385-803h768z"/><glyph glyph-name="uni0394" unicode="∆" horiz-adv-x="1423" d="m-4 0 717 1503L1427 0H-4zm1100 211-383 803-385-803h768z"/><glyph glyph-name="uni03A9" unicode="Ω" horiz-adv-x="1628" d="M815 1511q296 0 511-173 214-172 214-470 0-192-110-344-112-154-289-215v-90h397V0H911v442q174 24 281 148 106 122 106 284 0 192-134 317-133 124-349 124-218 0-351-124-134-125-134-317 0-160 107-283 109-125 280-149V0H90v219h397v90q-177 61-288 214T88 868q0 298 214 470 215 173 513 173z"/><glyph glyph-name="uni03A9" unicode="Ω" horiz-adv-x="1628" d="M815 1511q296 0 511-173 214-172 214-470 0-192-110-344-112-154-289-215v-90h397V0H911v442q174 24 281 148 106 122 106 284 0 192-134 317-133 124-349 124-218 0-351-124-134-125-134-317 0-160 107-283 109-125 280-149V0H90v219h397v90q-177 61-288 214T88 868q0 298 214 470 215 173 513 173z"/><glyph glyph-name="pi" unicode="π" horiz-adv-x="1359" d="M461 0H231v883H66v219h1220V883h-166V332q0-85 18-109t89-24h65V0h-100q-179 0-239 60t-60 249v574H461V0z"/><glyph glyph-name="uni0401" unicode="Ё" horiz-adv-x="1329" d="M174 0v1485h1051v-217H434V870h748V655H434V219h791V0H174zm197 1810h215v-221H371v221zm483 0h215v-221H854v221z"/><glyph glyph-name="uni0402" unicode="Ђ" horiz-adv-x="1638" d="M717 645V0H457v1268H20v217h1217v-217H717V864q206 49 358 49 226 0 342-117 117-118 117-335 0-250-137-366-136-115-344-115-105 0-191 20l25 211q74-16 151-16 230 5 230 260 0 127-62 184t-186 57q-135 0-303-51z"/><glyph glyph-name="uni0403" unicode="Ѓ" horiz-adv-x="1193" d="m1108 1815-317-232H578l215 232h315zm66-330v-217H434V0H174v1485h1000z"/><glyph glyph-name="uni0404" unicode="Є" horiz-adv-x="1525" d="M1225 514h252q-40-246-226-394Q1066-27 799-27q-333 0-523 210Q86 392 86 743q0 349 195 557 195 209 528 209 261 0 440-147t219-393h-251q-34 162-149 245-113 82-269 82-179 0-296-116-119-117-143-320h648V645H358q16-210 140-335 123-124 303-124 160 0 274 81 116 82 150 247z"/><glyph glyph-name="uni0405" unicode="Ѕ" horiz-adv-x="1320" d="m702 639-180 35Q94 764 94 1094q0 195 169 306 170 111 392 111 233 0 385-109 154-110 197-333H985q-55 229-344 229-106 0-195-49-90-49-90-147 0-153 222-197l182-35q110-21 190-49 79-27 159-79 77-50 118-130t41-186q0-213-176-333T678-27q-265 0-433 138T53 492h256q69-306 381-306 138 0 228 60t90 164q0 102-85 153-88 52-221 76z"/><glyph glyph-name="uni0406" unicode="І" horiz-adv-x="608" d="M434 1485V0H174v1485h260z"/><glyph glyph-name="uni0407" unicode="Ї" horiz-adv-x="608" d="M434 1485V0H174v1485h260zm-477 325h215v-221H-43v221zm483 0h215v-221H440v221z"/><glyph glyph-name="uni0408" unicode="Ј" horiz-adv-x="1187" d="M539-27q-242 0-376 143T29 502h258q0-155 64-235 65-81 188-81 119 0 183 81 64 80 64 235v983h261V502q0-243-134-386T539-27z"/><glyph glyph-name="uni0409" unicode="Љ" horiz-adv-x="2129" d="M1286 956h152q149 0 259-21 107-20 201-73t140-147q47-97 47-238 0-138-47-235T1900 94t-203-72Q1581 0 1438 0h-412v1268H604l-12-320Q554 0 117 0H55v217h29q238 0 256 860l10 408h936V956zm0-739h160q178 0 275 54 98 54 98 206 0 153-97 208-96 54-276 54h-160V217z"/><glyph glyph-name="uni040A" unicode="Њ" horiz-adv-x="2246" d="M1403 956h151q150 0 260-21 107-20 201-73 93-52 139-147 48-99 48-238 0-136-48-235-47-97-138-148-92-51-202-72-116-22-260-22h-411v655H434V0H174v1485h260V870h709v615h260V956zm0-739h160q177 0 275 54 97 54 97 206 0 154-96 208t-276 54h-160V217z"/><glyph glyph-name="uni040B" unicode="Ћ" horiz-adv-x="1636" d="M1075 913q238 0 347-110 110-112 110-342V0h-260v379q0 181-61 247-60 64-218 64-115 0-276-41V0H457v1268H20v217h1217v-217H717V860q210 53 358 53z"/><glyph glyph-name="uni040C" unicode="Ќ" horiz-adv-x="1443" d="m1071 1815-317-232H541l215 232h315zM1104 0 616 659H432V0H174v1485h258V877h189l464 608h306L831 778 1413 0h-309z"/><glyph glyph-name="uni040E" unicode="Ў" horiz-adv-x="1265" d="m655 596 349 889h282L760 266Q698 123 598 48q-99-75-254-75H178v215h148q59 0 100 19t70 67l36 60L0 1485h279zm199 1219h182q-11-120-108-185-98-65-271-65-171 0-267 65-97 66-109 185h182q17-115 196-115 85 0 138 31 51 30 57 84z"/><glyph glyph-name="uni040F" unicode="Џ" horiz-adv-x="1515" d="M879 0v-305H637V0H174v1485h260V217h647v1268h260V0H879z"/><glyph glyph-name="uni0410" unicode="А" horiz-adv-x="1398" d="m8 0 553 1485h275L1393 0h-285L991 330H389L274 0H8zm680 1184L465 547h448z"/><glyph glyph-name="uni0411" unicode="Б" horiz-adv-x="1366" d="M434 1270V909h311q269 0 411-102t142-340Q1298 0 733 0H174v1485h1014v-215H434zm0-1055h307q141 0 215 63t74 183q0 126-74 182-73 55-221 55H434V215z"/></font>
</defs>
</svg>
